SplineFontDB: 3.0
FontName: Goudy14-Italic
FullName: Goudy Italic 14pt
FamilyName: Goudy14
Weight: Medium
Copyright: Copyright (c) 2009 Barry Schwartz\n\nPermission is hereby granted, free of charge, to any person obtaining a copy\nof this software and associated documentation files (the "Software"), to deal\nin the Software without restriction, including without limitation the rights\nto use, copy, modify, merge, publish, distribute, sublicense, and/or sell\ncopies of the Software, and to permit persons to whom the Software is\nfurnished to do so, subject to the following conditions:\n\nThe above copyright notice and this permission notice shall be included in\nall copies or substantial portions of the Software.\n\nTHE SOFTWARE IS PROVIDED "AS IS", WITHOUT WARRANTY OF ANY KIND, EXPRESS OR\nIMPLIED, INCLUDING BUT NOT LIMITED TO THE WARRANTIES OF MERCHANTABILITY,\nFITNESS FOR A PARTICULAR PURPOSE AND NONINFRINGEMENT. IN NO EVENT SHALL THE\nAUTHORS OR COPYRIGHT HOLDERS BE LIABLE FOR ANY CLAIM, DAMAGES OR OTHER\nLIABILITY, WHETHER IN AN ACTION OF CONTRACT, TORT OR OTHERWISE, ARISING FROM,\nOUT OF OR IN CONNECTION WITH THE SOFTWARE OR THE USE OR OTHER DEALINGS IN\nTHE SOFTWARE.\n
UComments: "2009-6-24: Created." 
Version: 001.001
ItalicAngle: -6
UnderlinePosition: -203
UnderlineWidth: 101
Ascent: 1591
Descent: 457
LayerCount: 3
Layer: 0 0 "Back"  1
Layer: 1 0 "Fore"  0
Layer: 2 0 "backup"  1
XUID: [1021 658 797806517 2347079]
FSType: 0
OS2Version: 0
OS2_WeightWidthSlopeOnly: 0
OS2_UseTypoMetrics: 1
CreationTime: 1245830276
ModificationTime: 1248130331
PfmFamily: 17
TTFWeight: 500
TTFWidth: 5
LineGap: 184
VLineGap: 0
OS2TypoAscent: 0
OS2TypoAOffset: 1
OS2TypoDescent: 0
OS2TypoDOffset: 1
OS2TypoLinegap: 184
OS2WinAscent: 0
OS2WinAOffset: 1
OS2WinDescent: 0
OS2WinDOffset: 1
HheadAscent: 0
HheadAOffset: 1
HheadDescent: 0
HheadDOffset: 1
OS2Vendor: 'PfEd'

StartChar: h
Encoding: 104 104 0
Width: 1052
VWidth: 0
Flags: MW
PickledData: "(dp1
S'spacing_anchors_slanted'
p2
I00
s."
HStem: -7 139<691 845.801> -2 21G<139.5 172.5 691 778> 762 109<484.181 642.664> 1444 85<144.559 288.868>
VStem: 633 128<133.237 565.405> 670 140<287.215 738.217>
AnchorPoint: "top" 631 1480 basechar 0
LayerCount: 3
Fore
SplineSet
85 47 m 0
 85 103 128 309 144 422 c 0
 166 574 289 1382 289 1397 c 0
 289 1432 269 1444 232 1444 c 0
 190 1444 164 1442 148 1442 c 0
 135 1442 122 1446 122 1466 c 0
 122 1477 130 1490 200 1496 c 0
 368 1510 375 1529 420 1529 c 0
 434 1529 444 1518 444 1504 c 0
 444 1458 322 904 322 718 c 0
 322 705 324 697 330 697 c 0
 351 697 463 871 628 871 c 0
 770 871 810 764 810 638 c 0
 810 521 761 319 761 225 c 0
 761 169 779 132 810 132 c 0
 843 132 869 151 896 168 c 0
 939 195 964 252 980 252 c 0
 992 252 999 246 999 235 c 0
 999 140 823 -7 733 -7 c 0
 649 -7 633 96 633 185 c 0
 633 312 670 479 670 602 c 0
 670 731 615 762 554 762 c 0
 481 762 364 726 309 584 c 0
 269 481 256 267 228 59 c 0
 220 5 194 -2 151 -2 c 0
 128 -2 85 6 85 47 c 0
EndSplineSet
Validated: 1
EndChar

StartChar: g
Encoding: 103 103 1
Width: 956
VWidth: 0
Flags: HMW
PickledData: "(dp1
S'spacing_anchors_slanted'
p2
I00
s."
HStem: -400 52<312.062 603.011> 235 47<398.246 533.819> 750 116<756.812 934.609> 822 53<431.268 572.733>
VStem: 38 114<-244.882 -24.3287> 203 122<340.68 702.406> 291 1<193 288> 650 118<418.877 753.634> 684 132<-302.197 -162.365>
AnchorPoint: "top" 564 940 basechar 0
LayerCount: 3
Fore
SplineSet
38 -149 m 0
 38 36 235 45 235 57 c 0
 235 70 211 82 211 148 c 0
 211 246 291 270 291 288 c 0
 291 305 203 323 203 547 c 0
 203 670 312 875 508 875 c 0
 594 875 675 822 734 822 c 0
 790 822 847 866 881 866 c 0
 900 866 939 858 939 814 c 0
 939 791 916 750 865 750 c 0
 811 750 773 765 756 765 c 0
 743 765 732 756 732 747 c 0
 732 732 768 678 768 588 c 0
 768 458 662 235 475 235 c 0
 380 235 349 262 317 262 c 0
 315 262 292 247 292 193 c 0
 292 20 816 70 816 -178 c 0
 816 -352 663 -400 458 -400 c 0
 248 -400 38 -328 38 -149 c 0
152 -124 m 0
 152 -279 318 -348 454 -348 c 0
 540 -348 684 -330 684 -216 c 0
 684 -174 621 -128 323 -8 c 0
 272 12 255 28 255 28 c 1
 224 28 152 -42 152 -124 c 0
325 513 m 0
 325 354 391 282 464 282 c 0
 552 282 650 388 650 577 c 0
 650 741 579 822 504 822 c 0
 418 822 325 716 325 513 c 0
EndSplineSet
Validated: 1
EndChar

StartChar: f
Encoding: 102 102 2
Width: 569
VWidth: 19
Flags: W
PickledData: "(dp1
S'spacing_anchors_slanted'
p2
I00
s."
HStem: -368 85<18.5 147.349> 766 83<90.1013 287.996 429.322 658.216> 1428 107<596.97 774.5>
VStem: -39 86<-274.178 -190.659>
LayerCount: 3
Fore
SplineSet
-39 -320 m 0
 -39 -303 -19 -181 22 -181 c 0
 33 -181 44 -189 47 -209 c 0
 55 -258 98 -283 109 -283 c 0
 175 -283 179 -41 205 149 c 0
 286 739 288 735 288 739 c 0
 288 755 282 766 268 766 c 0
 150 766 167 765 143 765 c 0
 98 765 90 778 90 802 c 0
 90 840 98 853 145 853 c 0
 146 853 247 849 292 849 c 0
 299 849 305 851 307 865 c 0
 328 1006 364 1203 482 1372 c 0
 553 1473 632 1535 741 1535 c 0
 808 1535 837 1514 837 1461 c 0
 837 1445 830 1344 802 1344 c 0
 758 1344 723 1428 631 1428 c 0
 525 1428 429 899 429 870 c 0
 429 854 436 850 453 850 c 0
 497 850 565 854 619 854 c 0
 649 854 659 841 659 820 c 0
 659 800 653 763 618 763 c 0
 539 763 500 769 445 769 c 0
 408 769 412 742 411 736 c 0
 394 621 349 -15 294 -149 c 0
 215 -342 78 -368 36 -368 c 0
 1 -368 -39 -353 -39 -320 c 0
EndSplineSet
EndChar

StartChar: e
Encoding: 101 101 3
Width: 822
VWidth: 0
Flags: HW
PickledData: "(dp1
S'spacing_anchors_slanted'
p2
I00
s."
HStem: -24 123<311.74 572.509> 438 36<237.348 375.649> 831 62<420.612 590.937>
VStem: 65 140<202.493 475.895> 618 141<616.728 813.249>
AnchorPoint: "top" 546 940 basechar 0
LayerCount: 3
Fore
SplineSet
65 302 m 0
 65 479 156 653 297 785 c 0
 373 857 468 893 582 893 c 0
 678 893 759 832 759 741 c 0
 759 593 600 511 562 494 c 0
 543 486 432 441 240 438 c 0
 211 438 205 408 205 354 c 0
 205 200 298 99 500 99 c 0
 617 99 698 187 720 187 c 0
 736 187 746 179 746 166 c 0
 746 119 568 -24 390 -24 c 0
 129 -24 65 120 65 302 c 0
234 515 m 0
 234 501 238 474 252 474 c 0
 451 474 618 605 618 735 c 0
 618 812 544 831 510 831 c 0
 458 831 394 791 341 735 c 0
 280 671 234 542 234 515 c 0
EndSplineSet
Validated: 1
EndChar

StartChar: d
Encoding: 100 100 4
Width: 1055
VWidth: 0
Flags: HMW
PickledData: "(dp1
S'spacing_anchors_slanted'
p2
I00
s."
HStem: -17 141<711.5 893.116> -17 120<285.57 479.136> 835 44<501.966 678.232> 1456 94<698.791 822.233>
VStem: 87 143<160.605 480.112> 724 76<212 754> 823 155<1213.16 1527.77>
AnchorPoint: "right" 1162 1450 basechar 0
LayerCount: 3
Fore
SplineSet
87 256 m 0
 87 574 353 879 596 879 c 0
 649 879 692 851 749 851 c 0
 756 851 823 1389 823 1404 c 0
 823 1434 793 1456 762 1456 c 0
 740 1456 694 1454 692 1454 c 0
 672 1454 658 1462 658 1477 c 0
 658 1512 730 1504 787 1518 c 0
 902 1547 889 1550 945 1550 c 0
 963 1550 978 1535 978 1516 c 0
 978 1462 956 1397 842 560 c 0
 820 405 800 274 800 212 c 0
 800 167 804 124 852 124 c 0
 942 124 989 251 1022 251 c 0
 1038 251 1045 242 1045 233 c 0
 1045 191 916 -17 783 -17 c 0
 640 -17 686 214 658 214 c 0
 639 214 535 -17 332 -17 c 0
 158 -17 87 102 87 256 c 0
230 314 m 0
 230 195 281 103 405 103 c 0
 478 103 559 141 612 208 c 0
 694 310 724 673 724 754 c 0
 724 809 642 835 586 835 c 0
 397 835 230 530 230 314 c 0
EndSplineSet
Validated: 1
EndChar

StartChar: c
Encoding: 99 99 5
Width: 817
VWidth: 0
Flags: W
PickledData: "(dp1
S'spacing_anchors_slanted'
p2
I00
s."
HStem: -24 118<301.36 567.112> 814 78<412.831 594.5>
VStem: 64 140<201.045 518.477>
AnchorPoint: "cedilla" 396 -162 basechar 0
AnchorPoint: "top" 514 940 basechar 0
LayerCount: 3
Fore
SplineSet
64 306 m 0
 64 586 294 892 584 892 c 0
 605 892 790 863 790 746 c 0
 790 706 758 666 722 666 c 0
 634 666 616 814 472 814 c 0
 454 814 393 791 338 741 c 0
 314 719 204 595 204 408 c 0
 204 200 286 94 446 94 c 0
 613 94 684 204 720 204 c 0
 736 204 746 191 746 178 c 0
 746 150 601 -24 374 -24 c 0
 224 -24 64 31 64 306 c 0
EndSplineSet
Validated: 1
EndChar

StartChar: b
Encoding: 98 98 6
Width: 931
VWidth: -3
Flags: HMW
PickledData: "(dp1
S'spacing_anchors_slanted'
p2
I00
s."
HStem: -26 56<311.137 514.859> 770 108<524.714 788.277> 1453 97<169.383 322.993>
VStem: 125 135<61.761 441.189> 790 144<401.166 692.849>
LayerCount: 3
Fore
SplineSet
125 146 m 0
 125 278 172 489 201 655 c 0
 238 868 262 1067 293 1218 c 0
 311 1306 323 1378 323 1427 c 0
 323 1438 314 1453 273 1453 c 0
 242 1453 219 1447 189 1447 c 0
 167 1447 150 1448 150 1476 c 0
 150 1517 206 1514 301 1527 c 0
 380 1538 418 1550 431 1550 c 0
 454 1550 470 1537 470 1514 c 0
 470 1477 339 866 339 719 c 0
 339 705 344 688 348 688 c 0
 376 688 472 878 708 878 c 0
 862 878 934 752 934 618 c 0
 934 340 692 -26 375 -26 c 0
 254 -26 125 28 125 146 c 0
260 170 m 0
 260 100 292 30 418 30 c 0
 602 30 790 326 790 562 c 0
 790 676 703 770 590 770 c 0
 541 770 407 750 342 572 c 0
 283 410 260 190 260 170 c 0
EndSplineSet
Validated: 1
EndChar

StartChar: a
Encoding: 97 97 7
Width: 1089
VWidth: 0
Flags: HW
PickledData: "(dp1
S'spacing_anchors_slanted'
p2
I00
s."
HStem: -30 112<284.717 460.303> -14 146<747 900.83> 820 50<530.32 730.478>
VStem: 92 144<129.431 433.148>
AnchorPoint: "top" 619 940 basechar 0
LayerCount: 3
Fore
SplineSet
92 234 m 0xb0
 92 349 143 466 207 568 c 0
 281 685 375 782 483 834 c 0
 538 861 581 870 634 870 c 0
 697 870 741 848 808 848 c 0
 848 848 873 948 914 948 c 0
 927 948 936 941 936 918 c 0
 936 886 911 836 896 776 c 0
 878 700 865 607 848 514 c 0
 832 423 811 330 811 252 c 0
 811 199 842 132 880 132 c 0
 948 132 992 265 1031 265 c 0
 1047 265 1048 250 1048 242 c 0
 1048 222 1039 189 1013 153 c 0
 961 79 868 -14 813 -14 c 0x70
 681 -14 701 215 687 215 c 0
 677 215 506 -30 312 -30 c 0
 117 -30 92 100 92 234 c 0xb0
236 246 m 0
 236 144 310 82 396 82 c 0xb0
 544 82 640 230 658 266 c 0
 707 365 762 740 762 747 c 0
 762 804 672 820 628 820 c 0
 544 820 435 758 373 654 c 0
 314 556 265 463 246 356 c 0
 240 319 236 282 236 246 c 0
EndSplineSet
EndChar

StartChar: i
Encoding: 105 105 9
Width: 482
VWidth: 0
Flags: HW
PickledData: "(dp1
S'spacing_anchors_slanted'
p2
I00
s."
HStem: -20 156<164.5 328.901> 786 54<40.183 208.258> 839 20G<282.5 348> 1106 216<297.482 405.517>
VStem: 118 136<136.285 446.137> 210 160<653.245 845.406> 258 182<1139.18 1282.4>
AnchorPoint: "l;bl" 0 40 basechar 0
AnchorPoint: "l;o" 10 450 basechar 0
AnchorPoint: "l;t" 40 1150 basechar 0
AnchorPoint: "l;x" 0 850 basechar 0
AnchorPoint: "r;bl" 482 40 basechar 0
AnchorPoint: "r;o" 472 450 basechar 0
AnchorPoint: "r;t" 482 1150 basechar 0
AnchorPoint: "r;x" 482 850 basechar 0
LayerCount: 3
Fore
SplineSet
40 810 m 0xd4
 40 837 66 840 88 840 c 2
 108 840 l 2xd4
 190 840 224 859 341 859 c 0
 355 859 370 850 370 836 c 0xb4
 370 783 332 703 315 598 c 0
 254 210 254 216 254 191 c 0
 254 162 274 136 294 136 c 0
 363 136 393 242 422 242 c 0
 435 242 442 234 442 220 c 0
 442 196 405 126 383 101 c 0
 382 100 270 -20 195 -20 c 0
 134 -20 118 60 118 149 c 0xb8
 118 304 210 625 210 741 c 0
 210 776 198 784 161 784 c 0
 119 784 85 786 69 786 c 0
 56 786 40 790 40 810 c 0xd4
258 1215 m 0x92
 258 1234 324 1322 360 1322 c 0
 401 1322 440 1251 440 1214 c 0
 440 1174 368 1106 350 1106 c 0
 313 1106 258 1194 258 1215 c 0x92
EndSplineSet
AlternateSubs2: "'aalt' Access All Alternates in Latin lookup 0 subtable" i.TRK
Substitution2: "turkish subtable" i.TRK
EndChar

StartChar: j
Encoding: 106 106 10
Width: 575
VWidth: 13
Flags: HW
PickledData: "(dp1
S'spacing_anchors_slanted'
p2
I00
s."
HStem: -409 88<-11.5 123.871> 784 57<116.206 266.923> 843 20G<344.5 395> 1106 212<332.957 448.298>
VStem: 272 149<529.561 843.376> 299 181<1135.21 1284.38>
LayerCount: 3
Fore
SplineSet
-74 -268 m 0xf8
 -74 -252 -67 -235 -47 -235 c 0
 -2 -235 29 -321 84 -321 c 0
 126 -321 145 -248 190 111 c 0
 224 386 272 716 272 735 c 0
 272 775 231 785 207 785 c 0
 199 785 172 784 154 784 c 0
 125 784 116 796 116 809 c 0
 116 826 127 841 158 841 c 0
 174 841 197 843 222 843 c 0
 275 843 317 863 372 863 c 0
 418 863 421 844 421 830 c 0
 421 740 393 651 376 529 c 0
 289 -123 312 -202 171 -336 c 0
 135 -371 105 -409 14 -409 c 0
 -37 -409 -64 -402 -67 -353 c 0
 -70 -298 -74 -284 -74 -268 c 0xf8
299 1210 m 0xf4
 299 1242 360 1318 403 1318 c 0
 433 1318 480 1262 480 1217 c 0
 480 1179 420 1106 394 1106 c 0
 343 1106 299 1196 299 1210 c 0xf4
EndSplineSet
Validated: 1
EndChar

StartChar: l
Encoding: 108 108 11
Width: 584
VWidth: 0
Flags: W
PickledData: "(dp1
S'spacing_anchors_slanted'
p2
I00
s."
HStem: -17 138<205.5 333.885> 1443 87<131.594 296.986>
VStem: 126 137<59.5953 500.873> 297 151<1261.32 1510.19>
AnchorPoint: "right" 603 1450 basechar 0
AnchorPoint: "top" 345 1550 basechar 0
AnchorPoint: "cedilla" 232 -162 basechar 0
LayerCount: 3
Fore
SplineSet
126 177 m 0
 126 294 178 535 183 567 c 0
 202 697 212 841 232 973 c 0
 266 1194 297 1379 297 1403 c 0
 297 1427 278 1443 247 1443 c 0
 216 1443 210 1441 186 1441 c 0
 146 1441 127 1448 127 1470 c 0
 127 1481 131 1497 158 1499 c 0
 307 1509 353 1530 406 1530 c 0
 438 1530 448 1519 448 1498 c 0
 448 1470 436 1441 429 1403 c 0
 354 1006 386 1081 321 641 c 0
 286 400 263 270 263 200 c 0
 263 130 270 121 296 121 c 0
 409 121 428 266 482 266 c 0
 496 266 506 253 506 233 c 0
 506 213 453 145 403 87 c 0
 349 25 265 -17 226 -17 c 0
 185 -17 126 -15 126 177 c 0
EndSplineSet
Validated: 1
EndChar

StartChar: k
Encoding: 107 107 12
Width: 1100
VWidth: 0
Flags: MW
PickledData: "(dp1
S'spacing_anchors_slanted'
p2
I00
s."
HStem: -7 145<698.086 799.699> -2 21G<139.5 166.5 680.5 749.5> 867 20G<707.5 776.5> 1444 90<121.232 282.99>
VStem: 618 204<723.307 813.554>
AnchorPoint: "cedilla" 401 -162 basechar 0
LayerCount: 3
Fore
SplineSet
85 47 m 0
 85 103 124 309 140 422 c 2
 180 694 l 2
 237 1081 238 1139 266 1308 c 0
 276 1365 283 1402 283 1405 c 0
 283 1424 269 1444 232 1444 c 0
 190 1444 164 1447 148 1447 c 0
 135 1447 117 1452 117 1472 c 0
 117 1483 121 1502 148 1503 c 0
 316 1509 345 1534 398 1534 c 0
 413 1534 434 1527 434 1504 c 0
 434 1495 427 1447 421 1410 c 2
 401 1290 l 2
 346 963 333 853 319 744 c 2
 301 603 l 2
 298 585 283 522 283 480 c 0
 283 451 284 440 302 440 c 0
 322 440 551 600 618 710 c 0
 664 786 659 887 756 887 c 0
 797 887 822 853 822 812 c 0
 822 691 506 534 506 521 c 0
 506 511 558 424 608 336 c 0
 664 238 713 138 748 138 c 0
 820 138 866 252 892 252 c 0
 906 252 910 234 910 216 c 0
 910 140 787 -7 712 -7 c 0
 649 -7 589 107 534 220 c 1
 472 338 l 2
 460 362 416 447 392 447 c 0
 387 447 365 432 343 420 c 0
 254 370 266 388 258 327 c 2
 221 59 l 2
 214 5 182 -2 151 -2 c 0
 128 -2 85 6 85 47 c 0
EndSplineSet
EndChar

StartChar: o
Encoding: 111 111 13
Width: 913
VWidth: 0
Flags: HW
PickledData: "(dp1
S'spacing_anchors_slanted'
p2
I00
s."
HStem: -21.4195 62.4586<317.685 503.727> 829.103 60.8975<423.516 604.607>
VStem: 64.6894 158.053<141.609 573.767> 696.688 151.312<301.413 735.355>
AnchorPoint: "top" 537 940 basechar 0
AnchorPoint: "l;bl" 20 40 basechar 0
AnchorPoint: "l;o" 0 450 basechar 0
AnchorPoint: "l;x" 100 850 basechar 0
AnchorPoint: "r;bl" 853 40 basechar 0
AnchorPoint: "r;o" 913 450 basechar 0
AnchorPoint: "r;x" 873 850 basechar 0
LayerCount: 3
Fore
SplineSet
65 347 m 0
 65 600 237 890 548 890 c 0
 753 890 848 721 848 529 c 0
 848 274 680 -21 379 -21 c 0
 212 -21 65 97 65 347 c 0
401 41 m 0
 620 41 697 384 697 553 c 0
 697 746 614 829 520 829 c 0
 422 829 311 740 264 574 c 0
 244 503 223 427 223 344 c 0
 223 138 305 41 401 41 c 0
EndSplineSet
EndChar

StartChar: m
Encoding: 109 109 14
Width: 1559
VWidth: 0
Flags: HMW
PickledData: "(dp1
S'spacing_anchors_slanted'
p2
I00
s."
HStem: -11 21G<212.5 249 710 743 1228 1293.5> -6 134<1258.91 1369.44> 729 157<160.238 303.239> 789 97<557.266 766.505 1038.47 1262.15>
VStem: 159 150<-5.59769 306.142> 672 142<-6.46875 339.069> 746 101<674.005 749.17> 1172 136<86 589.512> 1218 131<180.856 754.665>
AnchorPoint: "l;x" 0 850 basechar 0
AnchorPoint: "l;o" 10 450 basechar 0
AnchorPoint: "l;bl" 20 40 basechar 0
AnchorPoint: "r;bl" 1559 40 basechar 0
AnchorPoint: "r;o" 1549 450 basechar 0
AnchorPoint: "r;x" 1539 850 basechar 0
LayerCount: 3
Fore
SplineSet
49 660 m 0x6a
 49 722 167 886 245 886 c 0x6a
 364 886 329 675 356 675 c 0
 371 675 418 796 608 863 c 0
 660 882 697 885 726 885 c 0
 827 885 847 797 847 734 c 0
 847 694 846 699 846 690 c 0
 846 681 847 674 850 674 c 0
 864 674 878 713 927 759 c 0
 989 818 1086 886 1180 886 c 0
 1342 886 1349 696 1349 669 c 0x5a80
 1349 576 1308 266 1308 198 c 0x59
 1308 145 1326 128 1349 128 c 0x5880
 1386 128 1436 173 1437 174 c 0
 1461 204 1468 232 1499 232 c 0
 1514 232 1519 218 1519 206 c 0
 1519 127 1339 -6 1248 -6 c 0
 1208 -6 1172 50 1172 122 c 0x59
 1172 160 1218 506 1218 630 c 0
 1218 739 1149 789 1106 789 c 0
 968 789 881 573 876 556 c 0
 845 448 829 188 814 44 c 0
 809 -6 756 -12 730 -12 c 0
 690 -12 672 20 672 54 c 0x5c80
 672 106 746 448 746 642 c 0
 746 666 735 786 602 786 c 0
 554 786 421 748 362 446 c 0
 331 286 321 103 309 35 c 0
 304 8 267 -11 231 -11 c 0
 194 -11 159 0 159 59 c 0
 159 144 250 471 250 629 c 0
 250 709 217 729 197 729 c 0
 134 729 119 611 73 611 c 0
 51 611 49 633 49 660 c 0x6a
EndSplineSet
EndChar

StartChar: n
Encoding: 110 110 15
Width: 1077
VWidth: 0
Flags: HMW
PickledData: "(dp1
S'spacing_anchors_slanted'
p2
I00
s."
HStem: -12 148<746 882.636> -4 21G<200 254.5> 734 157<163.366 309> 790 104<554.538 767.5>
VStem: 155 148<-2.16923 304.905> 690 143<58.1996 613.954> 733 136<178.972 750.708>
AnchorPoint: "cedilla" 492 -162 basechar 0
AnchorPoint: "top" 606 940 basechar 0
AnchorPoint: "l;bl" 20 40 basechar 0
AnchorPoint: "l;o" 10 450 basechar 0
AnchorPoint: "l;x" 0 850 basechar 0
AnchorPoint: "r;bl" 1077 40 basechar 0
AnchorPoint: "r;o" 1067 450 basechar 0
AnchorPoint: "r;x" 1057 850 basechar 0
LayerCount: 3
Fore
SplineSet
50 658 m 0xaa
 50 737 172 891 250 891 c 0xaa
 368 891 325 675 344 675 c 0
 357 675 370 721 446 779 c 0
 502 822 610 894 696 894 c 0
 839 894 869 768 869 639 c 0x9a
 869 496 833 278 833 208 c 0
 833 150 851 136 873 136 c 0
 908 136 954 180 955 181 c 0
 979 211 986 236 1017 236 c 0
 1032 236 1037 222 1037 210 c 0
 1037 131 857 -12 766 -12 c 0
 726 -12 690 44 690 116 c 0x9c
 690 272 733 546 733 622 c 0
 733 654 723 790 590 790 c 0x9a
 542 790 504 767 457 700 c 0
 368 575 394 595 345 330 c 0
 294 53 308 78 303 50 c 0
 296 5 281 -4 228 -4 c 0
 172 -4 155 0 155 59 c 0
 155 144 245 463 245 621 c 0
 245 692 218 734 198 734 c 0
 135 734 113 618 67 618 c 0
 52 618 50 635 50 658 c 0xaa
EndSplineSet
EndChar

StartChar: p
Encoding: 112 112 16
Width: 1059
VWidth: 18
Flags: HW
PickledData: "(dp1
S'spacing_anchors_slanted'
p2
I00
s."
HStem: -402 21G<70.5 109.5 377.5 420> 0 55<339.111 545.23> 735 60<139.113 230.216> 825 51<430.237 626.582>
VStem: 44 228<-383.5 -254.5> 311 169<941.36 1118.23> 822 150<363.547 691.785>
LayerCount: 3
Fore
SplineSet
44 -374 m 0
 44 -321 119 -333 134 -291 c 0
 139 -278 140 -260 146 -210 c 0
 270 762 279 754 279 761 c 0
 279 768 278 772 269 772 c 0
 246 772 189 735 165 735 c 0
 144 735 138 746 138 759 c 2
 138 767 l 2
 138 778 139 789 152 795 c 0
 315 862 292 817 311 922 c 0
 339 1075 328 1115 392 1148 c 0
 408 1156 428 1164 451 1164 c 0
 471 1164 480 1148 480 1128 c 0
 480 1066 426 941 426 884 c 2
 426 876 l 2
 426 869 427 867 436 867 c 0
 454 867 498 876 609 876 c 0
 797 876 972 820 972 602 c 0
 972 475 954 402 893 297 c 0
 848 219 824 166 713 87 c 0
 626 25 545 0 444 0 c 0
 414 0 361 8 332 8 c 0
 301 8 308 7 292 -114 c 0
 284 -175 272 -244 272 -265 c 0
 272 -368 442 -327 442 -374 c 0
 442 -393 428 -402 412 -402 c 0
 343 -402 266 -399 209 -399 c 0
 164 -399 122 -402 97 -402 c 2
 78 -402 l 2
 63 -402 44 -393 44 -374 c 0
326 104 m 0
 326 91 348 55 443 55 c 0
 648 55 822 342 822 526 c 0
 822 806 553 825 479 825 c 0
 447 825 442 820 429 820 c 0
 415 820 408 767 395 661 c 2
 367 434 l 2
 355 341 326 164 326 104 c 0
EndSplineSet
Validated: 1
EndChar

StartChar: q
Encoding: 113 113 17
Width: 1144
VWidth: 7
Flags: HW
PickledData: "(dp1
S'spacing_anchors_slanted'
p2
I00
s."
HStem: -409 22G<490 542 806 858> -20 91<205 455.498> 820 55<507.291 708.298>
VStem: 54 140<136.297 420.056>
LayerCount: 3
Fore
SplineSet
54 237 m 0
 54 389 176 587 285 707 c 0
 405 839 542 875 642 875 c 0
 758 875 768 837 796 837 c 0
 844 837 879 998 922 998 c 0
 938 998 948 982 948 972 c 0
 948 928 897 843 875 663 c 0
 862 559 879 643 841 388 c 2
 793 61 l 1
 767 -109 747 -241 747 -296 c 0
 747 -377 896 -318 896 -387 c 0
 896 -405 869 -408 847 -408 c 0
 765 -408 707 -399 666 -399 c 0
 567 -399 567 -409 517 -409 c 0
 463 -409 454 -390 454 -378 c 0
 454 -327 609 -393 630 -219 c 0
 656 -12 695 211 695 238 c 0
 695 245 694 250 691 250 c 0
 664 250 583 -20 246 -20 c 0
 164 -20 54 54 54 237 c 0
194 265 m 0
 194 165 263 71 370 71 c 0
 498 71 657 210 717 415 c 0
 742 499 762 681 762 709 c 0
 762 762 705 820 612 820 c 0
 386 820 194 452 194 265 c 0
EndSplineSet
Validated: 1
EndChar

StartChar: r
Encoding: 114 114 18
Width: 753
VWidth: 0
Flags: W
PickledData: "(dp1
S'spacing_anchors_slanted'
p2
I00
s."
HStem: -9 21G<257.5 314> 720 168<166.298 279.547> 761 131<538.934 694.629>
VStem: 64 47<572.063 637.694> 207 186<43.3266 285.625>
AnchorPoint: "cedilla" 266 -162 basechar 0
AnchorPoint: "top" 444 940 basechar 0
LayerCount: 3
Fore
SplineSet
64 606 m 0xd8
 64 840 239 888 258 888 c 0xd8
 300 888 321 849 333 817 c 0
 385 683 385 682 390 682 c 0
 405 682 507 892 659 892 c 0
 712 892 734 858 734 829 c 0
 734 802 718 776 711 753 c 0
 707 739 702 675 666 675 c 0
 621 675 631 761 557 761 c 0xb8
 464 761 413 492 402 407 c 2
 393 340 l 2
 347 -9 351 -9 277 -9 c 2
 268 -9 l 2
 247 -9 207 -5 207 45 c 0
 207 126 294 427 294 581 c 0
 294 684 261 720 224 720 c 0
 141 720 123 598 111 583 c 0
 105 576 99 572 89 572 c 0
 80 572 64 577 64 606 c 0xd8
EndSplineSet
EndChar

StartChar: t
Encoding: 116 116 19
Width: 701
VWidth: 0
Flags: W
PickledData: "(dp1
S'spacing_anchors_slanted'
p2
I00
s."
HStem: -37 135<220 392.332> 765 86<353.389 595.856>
VStem: 83 269<770 881.3> 117 133<111.421 502.984>
AnchorPoint: "right" 547 1280 basechar 0
AnchorPoint: "cedilla" 236 -162 basechar 0
LayerCount: 3
Fore
SplineSet
83 799 m 0xe0
 83 839 159 836 250 931 c 0xd0
 331 1016 338 1045 370 1045 c 0
 381 1045 389 1038 389 1019 c 0
 389 992.224609375 352 896.599609375 352 866 c 0xe0
 352 854 358 851 425 851 c 0
 505 851 522 855 544 855 c 0
 588 855 596 840 596 815 c 0
 596 768 584 756 548 756 c 0
 515 756 427 765 382 765 c 0
 323 765 329 730 316 646 c 0
 297 520 250 243 250 211 c 0
 250 102 327 98 335 98 c 0
 448 98 495 189 527 189 c 0
 534 189 550 187 550 159 c 0
 550 105 374 -37 248 -37 c 0
 192 -37 117 0 117 160 c 0xd0
 117 349 204 688 204 743 c 0
 204 785 83 741 83 799 c 0xe0
EndSplineSet
Validated: 1
EndChar

StartChar: s
Encoding: 115 115 20
Width: 666
VWidth: 0
Flags: W
PickledData: "(dp1
S'spacing_anchors_slanted'
p2
I00
s."
HStem: -24 66<226.051 417.652> 834 61<316.127 456.681>
VStem: 168 121<630.111 793.803> 468 124<108.469 297.401>
AnchorPoint: "cedilla" 286 -162 basechar 0
AnchorPoint: "top" 424 940 basechar 0
LayerCount: 3
Fore
SplineSet
44 110 m 0
 44 173 86 184 110 184 c 0
 214 184 180 42 304 42 c 0
 453 42 468 149 468 174 c 0
 468 271 400 329 327 403 c 0
 246 486 168 541 168 664 c 0
 168 802 287 895 447 895 c 0
 557 895 636 869 636 789 c 0
 636 725 569 719 558 719 c 0
 485 719 475 834 396 834 c 0
 318 834 289 786 289 724 c 0
 289 646 402 564 451 510 c 0
 515 439 592 382 592 244 c 0
 592 170 535 -24 273 -24 c 0
 194 -24 44 2 44 110 c 0
EndSplineSet
Validated: 1
EndChar

StartChar: u
Encoding: 117 117 21
Width: 1142
VWidth: 0
Flags: W
PickledData: "(dp1
S'spacing_anchors_slanted'
p2
I00
s."
HStem: -23 130<224.278 348.115> 722 155<175.058 322.5>
VStem: 146 142<78.0073 423.602> 238 126<437.572 740> 667 131<60 423.872> 796 126<694.354 878.389>
AnchorPoint: "top" 564 940 basechar 0
LayerCount: 3
Fore
SplineSet
53 602 m 0xd0
 53 688 149 877 286 877 c 0
 359 877 364 752 364 728 c 0xd0
 364 547 288 317 288 161 c 0
 288 127 310 107 324 107 c 0
 389 107 462 202 558 317 c 0
 692 479 749 667 796 848 c 0
 803 874 834 881 855 881 c 0
 888 881 922 865 922 835 c 0xe4
 922 779 798 284 798 180 c 0
 798 134 824 131 842 131 c 0
 966 131 974 283 1018 283 c 0
 1044 283 1048 259 1048 240 c 0
 1048 191 919 -19 727 -19 c 0
 682 -19 667 28 667 92 c 0
 667 224 704 386 704 404 c 0
 704 418 699 427 693 427 c 0
 680 427 669 382 608 295 c 0
 515 164 365 -23 216 -23 c 0
 160 -23 146 49 146 109 c 0xe8
 146 331 238 555 238 679 c 0
 238 702 224 722 198 722 c 0
 179 722 134 670 105 605 c 0
 96 584 84 576 74 576 c 0
 62 576 53 587 53 602 c 0xd0
EndSplineSet
Validated: 1
EndChar

StartChar: v
Encoding: 118 118 22
Width: 970
VWidth: -10
Flags: HW
PickledData: "(dp1
S'spacing_anchors_slanted'
p2
I00
s."
HStem: -26 137<348.5 514.732> 718 163<249.711 381>
VStem: 95 54<401.414 594.859> 275 124<133.623 307.544 361.016 679.817> 308 131<367.398 756.491> 812 97<518.945 844.973>
LayerCount: 3
Fore
SplineSet
95 518 m 0xf4
 95 732 264 881 348 881 c 0
 414 881 439 795 439 715 c 0xec
 439 592 399 453 399 235 c 0
 399 172 443 111 501 111 c 0
 648 111 812 423 812 659 c 0
 812 729 769 766 769 814 c 0
 769 862 827 882 843 882 c 0
 869 882 909 867 909 773 c 0
 909 685 860 451 798 335 c 0
 754 251 670 118 563 48 c 0
 516 17 436 -26 408 -26 c 0
 289 -26 275 146 275 290 c 0
 275 330.38671875 95 253.706054688 95 518 c 0xf4
149 496 m 0
 149 376 231 361 240 361 c 0
 275 361 273 383 280 426 c 0
 280 427 308 638 308 682 c 0
 308 694 304 718 279 718 c 0
 246 718 149 592 149 496 c 0
EndSplineSet
Validated: 1
EndChar

StartChar: w
Encoding: 119 119 23
Width: 1430
VWidth: 0
Flags: HW
PickledData: "(dp1
S'spacing_anchors_slanted'
p2
I00
s."
HStem: -23 137<346.5 514.07 872 1018.37> 700 178<244.092 353.997>
VStem: 90 69<411.326 617.918> 275 124<131.102 313.514> 304 120<375.845 747> 780 115<149.682 372.992> 821 130<562.037 871.324> 1275 137<595.427 868.371>
AnchorPoint: "top" 882 940 basechar 0
LayerCount: 3
Fore
SplineSet
90 507 m 0xf5
 90 712 254 878 338 878 c 0
 404 878 424 778 424 716 c 0xe9
 424 548.548370651 399 445.709096076 399 240 c 0
 399 177 441 114 480 114 c 0
 582 114 692 305 734 406 c 0
 763 476 794 592 821 780 c 0
 831 850 834 874 892 874 c 0
 939 874 951 853 951 823 c 0xf3
 951 739 895 595 895 406 c 0
 895 345 901 279 916 210 c 0
 930 149 948 108 1001 108 c 0
 1156 108 1314 468 1314 587 c 0
 1314 770 1275 745 1275 810 c 0
 1275 842 1319 878 1352 878 c 0
 1378 878 1412 866 1412 787 c 0
 1412 681 1360 456 1298 340 c 0
 1162 82 984 -21 902 -21 c 0
 842 -21 784 49 780 334 c 0
 780 362 778 373 775 373 c 0
 765 373 596 -23 399 -23 c 0
 294 -23 275 151 275 295 c 0
 275 329 90 280 90 507 c 0xf5
159 497 m 0
 159 469 159 444 166 428 c 0
 186 382 220 372 246 372 c 0
 278 372 282 398 293 496 c 0
 299 550 304 627 304 655 c 0
 304 672 295 700 272 700 c 0
 239 700 159 600 159 497 c 0
EndSplineSet
Validated: 1
EndChar

StartChar: x
Encoding: 120 120 24
Width: 1033
VWidth: 0
Flags: W
PickledData: "(dp1
S'spacing_anchors_slanted'
p2
I00
s."
HStem: -30 141<120.142 269.729> -24 86<772.723 935.069> 728 165<255.053 379.262 795.126 941.98> 752 144<767.038 911.276>
VStem: 480 103<394.464 555.76>
LayerCount: 3
Fore
SplineSet
80 47 m 0x88
 80 114 111 131 152 131 c 0
 193 131 209 111 241 111 c 0
 317 111 480 426 480 427 c 0
 480 431 413 635 374 695 c 0
 358 721 342 728 327 728 c 0
 228 728 253 604 208 604 c 0
 187 604 180 619 180 676 c 0
 180 703 198 779 230 824 c 0
 258 864 314 893 342 893 c 0xa8
 480 893 543 570 568 570 c 0
 587 570 697 896 876 896 c 0
 920 896 952 854 952 813 c 0
 952 774 928 738 882 738 c 0
 843 738 818 752 794 752 c 0
 726 752 583 523 583 505 c 0
 583 486 682 261 742 143 c 0
 769 90 811 62 845 62 c 0
 869 62 896 66 915 66 c 0
 932 66 943 55 943 40 c 0
 943 -14 823 -24 808 -24 c 0x58
 608 -24 602 86 584 133 c 0
 546 231 516 339 499 339 c 0
 482 339 352 -30 155 -30 c 0
 112 -30 80 3 80 47 c 0x88
EndSplineSet
Validated: 1
EndChar

StartChar: y
Encoding: 121 121 25
Width: 892
VWidth: 0
Flags: W
PickledData: "(dp1
S'spacing_anchors_slanted'
p2
I00
s."
HStem: -376 121<173.007 345.539> 728 155<123.11 264.68>
VStem: 698 98<498.168 829.046>
AnchorPoint: "top" 470 940 basechar 0
LayerCount: 3
Fore
SplineSet
36 -256 m 0
 36 -221 67 -188 102 -188 c 0
 183 -188 187 -255 281 -255 c 0
 400.123046875 -255 535 5.625 535 84 c 0
 535 198.231445312 308.359375 728 200 728 c 0
 80.41796875 728 125.1171875 573.982421875 62.9794921875 573.982421875 c 0
 51.54296875 573.982421875 42 584.799804688 42 619 c 0
 42 705 84 883 209 883 c 0
 408.245117188 883 602 301 624 301 c 0
 653.599609375 301 698 520.403320312 698 658 c 0
 698 717 646 757 646 813 c 0
 646 849 667 888 716 888 c 0
 762 888 796 844 796 780 c 0
 796 688 748 405 627 100 c 0
 530 -144 400 -376 207 -376 c 0
 119 -376 36 -350 36 -256 c 0
EndSplineSet
Validated: 1
EndChar

StartChar: z
Encoding: 122 122 26
Width: 910
VWidth: 0
Flags: W
PickledData: "(dp1
S'spacing_anchors_slanted'
p2
I00
s."
HStem: -199 53<560.219 700.076> -54 20G<740.5 795.5> 0 21G<94 120> 746 135<207.124 373.714> 843 20G<747.5 792>
VStem: 134 67<607.186 733.697>
AnchorPoint: "top" 504 940 basechar 0
LayerCount: 3
Fore
SplineSet
69 32 m 0xec
 69 42 74 51 88 66 c 2
 88 66 585 574 585 606 c 0
 585 609 582 611 575 614 c 0
 304 728 297 746 263 746 c 0
 233 746 201 707 201 680 c 0
 201 633 235 607 235 590 c 0
 235 581 223 572 211 572 c 0
 195 572 134 619 134 716 c 0
 134 803 213 881 294 881 c 0xf4
 379 881 454 812 558 774 c 16
 621 751 661 742 687 742 c 0
 749 742 714 863 781 863 c 0
 803 863 827 847 827 823 c 0
 827 798 801 774 785 756 c 2
 390 316 l 2
 331 250 317 237 317 228 c 0
 317 202 418 147 464 94 c 0
 537 11 610 -146 655 -146 c 0
 729 -146 701 -34 780 -34 c 0
 811 -34 825 -62 825 -81 c 0
 825 -141 733 -199 619 -199 c 0
 504 -199 414 -62 399 -45 c 0
 335 28 258 100 219 100 c 0
 190 100 139 0 101 0 c 0
 87 0 69 13 69 32 c 0xec
EndSplineSet
Validated: 1
EndChar

StartChar: A
Encoding: 65 65 27
Width: 1663
VWidth: 2043
Flags: HW
PickledData: "(dp1
S'spacing_anchors_slanted'
p2
I00
s."
HStem: -5 62<62.963 162.809 1462.2 1561.26> 527 95<578.02 1101.19> 1220 250<898 996.5>
VStem: 62 266<12 146> 1255 307<9.5 171.5>
AnchorPoint: "top" 963 1480 basechar 0
LayerCount: 3
Fore
SplineSet
62 19 m 0
 62 44 90 52 114 61 c 0
 237 106 189 135 934 1430 c 0
 957 1470 960 1470 980 1470 c 0
 1013 1470 999 1470 1096 1147 c 0
 1168 909 1386 240 1399 208 c 0
 1447 86 1454 81 1529 57 c 0
 1550 50 1562 42 1562 17 c 0
 1562 2 1554 -5 1498 -5 c 0
 1451 -5 1424 2 1366 2 c 0
 1294 2 1239 -9 1185 -9 c 0
 1166 -9 1120 -9 1120 15 c 0
 1120 74 1255 41 1255 133 c 0
 1255 210 1188 391 1170 469 c 0
 1166 487 1163 529 1095 529 c 0
 1051 529 981 527 847 527 c 0
 580 527 652 532 572 532 c 0
 538 532 514 525 501 502 c 0
 373 280 328 151 328 141 c 0
 328 25 466 79 466 25 c 0
 466 -5 455 -5 436 -5 c 0
 331 -2 292 -1 257 -1 c 0
 222 -1 192 -2 103 -5 c 0
 74 -5 62 5 62 19 c 0
578 640 m 0
 578 625 606 622 644 622 c 0
 684 622 674 624 1070 624 c 0
 1104 624 1104 642 1104 656 c 0
 1104 678 934 1220 906 1220 c 0
 890 1220 578 648 578 640 c 0
EndSplineSet
Validated: 1
EndChar

StartChar: B
Encoding: 66 66 28
Width: 1287
VWidth: 2043
Flags: HW
PickledData: "(dp1
S'spacing_anchors_slanted'
p2
I00
s."
HStem: -7 64<66.0703 176.613 397.733 781.102> 739 52<452.891 766.71> 1371 75<156.316 317.752 523.568 847.326>
VStem: 333 118<831.625 1184.84> 1015 173<262.947 567.187 978.867 1239.53>
LayerCount: 3
Fore
SplineSet
65 18 m 0
 65 29 75 51 95 51 c 0
 207 51 210 178 221 250 c 0
 255 480 333 1227 333 1282 c 0
 333 1311 325 1339 281 1370 c 0
 229 1406 151 1377 151 1426 c 0
 151 1442 169 1450 178 1450 c 0
 198 1450 256 1442 317 1442 c 0
 390 1442 502 1444 538 1444 c 0
 626 1444 694 1446 766 1446 c 0
 987 1446 1182 1356 1182 1120 c 0
 1182 877 894 769 894 757 c 0
 894 734 1188 725 1188 428 c 0
 1188 304 1094 100 864 25 c 0
 793 2 707 -7 603 -7 c 0
 479 -7 373 0 326 0 c 0
 280 0 191 -12 109 -12 c 0
 89 -12 65 -5 65 18 c 0
361 152 m 1
 361 96 401 57 611 57 c 0
 912 57 1015 280 1015 400 c 0
 1015 556 920 710 676 730 c 0
 591 737 540 739 509 739 c 2
 449 739 l 2
 426 739 423 665 392 412 c 2
 361 152 l 1
451 828 m 0
 451 792 484 791 726 791 c 0
 953 791 1020 995 1020 1089 c 0
 1020 1152 998 1227 930 1284 c 0
 869 1335 806 1371 618 1371 c 0
 539 1371 520 1353 510 1284 c 2
 486 1117 l 2
 460 942 451 836 451 828 c 0
EndSplineSet
Validated: 1
EndChar

StartChar: C
Encoding: 67 67 29
Width: 1653
VWidth: 2043
Flags: W
PickledData: "(dp1
S'spacing_anchors_slanted'
p2
I00
s."
HStem: -48 77<634.514 1015.61> 1376 78<649.566 1058.66>
VStem: 86 174<417.203 918.564>
AnchorPoint: "cedilla" 784 -162 basechar 0
AnchorPoint: "top" 900 1480 basechar 0
LayerCount: 3
Fore
SplineSet
86 638 m 0
 86 1034 339 1454 882 1454 c 0
 1165 1454 1360 1298 1379 1298 c 0
 1393 1298 1406 1331 1423 1331 c 0
 1435 1331 1448 1329 1448 1298 c 0
 1448 1038 1466 1043 1466 993 c 0
 1466 968 1461 944 1438 944 c 0
 1407 944 1393 1014 1363 1086 c 0
 1328 1172 1298 1205 1234 1249 c 0
 1104 1337 972 1376 849 1376 c 0
 461 1376 260 1028 260 685 c 0
 260 268 531 29 822 29 c 0
 976 29 1136 96 1264 239 c 0
 1325 307 1333 406 1377 406 c 0
 1382 406 1409 403 1409 368 c 0
 1409 335 1388 285 1375 241 c 0
 1351 162 1358 124 1327 108 c 0
 1168 25 994 -48 780 -48 c 0
 302 -48 86 285 86 638 c 0
EndSplineSet
Validated: 1
EndChar

StartChar: D
Encoding: 68 68 30
Width: 1623
VWidth: 2043
Flags: HW
PickledData: "(dp1
S'spacing_anchors_slanted'
p2
I00
s."
HStem: -11 21G<125.5 159.5> 0 69<414.225 864.217> 1377 85<209.498 381.987 583.792 1037.35>
VStem: 1365 189<624.131 1093.5>
AnchorPoint: "top" 894 1480 basechar 0
LayerCount: 3
Fore
SplineSet
93 27 m 0xb0
 93 80 193 25 234 150 c 0
 243 178 246 197 252 238 c 2
 391 1261 l 2
 393 1278 395 1288 395 1298 c 0
 395 1340 348 1380 303 1383 c 0
 240 1388 208 1404 208 1427 c 0
 208 1442 220 1465 272 1465 c 0
 346 1465 383 1441 480 1441 c 0
 592 1441 639 1462 799 1462 c 0
 1353 1462 1554 1191 1554 885 c 0
 1554 714 1492 533 1394 381 c 0
 1328 279 1187 154 1126 117 c 0
 1002 42 849 0 663 0 c 0x70
 543 0 524 6 345 6 c 0
 222 6 180 -11 139 -11 c 0
 112 -11 93 9 93 27 c 0xb0
406 146 m 0
 406 100 421 69 503 69 c 2
 683 69 l 2
 787 69 980 122 1101 232 c 0
 1338 447 1365 780 1365 883 c 0
 1365 1081 1258 1377 776 1377 c 0
 616 1377 583 1374 553 1263 c 0
 532 1184 406 151 406 146 c 0
EndSplineSet
EndChar

StartChar: E
Encoding: 69 69 31
Width: 1264
Flags: MW
PickledData: "(dp1
S'spacing_anchors_slanted'
p2
I00
s."
HStem: -16 21G<818 996> 6 76<342.135 734.093> 701 81<414.192 870.115> 1365 80<486.646 1093.8>
VStem: 320 94<811 1269> 914 99<533 915> 914 59<501.325 649.544>
AnchorPoint: "top" 760 1480 basechar 0
LayerCount: 3
Fore
SplineSet
15 29 m 0
 15 40 29 56 61 58 c 0
 163 65 170 141 202 334 c 0
 213 404 230 496 244 607 c 2
 317 1227 l 2
 319 1246 320 1259 320 1269 c 0
 320 1434 163 1359 163 1420 c 0
 163 1441 173 1449 210 1449 c 0
 270 1449 420 1445 729 1445 c 0
 811 1445 1141 1454 1202 1454 c 0
 1216 1454 1238 1449 1238 1415 c 0
 1238 1388 1231 1355 1231 1307 c 0
 1231 1274 1237 1240 1237 1196 c 0
 1237 1171 1226 1138 1210 1138 c 0
 1155 1138 1206 1219 1141 1295 c 0
 1130 1308 1065 1357 925 1359 c 0
 762 1361 726 1365 609 1365 c 0
 483 1365 484 1350 464 1227 c 0
 455 1169 414 837 414 811 c 0
 414 784 420 782 502 782 c 0
 872 782 886 791 919 832 c 0
 969 894 962 938 988 938 c 0
 1006 938 1013 932 1013 915 c 0
 1013 879 984 783 973 702 c 0
 963 631 978 499 935 499 c 0
 916 499 914 515 914 533 c 0
 914 572 913 631 878 656 c 0
 839 684 766 699 660 699 c 0
 481 699 507 701 484 701 c 0
 441 701 409 697 406 665 c 0
 390 519 332 191 332 157 c 0
 332 89 386 82 590 82 c 0
 1100 82 1113 284 1167 284 c 0
 1178 284 1188 277 1188 257 c 0
 1188 191 1043 -16 949 -16 c 0
 687 -16 441 6 317 6 c 0
 205 6 187 0 87 0 c 0
 16 0 15 18 15 29 c 0
EndSplineSet
EndChar

StartChar: F
Encoding: 70 70 32
Width: 1264
Flags: W
PickledData: "(dp1
S'spacing_anchors_slanted'
p2
I00
s."
HStem: -11 62<51.3079 156.893> 697 85<452.121 892.034> 1370 75<526.061 1021.07>
VStem: 355 96<880.553 1182.55> 924 59<490.145 654.604>
LayerCount: 3
Fore
SplineSet
51 17 m 0
 51 32 68 48 95 51 c 0
 210 61 222 235 253 453 c 0
 310 851 355 1248 355 1269 c 0
 355 1438 166 1350 166 1424 c 0
 166 1445 176 1457 213 1457 c 0
 273 1457 455 1445 764 1445 c 0
 846 1445 1072 1449 1133 1449 c 0
 1147 1449 1171 1449 1171 1415 c 2
 1171 1307 l 2
 1171 1274 1180 1240 1180 1196 c 0
 1180 1158 1170 1140 1155 1140 c 0
 1106 1140 1151 1215 1063 1304 c 0
 1038 1330 994 1356 865 1363 c 0
 751 1369 745 1370 713 1370 c 2
 644 1370 l 2
 518 1370 522 1350 502 1227 c 0
 493 1169 451 846 451 820 c 0
 451 793 455 782 537 782 c 2
 662 782 l 2
 756 782 815 783 855 787 c 0
 985 800 949 918 1003 918 c 0
 1018 918 1023 909 1023 896 c 0
 1023 831 983 745 983 595 c 0
 983 540 983 490 957 490 c 0
 938 490 924 500 924 533 c 2
 924 556 l 2
 924 692 874 697 507 697 c 0
 464 697 435 683 432 651 c 0
 416 505 374 217 374 183 c 0
 374 13 594 89 594 20 c 0
 594 2 587 -4 563 -4 c 0
 531 -4 468 6 352 6 c 0
 240 6 113 -11 104 -11 c 0
 67 -11 51 3 51 17 c 0
EndSplineSet
EndChar

StartChar: G
Encoding: 71 71 33
Width: 1675
Flags: W
PickledData: "(dp1
S'spacing_anchors_slanted'
p2
I00
s."
HStem: -21 73<687.205 1092.18> 1391 76<630.235 1072.76>
VStem: 120 174<468.902 973.234> 1267 125<226.943 605.989> 1372 120<1056.58 1201.15>
AnchorPoint: "cedilla" 817 -162 basechar 0
AnchorPoint: "top" 893 1480 basechar 0
LayerCount: 3
Fore
SplineSet
120 735 m 0xf0
 120 911.953378293 214.957360115 1289.42846485 597 1420 c 0
 675 1447 763 1467 864 1467 c 0
 1190 1467 1377 1315 1396 1315 c 0
 1410 1315 1439 1356 1456 1356 c 0
 1477 1356 1481 1345 1481 1318 c 0
 1481 1295 1478 1261 1478 1212 c 0
 1478 1142 1492 1067 1492 1040 c 0
 1492 998 1468 993 1457 993 c 0
 1418 993 1431 1064 1372 1151 c 0xe8
 1263 1313 1042 1391 831 1391 c 0
 616 1391 294 1276 294 732 c 0
 294 366 517 52 868 52 c 0
 1090 52 1267 98 1267 497 c 2
 1267 510 l 2
 1267 546 1267 569 1263 606 c 0
 1251 724 1077 626 1077 708 c 0
 1077 724 1110 735 1143 735 c 0
 1194 735 1281 730 1332 730 c 0
 1426 730 1496 737 1505 737 c 0
 1528 737 1544 731 1544 712 c 0
 1544 665 1453 703 1437 609 c 0
 1410 444 1392 248 1392 216 c 2
 1392 152 l 2
 1392 82 1389 107 1305 75 c 0
 1260 58 1093 -21 865 -21 c 0
 366 -21 120 296 120 735 c 0xf0
EndSplineSet
Validated: 1
AlternateSubs2: "'aalt' Access All Alternates lookup 0 subtable" G.001
AlternateSubs2: "'aalt' Access All Alternates in Latin lookup 0 subtable" G.001
Substitution2: "'salt' Stylistic Alternatives in Latin lookup 11 subtable" G.001
EndChar

StartChar: H
Encoding: 72 72 34
Width: 1619
VWidth: 0
Flags: W
PickledData: "(dp1
S'spacing_anchors_slanted'
p2
I00
s."
HStem: 0 51<398.375 530.96 1012.93 1111.11 1350.17 1503.75> 703 89<430.017 1215.34> 1358 83<508.063 631.961> 1387 54<143.212 272.104 1086.23 1218.99>
VStem: 334 96<818 1267> 1216 97<331.433 561.234>
AnchorPoint: "top" 866 1480 basechar 0
LayerCount: 3
Fore
SplineSet
51 23 m 0xec
 51 69 107 36 164 93 c 0
 207 136 210 248 260 667 c 0
 294 952 334 1263 334 1267 c 0
 334 1387 188 1373 158 1387 c 0
 146 1392 143 1401 143 1411 c 0
 143 1427 154 1441 198 1441 c 0xdc
 256 1441 293 1428 408 1428 c 0
 497 1428 560 1441 601 1441 c 0
 615 1441 637 1439 637 1411 c 0
 637 1379 562 1394 531 1358 c 0
 481 1300 487 1164 440 897 c 0
 433 858 430 833 430 818 c 0
 430 794 438 792 455 792 c 0
 523 792 591 791 1137 787 c 0
 1158 787 1165 786 1179 786 c 0
 1225 786 1232 796 1240 871 c 0
 1247 931 1279 1217 1279 1239 c 0
 1279 1308 1241 1354 1197 1373 c 0
 1166 1386 1086 1379 1086 1411 c 0
 1086 1427 1097 1438 1141 1438 c 0
 1199 1438 1245 1431 1360 1431 c 0
 1449 1431 1496 1439 1537 1439 c 0
 1551 1439 1581 1436 1581 1408 c 0
 1581 1376 1516 1391 1485 1355 c 0
 1444 1307 1432 1183 1425 1117 c 0
 1368 576 1313 280 1313 204 c 0
 1313 44 1388 55 1441 50 c 0
 1472 47 1509 35 1509 12 c 0
 1509 -8 1491 -12 1471 -12 c 0
 1392 -12 1348 7 1262 7 c 0
 1158 7 1119 -11 1077 -11 c 0
 1031 -11 1012 0 1012 17 c 0
 1012 40 1028 45 1052 48 c 0
 1150 59 1149 167 1157 229 c 0
 1177 374 1216 661 1216 672 c 0
 1216 700 1209 705 1146 705 c 0
 1105 705 1041 703 940 703 c 2
 459 703 l 2
 411 703 418 700 411 651 c 2
 396 545 l 2
 370 361 354 245 354 203 c 0
 354 61 418 65 470 51 c 0
 502 43 532 42 532 19 c 0
 532 1 514 0 499 0 c 0
 412 0 390 5 282 5 c 0
 235 5 171 -7 122 -7 c 0
 81 -7 51 -1 51 23 c 0xec
EndSplineSet
EndChar

StartChar: I
Encoding: 73 73 35
Width: 672
VWidth: 5
Flags: W
PickledData: "(dp1
S'spacing_anchors_slanted'
p2
I00
s."
HStem: -11 57<388.36 531.953> 1355 83<508.006 631.961> 1387 54<143.212 272.104>
VStem: 51 586
AnchorPoint: "top" 404 1480 basechar 0
LayerCount: 3
Fore
SplineSet
51 23 m 0xd0
 51 74 146 11 192 147 c 0
 193 150 334 1259 334 1267 c 0
 334 1387 188 1373 158 1387 c 0
 146 1392 143 1401 143 1411 c 0
 143 1427 154 1441 198 1441 c 0xb0
 256 1441 293 1425 408 1425 c 0
 497 1425 560 1438 601 1438 c 0
 615 1438 637 1436 637 1408 c 0
 637 1376 562 1391 531 1355 c 0
 490 1307 478 1183 471 1117 c 0
 414 576 354 279 354 203 c 0
 354 43 418 60 470 46 c 0
 502 38 532 42 532 19 c 0
 532 -11 516 -11 489 -11 c 0
 460 -11 368 2 282 2 c 0
 224 2 165 -11 123 -11 c 0
 77 -11 51 -1 51 23 c 0xd0
EndSplineSet
EndChar

StartChar: J
Encoding: 74 74 36
Width: 942
VWidth: 5
Flags: W
PickledData: "(dp1
S'spacing_anchors_slanted'
p2
I00
s."
HStem: -141 107<187 369.637> 1381 68<423.2 585.244>
VStem: 614 309<1282.5 1433.5>
AnchorPoint: "top" 683 1480 basechar 0
LayerCount: 3
Fore
SplineSet
114 -76 m 1
 114 -76 143 78 190 78 c 0
 231 78 226 -34 325 -34 c 0
 478 -34 511 416 546 726 c 1
 608 1238 l 2
 611 1261 614 1276 614 1289 c 0
 614 1367 524 1376 474 1381 c 0
 444 1384 423 1394 423 1418 c 0
 423 1434 440 1449 477 1449 c 0
 540 1449 554 1432 676 1432 c 0
 791 1432 845 1448 876 1448 c 0
 895 1448 923 1444 923 1423 c 0
 923 1348 809 1471 768 1222 c 0
 752 1120 720 768 664 400 c 0
 649 304 623 214 589 136 c 0
 515 -32 336 -141 220 -141 c 0
 154 -141 114 -116 114 -76 c 1
EndSplineSet
Validated: 1
AlternateSubs2: "'aalt' Access All Alternates lookup 0 subtable" J.001
AlternateSubs2: "'aalt' Access All Alternates in Latin lookup 0 subtable" J.001
Substitution2: "'salt' Stylistic Alternatives in Latin lookup 11 subtable" J.001
EndChar

StartChar: K
Encoding: 75 75 37
Width: 1561
VWidth: 5
Flags: W
PickledData: "(dp1
S'spacing_anchors_slanted'
p2
I00
s."
HStem: -4 58<401.386 557.919 1285.29 1465.93> 693 65<435.326 503.383> 1389 59<158.628 283.929 545.949 641.395 1451.38 1549.56>
VStem: 334 101<849.079 1175.9>
AnchorPoint: "cedilla" 695 -162 basechar 0
LayerCount: 3
Fore
SplineSet
45 26 m 0
 45 84 160 12 202 181 c 0
 235 314 334 1220 334 1269 c 0
 334 1336 273 1384 195 1389 c 0
 164 1391 158 1413 158 1424 c 0
 158 1442 183 1448 195 1448 c 0
 200 1448 273 1436 431 1436 c 0
 520 1436 567 1443 604 1443 c 0
 618 1443 642 1440 642 1423 c 0
 642 1401 614 1405 575 1382 c 0
 487 1330 489 1285 443 848 c 0
 439 812 435 789 435 776 c 0
 435 762 439 758 450 758 c 0
 475 758 916 1092 1082 1221 c 0
 1111 1244 1190 1303 1190 1343 c 0
 1190 1399 1092 1376 1092 1421 c 0
 1092 1431 1093 1446 1147 1446 c 0
 1166 1446 1284 1434 1337 1434 c 0
 1408 1434 1472 1445 1507 1445 c 0
 1533 1445 1550 1434 1550 1413 c 0
 1550 1389 1538 1380 1522 1375 c 0
 1467 1356 1453 1397 1175 1197 c 2
 732 878 l 2
 684 844 618 807 618 780 c 0
 618 768 628 762 636 753 c 0
 1147 189 1183 66 1418 54 c 0
 1446 52 1466 42 1466 24 c 0
 1466 -3 1441 -4 1430 -4 c 0
 1406 -4 1289 4 1227 4 c 0
 1134 4 1123 3 1111 3 c 0
 1076 3 1055 40 666 502 c 0
 505 693 509 693 483 693 c 0
 464 693 452 682 443 674 c 0
 424 658 411 654 399 534 c 0
 391 460 366 296 366 231 c 0
 366 75 386 74 494 58 c 0
 530 53 558 42 558 26 c 0
 558 18 553 0 510 0 c 0
 400 0 406 7 338 7 c 0
 231 7 145 -4 106 -4 c 0
 51 -4 45 12 45 26 c 0
EndSplineSet
Validated: 1
EndChar

StartChar: L
Encoding: 76 76 38
Width: 1235
Flags: MW
PickledData: "(dp1
S'spacing_anchors_slanted'
p2
I00
s."
HStem: -17 21G<789 998> 6 72<78.5781 201.556 396.253 784.541> 1406 67<177.492 331.181>
AnchorPoint: "right" 903 1450 basechar 0
AnchorPoint: "top" 458 1480 basechar 0
AnchorPoint: "cedilla" 593 -162 basechar 0
LayerCount: 3
Fore
SplineSet
69 20 m 0
 69 65 125 38 178 86 c 0
 236 138 211 135 301 772 c 0
 329 976 360 1219 360 1294 c 0
 360 1372 316 1403 236 1406 c 0
 202 1407 176 1427 176 1447 c 0
 176 1457 182 1473 209 1473 c 0
 229 1473 283 1457 442 1457 c 0
 553 1457 593 1464 629 1464 c 0
 655 1464 672 1455 672 1438 c 0
 672 1386 546 1436 523 1285 c 0
 514 1226 378 226 378 190 c 0
 378 100 396 78 600 78 c 0
 1180 78 1130 280 1190 280 c 0
 1200 280 1215 276 1215 249 c 0
 1215 183 1121 50 1100 32 c 0
 1048 -13 1021 -17 975 -17 c 2
 878 -17 l 2
 700 -17 497 6 375 6 c 0
 263 6 217 -7 117 -7 c 0
 80 -7 69 7 69 20 c 0
EndSplineSet
EndChar

StartChar: M
Encoding: 77 77 39
Width: 1882
VWidth: 5
Flags: W
PickledData: "(dp1
S'spacing_anchors_slanted'
p2
I00
s."
HStem: -9 55<1690.83 1826.94> -5 75<50.6663 173.806> 7 21G<918.5 947> 1392 67<118.116 288.799 1710.77 1833.46>
VStem: 49 253<10.5 207> 1511 143<317.212 1034.12>
LayerCount: 3
Fore
SplineSet
49 21 m 0x5c
 49 45 57 42 128 70 c 0x5c
 207 101 219 214 265 460 c 0
 293 612 368 939 368 1063 c 0
 368 1092 366 1122 366 1152 c 0
 366 1240 330 1306 303 1342 c 0
 269 1388 239 1393 179 1393 c 0
 171 1393 156 1392 149 1392 c 0
 136 1392 118 1400 118 1424 c 0
 118 1457 217 1459 263 1459 c 2
 276 1459 l 2
 332 1459 368 1460 406 1460 c 0
 453 1460 468 1413 566 1170 c 0
 732 759 966 258 981 258 c 0
 996 258 1096 452 1312 884 c 0
 1351 962 1412 1077 1461 1182 c 0
 1555 1380 1564 1450 1611 1450 c 0
 1617 1450 1648 1449 1673 1449 c 0
 1710 1449 1772 1458 1785 1458 c 0
 1819 1458 1834 1444 1834 1429 c 0
 1834 1419 1819 1402 1806 1399 c 0
 1736 1384 1692 1422 1664 1156 c 0
 1654 1062 1654 991 1654 930 c 2
 1654 770 l 2
 1654 660 1649 552 1649 479 c 0
 1649 427 1646 479 1646 217 c 0
 1646 76 1683 56 1797 46 c 0
 1816 44 1827 31 1827 20 c 0
 1827 -3 1807 -9 1771 -9 c 0
 1722 -9 1646 3 1558 3 c 0
 1501 3 1461 -9 1388 -9 c 0x9c
 1359 -9 1345 5 1345 16 c 0
 1345 64 1447 29 1479 135 c 0
 1508 231 1511 728 1511 798 c 0
 1511 1022 1502 1035 1498 1035 c 0
 1486 1035 1457 996 1418 920 c 2
 1119 339 l 2
 951 13 966 7 928 7 c 0x3c
 909 7 878 78 515 902 c 0
 468 1010 468 1010 458 1010 c 0
 447 1010 430 941 428 920 c 0
 394 630 302 268 302 146 c 0
 302 24 480 80 480 21 c 0
 480 -2 455 -4 438 -4 c 0
 369 -4 274 3 246 3 c 0
 222 3 187 -5 97 -5 c 0
 73 -5 49 0 49 21 c 0x5c
EndSplineSet
Validated: 1
EndChar

StartChar: N
Encoding: 78 78 40
Width: 1635
VWidth: 5
Flags: W
PickledData: "(dp1
S'spacing_anchors_slanted'
p2
I00
s."
HStem: -11 19G<114.5 149 446 479.5 1249.5 1286.5> 1398 61<1551.26 1656.98>
VStem: 90 254<8.5 247.5> 1420 237<1256.5 1443.5>
AnchorPoint: "cedilla" 764 -162 basechar 0
AnchorPoint: "top" 915 1480 basechar 0
LayerCount: 3
Fore
SplineSet
90 13 m 0
 90 45 137 32 176 66 c 0
 255 134 258 240 314 598 c 0
 339 755 390 1031 390 1170 c 0
 390 1279 346 1302 290 1353 c 0
 230 1408 107 1354 107 1415 c 0
 107 1440 157 1454 244 1454 c 0
 271 1454 302 1448 330 1448 c 0
 340 1448 374 1449 391 1449 c 0
 439 1449 439 1438 493 1364 c 0
 1252 314 1227 261 1260 261 c 0
 1321 261 1420 1251 1420 1262 c 0
 1420 1435 1255 1361 1255 1438 c 0
 1255 1455 1273 1459 1305 1459 c 0
 1330 1459 1405 1449 1461 1449 c 0
 1547 1449 1566 1459 1604 1459 c 0
 1646 1459 1657 1452 1657 1429 c 0
 1657 1410 1623 1407 1596 1398 c 0
 1516 1373 1494 1258 1476 1101 c 0
 1402 475 1327 100 1315 44 c 0
 1312 31 1300 -13 1273 -13 c 0
 1226 -13 1169 148 859 594 c 0
 613 948 548 1029 526 1074 c 0
 516 1094 497 1098 492 1098 c 0
 477 1098 462 1085 453 1002 c 0
 405 545 344 333 344 162 c 0
 344 20 509 71 509 14 c 0
 509 -9 486 -10 473 -10 c 0
 419 -10 453 -4 269 -4 c 0
 197 -4 162 -11 136 -11 c 0
 93 -11 90 4 90 13 c 0
EndSplineSet
Validated: 1
EndChar

StartChar: O
Encoding: 79 79 41
Width: 1746
VWidth: -5
Flags: HW
PickledData: "(dp1
S'spacing_anchors_slanted'
p2
I00
s."
HStem: -40 73<638.139 1000.21> 1405 62<688.692 1046.96>
VStem: 84 177<430.542 908.857> 1414 179<498.157 1033.98>
AnchorPoint: "top" 891 1480 basechar 0
LayerCount: 3
Fore
SplineSet
84 644 m 0
 84 1043 374 1467 892 1467 c 0
 1375 1467 1593 1127 1593 770 c 0
 1593 394 1344 -40 810 -40 c 0
 371 -40 84 234 84 644 c 0
261 710 m 0
 261 265 541 33 825 33 c 0
 1199 33 1414 418 1414 779 c 0
 1414 880 1405 979 1370 1068 c 0
 1294 1262 1125 1405 865 1405 c 0
 460 1405 261 1004 261 710 c 0
EndSplineSet
Validated: 1
EndChar

StartChar: P
Encoding: 80 80 42
Width: 1086
Flags: W
PickledData: "(dp1
S'spacing_anchors_slanted'
p2
I00
s."
HStem: -8 19G<117 142.5 489 521.5> 677 35<528.835 715.587> 1400 54<167.166 315.5 530.86 772.523>
VStem: 966 162<927.177 1259.85>
LayerCount: 3
Fore
SplineSet
68 21 m 0
 68 78 171 8 207 159 c 0
 216 197 238 409 261 598 c 0
 261 599 339 1204 339 1302 c 0
 339 1350 323 1409 199 1414 c 0
 171 1415 162 1429 162 1442 c 0
 162 1458 176 1466 209 1466 c 0
 277 1466 496 1454 530 1454 c 0
 618 1454 680 1468 752 1468 c 0
 973 1468 1128 1357 1128 1128 c 0
 1128 962 1035 782 867 711 c 0
 808 686 736 677 650 677 c 0
 574 677 510 693 510 711 c 0
 510 714 510 715 516 715 c 0
 526 715 553 712 628 712 c 0
 762 712 966 850 966 1106 c 0
 966 1253 880 1313 820 1351 c 0
 758 1390 686 1400 631 1400 c 0
 526 1400 537 1388 529 1368 c 0
 492 1272 492 1235 382 328 c 0
 379 303 361 185 361 165 c 0
 361 37 548 61 548 21 c 0
 548 -2 533 -10 510 -10 c 0
 468 -10 404 5 298 5 c 0
 271 5 152 -8 133 -8 c 0
 101 -8 68 1 68 21 c 0
EndSplineSet
Validated: 1
EndChar

StartChar: Q
Encoding: 81 81 43
Width: 1719
VWidth: -5
Flags: HW
PickledData: "(dp1
S'spacing_anchors_slanted'
p2
I00
s."
HStem: -410 133<1245.11 1492.08> 1408 60<739.222 1075.02>
VStem: 119 63<-232.888 -5.36797> 120 173<402.896 890.724> 1446 177<495.133 1019.56>
LayerCount: 3
Fore
SplineSet
119 -82 m 0xe8
 119 141 282 153 282 181 c 0
 282 219 120 329 120 615 c 0xd8
 120 902 285 1468 947 1468 c 0
 1220 1468 1338 1349 1371 1323 c 0
 1412 1290 1447 1258 1477 1218 c 0
 1586 1071 1623 887 1623 752 c 0
 1623 338 1324 18 1002 -20 c 0
 896 -33 891 -43 891 -57 c 0
 891 -63 1257 -277 1416 -277 c 0
 1550 -277 1571 -176 1602 -176 c 0
 1614 -176 1619 -184 1619 -196 c 0
 1619 -264 1493 -410 1364 -410 c 0
 1020 -410 476 76 340 76 c 0
 252 76 182 -19 182 -106 c 0
 182 -210 229 -245 229 -272 c 0
 229 -283 221 -300 204 -300 c 0
 170 -300 119 -268 119 -82 c 0xe8
293 667 m 0
 293 341 469 28 868 28 c 0
 1259 28 1446 444 1446 796 c 0
 1446 927 1420 1050 1369 1138 c 0
 1301 1257 1134 1408 910 1408 c 0
 582 1408 293 1146 293 667 c 0
EndSplineSet
Validated: 1
EndChar

StartChar: R
Encoding: 82 82 44
Width: 1327
VWidth: 2043
Flags: HW
PickledData: "(dp1
S'spacing_anchors_slanted'
p2
I00
s."
HStem: -17 70<1146.15 1288.98> -12 94<74.4381 209.184> 717 74<458.257 674.907> 1385 70<161.521 324.91 547.082 845.807>
VStem: 354 102<930.639 1173.66> 988 178<975.578 1264.78>
AnchorPoint: "cedilla" 642 -162 basechar 0
AnchorPoint: "top" 698 1480 basechar 0
LayerCount: 3
Fore
SplineSet
70 18 m 0x7c
 70 66 123 51 178 82 c 0x7c
 229 111 214 122 303 876 c 0
 319 1010 354 1251 354 1278 c 0
 354 1362 282 1385 226 1389 c 0
 190 1392 161 1392 161 1413 c 0
 161 1443 180 1449 222 1449 c 0
 266 1449 337 1438 389 1438 c 0
 503 1438 563 1455 726 1455 c 0
 775 1455 821 1454 864 1450 c 0
 1056 1434 1166 1294 1166 1140 c 0
 1166 993 1066 834 841 756 c 0
 826 751 822 739 822 734 c 0
 822 693 1011 251 1086 151 c 0
 1142 76 1187 53 1255 53 c 0
 1275 53 1294 46 1294 31 c 0
 1294 13 1263 -17 1150 -17 c 0xbc
 985 -17 953 18 873 196 c 0
 727 522 691 717 637 717 c 0
 625 717 555 715 543 715 c 0
 513 715 492 717 470 717 c 0
 439 717 432 681 417 536 c 2
 388 248 l 2
 387 235 382 187 382 176 c 0
 382 36 564 76 564 20 c 0
 564 0 533 -6 495 -6 c 0
 438 -6 364 7 342 7 c 0
 244 7 148 -12 126 -12 c 0
 106 -12 70 -5 70 18 c 0x7c
456 844 m 0
 456 796 489 791 520 791 c 2
 548 791 l 2
 722 791 758 796 794 804 c 0
 946 839 988 1029 988 1118 c 0
 988 1249 892 1385 695 1385 c 0
 589 1385 517 1371 508 1258 c 0
 493 1054 456 873 456 844 c 0
EndSplineSet
Validated: 1
EndChar

StartChar: S
Encoding: 83 83 45
Width: 1221
VWidth: 0
Flags: W
PickledData: "(dp1
S'spacing_anchors_slanted'
p2
I00
s."
HStem: -29 75<326.936 673.351> 1397 69<421.976 695.714> 1408 20G<912.5 928.5>
VStem: 86 57<236.221 320.387> 215 140<1061.05 1319.19> 795 143<172.772 412.994>
AnchorPoint: "cedilla" 493 -162 basechar 0
AnchorPoint: "top" 593 1480 basechar 0
LayerCount: 3
Fore
SplineSet
86 275 m 0xdc
 86 286 92 321 120 321 c 0
 133 321 139 312 143 300 c 0
 182 176 292 46 504 46 c 0
 752 46 795 204 795 273 c 0
 795 372 740 444 650 536 c 1
 411 774 l 1
 329 858 215 990 215 1137 c 0
 215 1308 288 1365 352 1408 c 0xbc
 400 1440 469 1466 560 1466 c 0xdc
 683 1466 824 1395 860 1395 c 0
 869 1395 903 1428 922 1428 c 0xbc
 935 1428 949 1420 949 1385 c 0
 949 1363 948 1339 948 1313 c 0
 948 1302 947 1289 947 1277 c 0
 947 1224 971 1127 971 1101 c 0
 971 1075 951 1060 938 1060 c 0
 882 1060 924 1165 787 1298 c 0
 718 1365 639 1397 544 1397 c 0
 379 1397 355 1276 355 1214 c 0
 355 1014 563 887 752 690 c 0
 858 579 938 493 938 324 c 0
 938 205 846 -29 457 -29 c 0
 367 -29 230 -22 162 16 c 0
 122 39 86 210 86 275 c 0xdc
EndSplineSet
Validated: 1
EndChar

StartChar: T
Encoding: 84 84 46
Width: 1439
VWidth: 5
Flags: W
PickledData: "(dp1
S'spacing_anchors_slanted'
p2
I00
s."
HStem: -3 19G<394 429.5 786.5 823> 1339 107<184.811 655.976 812.355 1260.08>
VStem: 1275 94<1133.04 1314.53>
AnchorPoint: "top" 744 1480 basechar 0
AnchorPoint: "cedilla" 561 -162 basechar 0
LayerCount: 3
Fore
SplineSet
41 1174 m 0
 41 1237 65 1233 106 1392 c 0
 118 1438 139 1446 200 1446 c 0
 343 1446 276 1439 729 1439 c 0
 1077 1439 1233 1447 1303 1447 c 0
 1361 1447 1362 1425 1362 1406 c 0
 1362 1287 1369 1219 1369 1180 c 0
 1369 1138 1348 1132 1330 1132 c 0
 1297 1132 1316 1151 1275 1264 c 0
 1252 1328 1224 1331 970 1331 c 2
 878 1331 l 2
 801 1331 812 1317 789 1102 c 0
 741 649 682 281 682 177 c 0
 682 12 857 92 857 26 c 0
 857 2 839 -5 807 -5 c 0
 766 -5 678 9 588 9 c 0
 523 9 448 -3 411 -3 c 0
 377 -3 345 4 345 26 c 0
 345 86 444 31 493 107 c 0
 508 130 512 159 516 190 c 0
 544 406 656 1285 656 1306 c 0
 656 1338 624 1339 511 1339 c 0
 226 1339 201 1317 159 1269 c 0
 95 1196 119 1128 68 1128 c 0
 48 1128 41 1151 41 1174 c 0
EndSplineSet
AlternateSubs2: "'aalt' Access All Alternates lookup 0 subtable" T.001
AlternateSubs2: "'aalt' Access All Alternates in Latin lookup 0 subtable" T.001
Substitution2: "'salt' Stylistic Alternatives in Latin lookup 11 subtable" T.001
EndChar

StartChar: U
Encoding: 85 85 47
Width: 1669
VWidth: 5
Flags: W
PickledData: "(dp1
S'spacing_anchors_slanted'
p2
I00
s."
HStem: -38 89<499.88 969.93> 1431 20G<87 115.5 475 526.5 1248 1278.5 1571 1600.5>
VStem: 167 160<214.82 896.299> 244 314<1255 1436> 1394 234<1207.5 1426.94>
AnchorPoint: "top" 898 1480 basechar 0
LayerCount: 3
Fore
SplineSet
65 1421 m 0xd8
 65 1434 74 1451 100 1451 c 0
 131 1451 184 1438 334 1438 c 0
 379 1438 432 1450 518 1450 c 0
 535 1450 558 1444 558 1421 c 0xd8
 558 1362 427 1422 412 1268 c 0
 381 953 327 604 327 393 c 0
 327 279 378 51 714 51 c 0
 1022 51 1174 199 1245 376 c 0
 1313 546 1394 1151 1394 1264 c 0
 1394 1410 1216 1354 1216 1418 c 0
 1216 1431 1230 1444 1266 1444 c 0
 1291 1444 1338 1435 1377 1435 c 0
 1463 1435 1552 1444 1590 1444 c 0
 1611 1444 1628 1431 1628 1418 c 0
 1628 1378 1532 1410 1497 1293 c 0
 1481 1239 1412 557 1320 336 c 0
 1255 179 1166 114 1029 30 c 0
 958 -13 789 -38 720 -38 c 0
 471 -38 353 12 264 102 c 0
 176 191 167 283 167 440 c 0xe8
 167 498 244 1227 244 1283 c 0
 244 1428 65 1356 65 1421 c 0xd8
EndSplineSet
Validated: 1
EndChar

StartChar: V
Encoding: 86 86 48
Width: 1740
VWidth: 0
Flags: W
PickledData: "(dp1
S'spacing_anchors_slanted'
p2
I00
s."
HStem: -44 263<724 841> 1352 92<165.387 317.446 1537.56 1672.17>
VStem: 163 361<1250.5 1430.5> 1400 280<1261 1427>
LayerCount: 3
Fore
SplineSet
163 1413 m 0
 163 1435 185 1444 237 1444 c 0
 282 1444 344 1435 401 1435 c 0
 441 1435 520 1443 562 1443 c 0
 617 1443 634 1433 634 1417 c 0
 634 1361 524 1426 524 1274 c 0
 524 1227 796 219 831 219 c 0
 851 219 1400 1216 1400 1306 c 0
 1400 1403 1240 1363 1240 1420 c 0
 1240 1438 1244 1447 1281 1447 c 0
 1310 1447 1437 1438 1505 1438 c 0
 1537 1438 1530 1441 1609 1441 c 0
 1649 1441 1680 1435 1680 1419 c 0
 1680 1373 1636 1406 1575 1355 c 0
 1481 1277 1339 924 1179 654 c 16
 1033 407 834 43 763 -32 c 0
 754 -41 744 -44 739 -44 c 0
 709 -44 703 -4 680 80 c 2
 399 1096 l 2
 368.057458501 1208.08076143 343 1307 272 1352 c 0
 216 1387 163 1356 163 1413 c 0
EndSplineSet
Validated: 1
EndChar

StartChar: W
Encoding: 87 87 49
Width: 2308
VWidth: 0
Flags: W
PickledData: "(dp1
S'spacing_anchors_slanted'
p2
I00
s."
HStem: -44 254<729 830.5 1314 1433> 1374 74<543.589 660.174 786.531 916.533 1570.38 1696.56>
VStem: 216 323<1263.5 1442.5> 1100 153<588.844 863.859> 1430 268<1295 1430> 1998 294<1271.5 1432>
AnchorPoint: "top" 1261 1480 basechar 0
LayerCount: 3
Fore
SplineSet
216 1434 m 0
 216 1451 239 1455 258 1455 c 0
 286 1455 353 1440 447 1440 c 0
 487 1440 566 1448 608 1448 c 0
 663 1448 666 1435 666 1424 c 0
 666 1390 595 1410 559 1374 c 0
 543 1358 539 1332 539 1287 c 0
 539 1240 791 210 826 210 c 0
 835 210 1100 636 1100 682 c 0
 1100 723 1098 717 1089 750 c 2
 1002 1097 l 2
 974 1210 954 1325 883 1370 c 0
 827 1405 778 1396 778 1429 c 0
 778 1442 785 1450 837 1450 c 0
 882 1450 938 1440 995 1440 c 0
 1035 1440 1115 1447 1157 1447 c 0
 1212 1447 1220 1440 1220 1424 c 0
 1220 1368 1107 1435 1107 1310 c 0
 1107 1293 1151 1125 1199 949 c 0
 1208 915 1211 893 1221 893 c 0
 1234 893 1249 922 1267 957 c 0
 1322 1065 1430 1279 1430 1311 c 0
 1430 1413 1292 1380 1292 1430 c 0
 1292 1444 1309 1449 1346 1449 c 0
 1375 1449 1437 1443 1505 1443 c 0
 1537 1443 1557 1451 1636 1451 c 0
 1676 1451 1698 1438 1698 1422 c 0
 1698 1376 1657 1415 1596 1364 c 0
 1543 1319 1479 1194 1411 1070 c 0
 1253 784 1253 796 1253 760 c 0
 1253 714 1403 206 1424 206 c 0
 1442 206 1998 1227 1998 1316 c 0
 1998 1423 1848 1369 1848 1428 c 0
 1848 1446 1865 1454 1890 1454 c 0
 1919 1454 2018 1446 2086 1446 c 0
 2118 1446 2203 1454 2222 1454 c 0
 2262 1454 2292 1440 2292 1424 c 0
 2292 1377 2230 1411 2169 1360 c 0
 2075 1282 1934 924 1774 654 c 0
 1628 407 1464 94 1376 -30 c 0
 1369 -40 1357 -51 1333 -51 c 0
 1295 -51 1297 -4 1275 80 c 2
 1154 538 l 2
 1147 563 1145 579 1139 579 c 0
 1136 579 1134 575 1132 572 c 0
 757 -44 773 -44 744 -44 c 0
 714 -44 706 -4 685 80 c 0
 361 1378 388 1321 317 1366 c 0
 261 1401 216 1394 216 1434 c 0
EndSplineSet
Validated: 1
EndChar

StartChar: X
Encoding: 88 88 50
Width: 1538
VWidth: 0
Flags: W
PickledData: "(dp1
S'spacing_anchors_slanted'
p2
I00
s."
HStem: -14 82<396.364 547.871 1229.77 1459.59> 1354 118<183.057 416.476> 1400 66<1333.13 1452.86>
VStem: 46 344<5.5 146.5> 55 76<1087.13 1291.23> 712 146<682.551 839.235> 1141 312<1326 1442>
LayerCount: 3
Fore
SplineSet
46 20 m 0xb6
 46 80.8 106.738982694 16.7389826945 262 172 c 0
 348 258 445 386 565 538 c 0
 712 724 712 722 712 733 c 0
 712 739 663 847 612 976 c 0
 538 1164 439 1322 370 1338 c 0
 363 1340 336 1354 294 1354 c 0
 185 1354 131 1260 131 1181 c 0
 131 1139 152 1094 183 1076 c 0
 204 1064 238 1068 238 1024 c 0
 238 999 210 986 182 986 c 0
 107 986 55 1101 55 1210 c 0
 55 1427 247 1472 330 1472 c 0xce
 517 1472 598 1372 696 1168 c 0
 788 976 804 880 822 880 c 0
 829 880 834 890 859 922 c 2
 994 1099 l 2
 1096 1234 1141 1306 1141 1346 c 0
 1141 1425 1020 1390 1020 1436 c 0
 1020 1456 1033 1466 1054 1466 c 0
 1143 1466 1149 1460 1220 1460 c 0
 1293 1460 1351 1466 1391 1466 c 0
 1431 1466 1453 1454 1453 1430 c 0
 1453 1417 1446 1404 1426 1400 c 0
 1330 1384 1309 1376 1050 1044 c 0
 860 799 858 809 858 799 c 0
 858 771 1000 446 1106 260 c 0
 1164 159 1223 68 1360 68 c 0
 1426 68 1434 98 1474 98 c 0
 1491 98 1495 85 1495 76 c 0
 1495 22 1387 -14 1294 -14 c 0
 1060 -14 1018 42 940 217 c 0
 774 591 766 641 748 641 c 0
 740 641 718 614 687 573 c 2
 497 320 l 2
 435 236 390 170 390 123 c 0
 390 104 408 65 514 56 c 0
 528 55 548 48 548 24 c 0
 548 -1 530 -5 492 -5 c 0
 456 -5 286 7 268 7 c 0
 231 7 146 -14 104 -14 c 0
 71 -14 46 -9 46 20 c 0xb6
EndSplineSet
Validated: 1
EndChar

StartChar: Y
Encoding: 89 89 51
Width: 1390
VWidth: 5
Flags: W
PickledData: "(dp1
S'spacing_anchors_slanted'
p2
I00
s."
HStem: -14 70<435.013 550.868> 1392 70<86.8259 239.357>
VStem: 627 109<256.002 596.003>
AnchorPoint: "top" 796 1480 basechar 0
LayerCount: 3
Fore
SplineSet
86 1434 m 0
 86 1448 98 1462 154 1462 c 0
 181 1462 311 1454 346 1454 c 0
 393 1454 494 1462 528 1462 c 0
 582 1462 589 1446 589 1432 c 0
 589 1390 486 1400 486 1346 c 0
 486 1284 546 1160 576 1106 c 0
 655 959 745 736 759 736 c 0
 766 736 1140 1233 1140 1340 c 0
 1140 1426 995 1362 995 1430 c 0
 995 1453 1010 1459 1048 1459 c 0
 1071 1459 1124 1454 1156 1454 c 0
 1248 1454 1289 1460 1366 1460 c 0
 1418 1460 1420 1443 1420 1429 c 0
 1420 1399 1335 1396 1290 1349 c 0
 1202 1256 929 829 856 748 c 0
 805 691 784 658 768 508 c 0
 744 273 736 174 736 161 c 0
 736 126 753 105 782 81 c 0
 848 28 931 61 931 16 c 0
 931 0 928 -12 891 -12 c 0
 862 -12 724 2 661 2 c 0
 567 2 538 -14 489 -14 c 0
 447 -14 434 -1 434 12 c 0
 434 48 473 45 510 56 c 0
 551 68 562 102 572 182 c 2
 572 182 627 559 627 618 c 0
 627 678 580 748 363 1167 c 0
 274 1339 229 1378 184 1392 c 0
 159 1400 86 1386 86 1434 c 0
EndSplineSet
Validated: 1
AlternateSubs2: "'aalt' Access All Alternates lookup 0 subtable" Y.001
AlternateSubs2: "'aalt' Access All Alternates in Latin lookup 0 subtable" Y.001
Substitution2: "'salt' Stylistic Alternatives in Latin lookup 11 subtable" Y.001
EndChar

StartChar: Z
Encoding: 90 90 52
Width: 1282
VWidth: 0
Flags: W
PickledData: "(dp1
S'spacing_anchors_slanted'
p2
I00
s."
HStem: -9 148<258.021 971.403> 1302 133<773.917 946.98> 1320 145<306.585 855.655>
VStem: 104 66<1025.05 1209.78> 947 202<1269 1431> 1031 77<141.628 290>
AnchorPoint: "top" 665 1480 basechar 0
LayerCount: 3
Fore
SplineSet
27 9 m 0xd4
 27 42 80 89 217 272 c 0
 456 591 947 1244 947 1294 c 0
 947 1300 919 1302 879 1302 c 0xd8
 847 1302 834 1301 771 1301 c 0
 694 1301 597 1320 541 1320 c 0
 476 1320 406 1317 352 1304 c 0
 240 1277 170 1194 170 1120 c 0
 170 991 242 1034 242 983 c 0
 242 965 223 950 196 950 c 0
 118 950 104 1060 104 1100 c 0
 104 1127 115 1185 135 1236 c 0
 156 1289 194 1326 244 1374 c 0
 338 1464 430 1465 563 1465 c 0xb8
 776 1465 891 1435 1002 1435 c 0
 1034 1435 1068 1448 1104 1448 c 0
 1131 1448 1149 1447 1149 1415 c 0xd8
 1149 1368 258 203 258 162 c 0
 258 139 286 139 406 139 c 2
 495 139 l 2
 695 139 793 128 878 128 c 0
 960 128 1031 136 1031 182 c 0
 1031 217 916 207 916 285 c 0
 916 346 975 378 1015 378 c 0
 1086 378 1108 302 1108 278 c 0
 1108 162 1051 102 986 48 c 0
 978 42 932 -21 744 -21 c 0
 423 -21 375 -9 304 -9 c 0
 208 -9 192 -19 81 -19 c 0
 60 -19 27 -14 27 9 c 0xd4
EndSplineSet
EndChar

StartChar: period
Encoding: 46 46 53
Width: 516
VWidth: 0
Flags: W
PickledData: "(dp1
S'spacing_anchors_slanted'
p2
I00
s."
HStem: -31 262<219.557 318.993>
VStem: 137 255<39.2983 152.011>
LayerCount: 3
Fore
SplineSet
137 94 m 0
 137 113 172 144 204 172 c 0
 231 196 262 231 289 231 c 0
 308 231 323 205 348 169 c 0
 364 146 392 138 392 95 c 0
 392 68 357 49 327 21 c 0
 302 -3 283 -31 255 -31 c 0
 222 -31 213 3 186 30 c 0
 156 60 137 74 137 94 c 0
EndSplineSet
Validated: 1
AlternateSubs2: "'aalt' Access All Alternates lookup 0 subtable" period.sub period.sup period.denom period.numer
AlternateSubs2: "'aalt' Access All Alternates in Latin lookup 0 subtable" period.sub period.sup period.denom period.numer
Substitution2: "'subs' Subscript in Latin lookup 8 subtable" period.sub
Substitution2: "'sups' Superscript in Latin lookup 7 subtable" period.sup
Substitution2: "'dnom' Denominators in Latin lookup 4 subtable" period.denom
Substitution2: "'numr' Numerators in Latin lookup 3 subtable" period.numer
Substitution2: "denominators subtable" period.denom
Substitution2: "numerators subtable" period.numer
EndChar

StartChar: comma
Encoding: 44 44 54
Width: 512
VWidth: 0
Flags: W
PickledData: "(dp1
S'spacing_anchors_slanted'
p2
I00
s."
HStem: -340 582<134 252>
VStem: 248 122<-146.533 41.8846>
LayerCount: 3
Fore
SplineSet
105 -313 m 0
 105 -287 150 -263 171 -240 c 0
 210 -197 248 -131 248 -54 c 0
 248 56 135 72 135 115 c 0
 135 121 215 242 252 242 c 0
 293 242 370 178 370 0 c 0
 370 -150 196 -340 134 -340 c 0
 119 -340 105 -330 105 -313 c 0
EndSplineSet
Validated: 1
AlternateSubs2: "'aalt' Access All Alternates lookup 0 subtable" comma.sub comma.sup comma.denom comma.numer
AlternateSubs2: "'aalt' Access All Alternates in Latin lookup 0 subtable" comma.sub comma.sup comma.denom comma.numer
Substitution2: "'subs' Subscript in Latin lookup 8 subtable" comma.sub
Substitution2: "'sups' Superscript in Latin lookup 7 subtable" comma.sup
Substitution2: "'dnom' Denominators in Latin lookup 4 subtable" comma.denom
Substitution2: "'numr' Numerators in Latin lookup 3 subtable" comma.numer
Substitution2: "denominators subtable" comma.denom
Substitution2: "numerators subtable" comma.numer
EndChar

StartChar: hyphen
Encoding: 45 45 55
Width: 696
VWidth: 0
Flags: W
PickledData: "(dp1
S'spacing_anchors_slanted'
p2
I00
s."
HStem: 312 236
VStem: 133 417<379 503>
LayerCount: 3
Fore
SplineSet
133 379 m 0
 133 410 141 436 222 460 c 0
 447 527 458 548 505 548 c 0
 526.120117188 548 550 539 550 503 c 0
 550 426.162109375 533.75 436.703125 397 389 c 0
 238 334 211 312 168 312 c 0
 142 312 133 337 133 379 c 0
EndSplineSet
Validated: 1
AlternateSubs2: "'aalt' Access All Alternates lookup 0 subtable" hyphen.uppercase
AlternateSubs2: "'aalt' Access All Alternates in Latin lookup 0 subtable" hyphen.uppercase
Substitution2: "'case' Case-Sensitive Forms in Latin lookup 10 subtable" hyphen.uppercase
EndChar

StartChar: colon
Encoding: 58 58 56
Width: 533
VWidth: 0
Flags: HW
PickledData: "(dp1
S'spacing_anchors_slanted'
p2
I00
s."
HStem: -29 21G<250 268> 634 244<276.319 372.12>
VStem: 133 257<50.1256 156.808> 204 242<703.243 808.01>
LayerCount: 3
Fore
SplineSet
133 102 m 0xe0
 133 118 182 162 191 169 c 0
 237 203 255 237 288 237 c 0
 305 237 320 207 352 169 c 0
 370 148 390 130 390 116 c 0
 390 92 357 60 327 32 c 0
 302 8 274 -29 262 -29 c 0
 238 -29 220 -3 198 23 c 0
 171 55 133 82 133 102 c 0xe0
204 753 m 0xd0
 204 776 319 878 342 878 c 0
 363 878 446 774 446 765 c 0
 446 725 321 634 305 634 c 0
 291 634 271 671 252 690 c 0
 223 719 204 734 204 753 c 0xd0
EndSplineSet
Validated: 1
EndChar

StartChar: semicolon
Encoding: 59 59 57
Width: 533
VWidth: 0
Flags: HW
PickledData: "(dp1
S'spacing_anchors_slanted'
p2
I00
s."
HStem: 863 20G<337.5 352.5>
VStem: 204 247<694.968 802.669> 278 122<-146.533 41.8846>
LayerCount: 3
Fore
SplineSet
135 -313 m 0xa0
 135 -287 180 -263 201 -240 c 0
 240 -197 278 -131 278 -54 c 0
 278 56 165 72 165 115 c 0
 165 121 245 242 282 242 c 0
 323 242 400 178 400 0 c 0
 400 -150 226 -340 164 -340 c 0
 149 -340 135 -330 135 -313 c 0xa0
204 753 m 0xc0
 204 766 333 883 342 883 c 0
 363 883 451 765 451 756 c 0
 451 720 328 622 311 622 c 0
 297 622 272 666 253 685 c 0
 224 714 204 734 204 753 c 0xc0
EndSplineSet
Validated: 1
EndChar

StartChar: exclam
Encoding: 33 33 58
Width: 566
VWidth: 0
Flags: HW
PickledData: "(dp1
S'spacing_anchors_slanted'
p2
I00
s."
HStem: -23 21G<250 268>
VStem: 138 252<49.136 161.139> 271 69<398.058 600.797>
LayerCount: 3
Fore
SplineSet
138 102 m 0xc0
 138 118 182 162 191 169 c 0
 237 203 255 237 288 237 c 0
 305 237 320 207 352 169 c 0
 370 148 390 127 390 113 c 0
 390 89 357 60 327 32 c 0
 302 8 274 -23 262 -23 c 0
 238 -23 220 -3 198 23 c 0
 171 55 138 82 138 102 c 0xc0
271 432 m 0xa0
 271 447 273 466 275 489 c 2
 327 1284 l 2
 330 1324 322 1406 426 1406 c 0
 462 1406 499 1393 499 1340 c 0
 499 1267 471 1247 427 935 c 0
 404 774 377 615 340 438 c 0
 337 426 322 397 298 397 c 0
 277 397 271 409 271 432 c 0xa0
EndSplineSet
Validated: 1
EndChar

StartChar: question
Encoding: 63 63 59
Width: 716
VWidth: 0
Flags: HW
PickledData: "(dp1
S'spacing_anchors_slanted'
p2
I00
s."
HStem: -29 21G<250 268> 1272 94<291.456 477.382>
VStem: 265 64<403.79 600.246> 535 152<991.163 1214.77>
LayerCount: 3
Fore
SplineSet
133 102 m 0
 133 126 195 166 204 173 c 0
 250 207 255 234 288 234 c 0
 305 234 320 207 352 169 c 0
 370 148 398 120 398 106 c 0
 398 86 359 60 329 32 c 0
 304 8 274 -29 262 -29 c 0
 238 -29 218 1 196 27 c 0
 169 59 133 82 133 102 c 0
222 1245 m 0
 222 1275 318 1366 430 1366 c 0
 550 1366 687 1273 687 1123 c 0
 687 1001 594 915 565 878 c 0
 420 696 329 599 329 486 c 0
 329 463 335 433 335 417 c 0
 335 401 325 397 316 397 c 0
 275 397 265 466 265 530 c 0
 265 705.8 535 984.15 535 1116 c 0
 535 1205.62369698 441.048828912 1272 371 1272 c 0
 301 1272 273 1232 240 1232 c 0
 230 1232 222 1237 222 1245 c 0
EndSplineSet
Validated: 1
EndChar

StartChar: quoteleft
Encoding: 8216 8216 60
Width: 540
VWidth: 0
Flags: W
PickledData: "(dp1
S'spacing_anchors_slanted'
p2
I00
s."
HStem: 874 587<289 373>
VStem: 150 135<1020.5 1296.31>
LayerCount: 3
Fore
SplineSet
150 1104 m 0
 150 1353 333 1461 373 1461 c 0
 390 1461 399 1442 399 1435 c 0
 399 1396 285 1381 285 1228 c 0
 285 1065 425 1080 425 1006 c 0
 425 990 399 967 370 938 c 0
 346 914 325 874 289 874 c 0
 273 874 150 937 150 1104 c 0
EndSplineSet
Validated: 1
EndChar

StartChar: quoteright
Encoding: 8217 8217 61
Width: 540
VWidth: 0
Flags: W
PickledData: "(dp1
S'spacing_anchors_slanted'
p2
I00
s."
HStem: 874 576<122 254>
VStem: 242 121<1063.86 1257.01>
LayerCount: 3
Fore
SplineSet
96 900 m 0
 96 947 172 940 218 1059 c 0
 228 1084 242 1115 242 1152 c 0
 242 1272 138 1277 138 1332 c 0
 138 1351 212 1450 254 1450 c 0
 270 1450 363 1407 363 1239 c 0
 363 1020 162 874 122 874 c 0
 101 874 96 889 96 900 c 0
EndSplineSet
Validated: 1
EndChar

StartChar: quotesinglbase
Encoding: 8218 8218 62
Width: 456
VWidth: 0
Flags: W
PickledData: "(dp1
S'spacing_anchors_slanted'
p2
I00
s."
HStem: -122 576<118 250>
VStem: 238 121<67.8599 261.013>
LayerCount: 3
Fore
SplineSet
92 -96 m 0
 92 -49 168 -56 214 63 c 0
 224 88 238 119 238 156 c 0
 238 276 134 281 134 336 c 0
 134 355 208 454 250 454 c 0
 266 454 359 411 359 243 c 0
 359 24 158 -122 118 -122 c 0
 97 -122 92 -107 92 -96 c 0
EndSplineSet
Validated: 1
EndChar

StartChar: quotereversed
Encoding: 8219 8219 63
Width: 436
VWidth: 0
Flags: W
PickledData: "(dp1
S'spacing_anchors_slanted'
p2
I00
s."
HStem: 870 586<247.455 311>
VStem: 157 110<996.389 1227.97>
LayerCount: 3
Fore
SplineSet
157 1212 m 0
 157 1369 268 1456 284 1456 c 0
 320 1456 341 1411 365 1387 c 0
 394 1358 412 1338 412 1322 c 0
 412 1302 399 1309 366 1285 c 0
 301 1237 267 1172 267 1089 c 0
 267 973 325 936 325 897 c 0
 325 873 311 870 301 870 c 0
 261 870 157 1018 157 1212 c 0
EndSplineSet
Validated: 1
EndChar

StartChar: quotedblleft
Encoding: 8220 8220 64
Width: 523
VWidth: 0
Flags: HW
PickledData: "(dp1
S'spacing_anchors_slanted'
p2
I00
s."
HStem: 874 576
VStem: 96 121<1066.99 1260.14> 446 121<1066.99 1260.14>
LayerCount: 3
Fore
SplineSet
96 1085 m 0
 96 1304 297 1450 337 1450 c 0
 358 1450 363 1435 363 1424 c 0
 363 1377 287 1384 241 1265 c 0
 231 1240 217 1209 217 1172 c 0
 217 1052 321 1047 321 992 c 0
 321 973 247 874 205 874 c 0
 189 874 96 917 96 1085 c 0
446 1085 m 0
 446 1304 647 1450 687 1450 c 0
 708 1450 713 1435 713 1424 c 0
 713 1377 637 1384 591 1265 c 0
 581 1240 567 1209 567 1172 c 0
 567 1052 671 1047 671 992 c 0
 671 973 597 874 555 874 c 0
 539 874 446 917 446 1085 c 0
EndSplineSet
Validated: 1
EndChar

StartChar: quotedblright
Encoding: 8221 8221 65
Width: 807
VWidth: 0
Flags: HW
PickledData: "(dp1
S'spacing_anchors_slanted'
p2
I00
s."
HStem: 874 576<122 254 472 604>
VStem: 242 121<1063.86 1257.01> 592 121<1063.86 1257.01>
LayerCount: 3
Fore
SplineSet
96 900 m 0
 96 947 172 940 218 1059 c 0
 228 1084 242 1115 242 1152 c 0
 242 1272 138 1277 138 1332 c 0
 138 1351 212 1450 254 1450 c 0
 270 1450 363 1407 363 1239 c 0
 363 1020 162 874 122 874 c 0
 101 874 96 889 96 900 c 0
446 900 m 0
 446 947 522 940 568 1059 c 0
 578 1084 592 1115 592 1152 c 0
 592 1272 488 1277 488 1332 c 0
 488 1351 562 1450 604 1450 c 0
 620 1450 713 1407 713 1239 c 0
 713 1020 512 874 472 874 c 0
 451 874 446 889 446 900 c 0
EndSplineSet
Validated: 1
EndChar

StartChar: quotedblbase
Encoding: 8222 8222 66
Width: 732
VWidth: 0
Flags: HW
PickledData: "(dp1
S'spacing_anchors_slanted'
p2
I00
s."
HStem: -122 576<118 250 468 600>
VStem: 238 121<67.8599 261.013> 588 121<67.8599 261.013>
LayerCount: 3
Fore
SplineSet
92 -96 m 0
 92 -49 168 -56 214 63 c 0
 224 88 238 119 238 156 c 0
 238 276 134 281 134 336 c 0
 134 355 208 454 250 454 c 0
 266 454 359 411 359 243 c 0
 359 24 158 -122 118 -122 c 0
 97 -122 92 -107 92 -96 c 0
442 -96 m 0
 442 -49 518 -56 564 63 c 0
 574 88 588 119 588 156 c 0
 588 276 484 281 484 336 c 0
 484 355 558 454 600 454 c 0
 616 454 709 411 709 243 c 0
 709 24 508 -122 468 -122 c 0
 447 -122 442 -107 442 -96 c 0
EndSplineSet
Validated: 1
EndChar

StartChar: uni201F
Encoding: 8223 8223 67
Width: 560
VWidth: 0
Flags: HW
PickledData: "(dp1
S'spacing_anchors_slanted'
p2
I00
s."
HStem: 870 586<247.455 311 597.455 661>
VStem: 157 110<996.389 1227.97> 507 110<996.389 1227.97>
LayerCount: 3
Fore
SplineSet
157 1212 m 0
 157 1369 268 1456 284 1456 c 0
 320 1456 341 1411 365 1387 c 0
 394 1358 412 1338 412 1322 c 0
 412 1302 399 1309 366 1285 c 0
 301 1237 267 1172 267 1089 c 0
 267 973 325 936 325 897 c 0
 325 873 311 870 301 870 c 0
 261 870 157 1018 157 1212 c 0
507 1212 m 0
 507 1369 618 1456 634 1456 c 0
 670 1456 691 1411 715 1387 c 0
 744 1358 762 1338 762 1322 c 0
 762 1302 749 1309 716 1285 c 0
 651 1237 617 1172 617 1089 c 0
 617 973 675 936 675 897 c 0
 675 873 661 870 651 870 c 0
 611 870 507 1018 507 1212 c 0
EndSplineSet
Validated: 1
EndChar

StartChar: dagger
Encoding: 8224 8224 68
Width: 977
VWidth: 0
Flags: W
PickledData: "(dp1
S'spacing_anchors_slanted'
p2
I00
s."
HStem: 980 248<248.926 356.735 937.857 1045.57> 1070 54<433.206 605.95 685.233 843.366> 1509 20G<642 704.5>
VStem: 485 239<581.716 755.584> 570 231<1388.95 1520.62> 606 66<880.127 1070 1124.12 1237.73>
LayerCount: 3
Fore
SplineSet
231 1056 m 0xa4
 231 1076 237 1228 285 1228 c 0xa4
 302 1228 400 1124 593 1124 c 0
 619 1124 620 1132 620 1194 c 0
 620 1333 570 1453 570 1484 c 0
 570 1502 594 1529 690 1529 c 0
 719 1529 801 1528 801 1491 c 0x68
 801 1481 685 1252 685 1133 c 0
 685 1124 690 1122 695 1122 c 0
 854 1122 1008 1233 1036 1233 c 0
 1054 1233 1066 1208 1066 1157 c 0
 1066 1117 1055 985 1011 985 c 0
 997 985 908 1070 705 1070 c 0
 676 1070 672 1065 672 932 c 0x64
 672 751 724 713 724 696 c 0
 724 644 645 710 529 -388 c 0
 524 -436 513 -440 492 -440 c 2
 485 -440 l 2
 469 -440 461 -437 461 -412 c 0
 461 -391 518 93 518 409 c 0
 518 653 485 660 485 687 c 0x70
 485 717 568 731 604 1048 c 0
 605 1054 606 1059 606 1062 c 0
 606 1068 603 1070 593 1070 c 0x64
 405 1070 289 980 261 980 c 0
 243 980 231 1005 231 1056 c 0xa4
EndSplineSet
Validated: 1
EndChar

StartChar: daggerdbl
Encoding: 8225 8225 69
Width: 1055
VWidth: 0
Flags: W
PickledData: "(dp1
S'spacing_anchors_slanted'
p2
I00
s."
HStem: -98 260<129.044 269.156 811.788 932.57> -2 66<331.178 490.881 569.243 750.782> 960 248<241.926 355.229 924.931 1038.89> 1050 54<434.498 597.331 678.254 839.403>
VStem: 369 242<-410.966 -285.34> 477 222<476.167 677.125> 491 63<-165.424 -4.12221> 510 59<78.6689 260.147> 563 231<1378.81 1500.62> 598 61<836.099 1036.26> 614 64<1104.04 1271.97>
LayerCount: 3
Fore
SplineSet
110 -20 m 0x82
 110 -3 116 162 164 162 c 0x82
 181 162 357 64 483 64 c 0
 494 64 501 67 502 76 c 0
 508 133 510 186 510 235 c 0x41
 510 417 477 537 477 584 c 0x44
 477 617 556 653 596 1023 c 0
 597 1032 598 1039 598 1043 c 0
 598 1049 596 1050 586 1050 c 0x5040
 579 1050 572 1049 565 1049 c 0
 421 1041 281 960 254 960 c 0
 236 960 224 985 224 1036 c 0
 224 1056 230 1208 278 1208 c 0x2040
 295 1208 404 1104 585 1104 c 0
 611 1104 614 1112 614 1193 c 0x1020
 614 1345 563 1435 563 1464 c 0
 563 1482 587 1509 683 1509 c 0
 712 1509 794 1508 794 1471 c 0x1080
 794 1449 700 1328 678 1116 c 0x1020
 678 1110 678 1102 687 1102 c 0
 850 1102 1000 1213 1028 1213 c 0
 1046 1213 1058 1188 1058 1137 c 0
 1058 1117 1052 965 1004 965 c 0
 987 965 878 1050 685 1050 c 0
 676 1050 672 1048 671 1040 c 0
 663 960 659 895 659 841 c 0x1040
 659 652 699 605 699 589 c 0x14
 699 572 608 418 571 97 c 0
 570 89 569 83 569 78 c 0x11
 569 71 572 68 582 68 c 0
 752 68 895 165 924 165 c 0
 942 165 953 139 953 87 c 0
 953 45 942 -95 898 -95 c 0
 886 -95 756 -4 590 -4 c 0
 562 -4 554 -4 554 -103 c 0x12
 554 -261 611 -347 611 -375 c 0
 611 -393 586 -420 485 -420 c 0
 454 -420 369 -419 369 -382 c 0x18
 369 -373 491 -148 491 -24 c 0
 491 -13 487 -2 472 -2 c 0x52
 381 -2 167 -98 139 -98 c 0
 121 -98 110 -72 110 -20 c 0x82
EndSplineSet
Validated: 1
EndChar

StartChar: bullet
Encoding: 8226 8226 70
Width: 858
VWidth: 1050
Flags: W
PickledData: "(dp1
S'spacing_anchors_slanted'
p2
I00
s."
HStem: 368 618<275.04 583.707>
VStem: 120 618<517.346 831.707>
LayerCount: 3
Fore
SplineSet
120 677 m 0
 120 847 258 986 429 986 c 0
 599 986 738 849 738 678 c 0
 738 507 601 368 430 368 c 0
 259 368 120 506 120 677 c 0
EndSplineSet
Validated: 1
AlternateSubs2: "'aalt' Access All Alternates lookup 0 subtable" bullet.001
AlternateSubs2: "'aalt' Access All Alternates in Latin lookup 0 subtable" bullet.001
Substitution2: "'salt' Stylistic Alternatives in Latin lookup 11 subtable" bullet.001
EndChar

StartChar: paragraph
Encoding: 182 182 71
Width: 957
VWidth: 0
Flags: HW
PickledData: "(dp1
S'spacing_anchors_slanted'
p2
I00
s."
HStem: -379 62<339.386 473.008> 658 58<559.942 636.147> 1420 44<613.079 710.97 770.106 845.061>
VStem: 188 342<793.722 1181.22>
LayerCount: 3
Fore
SplineSet
188 971 m 0
 188 1290 444 1464 614 1464 c 0
 715 1464 788 1467 870 1467 c 0
 904 1467 942 1470 984 1470 c 2
 1008 1470 l 2
 1015 1470 1022 1459 1022 1452 c 0
 1022 1419 966 1425 929 1387 c 0
 911 1369 897 1333 888 1252 c 0
 845 839 814 605 771 192 c 0
 738 -124 569 -379 346 -379 c 0
 296 -379 264 -375 223 -349 c 16
 217 -345 213 -324 213 -306 c 0
 213 -261 259 -160 285 -160 c 0
 323 -160 284 -317 416 -317 c 0
 564 -317 590 121 601 237 c 2
 633 582 l 2
 635 600 637 615 637 626 c 0
 637 648 629 658 593 658 c 0
 420 658 188 685 188 971 c 0
530 879 m 0
 530 780 548 716 598 716 c 0
 651 716 655 759 661 827 c 1
 670 913 673 986 681 1059 c 0
 714 1372 717 1317 717 1363 c 0
 717 1401 705 1420 672 1420 c 0
 653 1420 609 1409 596 1376 c 16
 542 1238 530 883 530 879 c 0
610 -104 m 0
 610 -115 613 -121 623 -121 c 0
 637 -121 707 26 730 246 c 2
 846 1388 l 2
 846 1389 846 1390 846 1391 c 0
 846 1412 825 1425 806 1425 c 0
 791 1425 772 1415 770 1398 c 0
 717 993 632 54 632 54 c 2
 617 -89 610 -80 610 -104 c 0
EndSplineSet
Validated: 1
EndChar

StartChar: emdash
Encoding: 8212 8212 72
Width: 2048
VWidth: 0
Flags: W
PickledData: "(dp1
S'spacing_anchors_slanted'
p2
I00
s."
HStem: 379 108<0.06427 2047.38>
LayerCount: 3
Fore
SplineSet
0 438 m 0
 0 484 20 487 70 487 c 2
 2004 487 l 2
 2035 487 2048 482 2048 425 c 0
 2048 398 2031 379 2004 379 c 2
 78 379 l 2
 0 379 0 381 0 438 c 0
EndSplineSet
Validated: 1
AlternateSubs2: "'aalt' Access All Alternates lookup 0 subtable" emdash.uppercase
AlternateSubs2: "'aalt' Access All Alternates in Latin lookup 0 subtable" emdash.uppercase
Substitution2: "'case' Case-Sensitive Forms in Latin lookup 10 subtable" emdash.uppercase
EndChar

StartChar: endash
Encoding: 8211 8211 73
Width: 1024
VWidth: 0
Flags: W
PickledData: "(dp1
S'spacing_anchors_slanted'
p2
I00
s."
HStem: 379 108<0.06427 1023.38>
LayerCount: 3
Fore
SplineSet
0 438 m 0
 0 484 20 487 70 487 c 2
 980 487 l 2
 1011 487 1024 482 1024 425 c 0
 1024 398 1007 379 980 379 c 2
 78 379 l 2
 0 379 0 381 0 438 c 0
EndSplineSet
Validated: 1
AlternateSubs2: "'aalt' Access All Alternates lookup 0 subtable" endash.uppercase
AlternateSubs2: "'aalt' Access All Alternates in Latin lookup 0 subtable" endash.uppercase
Substitution2: "'case' Case-Sensitive Forms in Latin lookup 10 subtable" endash.uppercase
EndChar

StartChar: acutecomb
Encoding: 769 769 74
Width: 0
VWidth: 0
Flags: W
PickledData: "(dp1
S'spacing_anchors_slanted'
p2
I00
s."
HStem: 988 363
VStem: -517 325
AnchorPoint: "top" -450 940 mark 0
LayerCount: 3
Fore
SplineSet
-517 1004 m 0
 -517 1030 -470 1047 -330 1315 c 0
 -313 1347 -295 1351 -289 1351 c 0
 -273 1351 -192 1337 -192 1304 c 0
 -192 1256 -469 988 -499 988 c 0
 -509 988 -517 995 -517 1004 c 0
EndSplineSet
Validated: 1
EndChar

StartChar: uni0302
Encoding: 770 770 76
Width: 0
VWidth: 0
Flags: W
PickledData: "(dp1
S'spacing_anchors_slanted'
p2
I00
s."
HStem: 1186 136<-481.1 -372.896>
VStem: -666 452<1016 1024>
AnchorPoint: "top" -450 940 mark 0
LayerCount: 3
Fore
SplineSet
-666 1021 m 0
 -666 1024 -662 1030 -657 1037 c 0
 -454 1294 -470 1322 -440 1322 c 2
 -388 1322 l 2
 -377 1322 -368 1322 -359 1302 c 0
 -291 1154 -214 1043 -214 1023 c 0
 -214 1016 -218 1012 -230 1012 c 0
 -259 1012 -405 1186 -424 1186 c 0
 -454 1185 -628 1014 -652 1014 c 0
 -654 1014 -666 1015 -666 1021 c 0
EndSplineSet
Validated: 1
EndChar

StartChar: gravecomb
Encoding: 768 768 77
Width: 0
VWidth: 0
Flags: W
PickledData: "(dp1
S'spacing_anchors_slanted'
p2
I00
s."
HStem: 988 363
VStem: -631 261
AnchorPoint: "top" -450 940 mark 0
LayerCount: 3
Fore
SplineSet
-631 1299 m 0
 -631 1338 -536 1351 -525 1351 c 0
 -519 1351 -501 1347 -491 1315 c 0
 -414 1068 -370 1033 -370 1008 c 0
 -370 996 -381 988 -392 988 c 0
 -421 988 -631 1245 -631 1299 c 0
EndSplineSet
Validated: 1
EndChar

StartChar: tildecomb
Encoding: 771 771 80
Width: 0
VWidth: 0
Flags: W
PickledData: "(dp1
S'spacing_anchors_slanted'
p2
I00
s."
HStem: 1091 108<-384.436 -236.227> 1189 108<-607 -465.059>
VStem: -733.082 618.47
AnchorPoint: "top" -450 940 mark 0
LayerCount: 3
Fore
SplineSet
-733.082178062 1094.64138653 m 0x60
 -733.082178062 1129.80994335 -597.054555337 1297 -515 1297 c 0x60
 -418 1297 -368 1199 -268 1199 c 0
 -194.727606066 1199 -164.245867565 1313.11313826 -132.760397641 1313.11313826 c 0
 -122.399736743 1313.11313826 -114.612063621 1303.46319609 -114.612063621 1289.23925116 c 0
 -114.612063621 1247.47333341 -249.855618265 1091 -331 1091 c 0xa0
 -431 1091 -488 1189 -578 1189 c 0
 -653.998702009 1189 -684.739445694 1072.69738004 -716.671901028 1072.69738004 c 0
 -726.397141081 1072.69738004 -733.082178062 1082.087278 -733.082178062 1094.64138653 c 0x60
EndSplineSet
Validated: 1
EndChar

StartChar: uni0308
Encoding: 776 776 81
Width: 0
VWidth: 0
Flags: HW
PickledData: "(dp1
S'spacing_anchors_slanted'
p2
I00
s."
HStem: 1106 204<-618.433 -500.128 -301.433 -183.128>
VStem: -650 185<1140.83 1277.81> -333 185<1140.83 1277.81>
AnchorPoint: "top" -450 940 mark 0
LayerCount: 3
Fore
SplineSet
-650 1206 m 0
 -650 1237.29980469 -590.150390625 1310 -547 1310 c 0
 -505.306640625 1310 -465 1254.76171875 -465 1215 c 0
 -465 1167.83789062 -543.043945312 1106 -560 1106 c 0
 -613.638671875 1106 -650 1171.89355469 -650 1206 c 0
-333 1206 m 0
 -333 1237.29980469 -273.150390625 1310 -230 1310 c 0
 -188.306640625 1310 -148 1254.76171875 -148 1215 c 0
 -148 1167.83789062 -226.043945312 1106 -243 1106 c 0
 -296.638671875 1106 -333 1171.89355469 -333 1206 c 0
EndSplineSet
Validated: 1
EndChar

StartChar: uni0306
Encoding: 774 774 84
Width: 0
VWidth: 0
Flags: W
PickledData: "(dp1
S'spacing_anchors_slanted'
p2
I00
s."
HStem: 1032 109<-542.465 -295.315>
VStem: -636 469<1245 1282>
AnchorPoint: "top" -450 940 mark 0
LayerCount: 3
Fore
SplineSet
-636 1245 m 0
 -636 1282 -635 1285 -626 1285 c 2
 -604 1285 l 2
 -581 1285 -595 1141 -407 1141 c 0
 -243 1141 -218 1285 -197 1285 c 2
 -183 1285 l 2
 -169 1285 -167 1284 -167 1279 c 0
 -167 1245 -240 1032 -430 1032 c 0
 -566 1032 -636 1142 -636 1245 c 0
EndSplineSet
Validated: 1
EndChar

StartChar: uni030C
Encoding: 780 780 85
Width: 0
VWidth: 0
Flags: W
PickledData: "(dp1
S'spacing_anchors_slanted'
p2
I00
s."
HStem: 1012 136<-478.139 -368.668>
VStem: -636 448<1307 1320>
AnchorPoint: "top" -450 940 mark 0
LayerCount: 3
Fore
SplineSet
-636 1311 m 0
 -636 1321 -630 1322 -622 1322 c 2
 -618 1322 l 1
 -592 1321 -447 1148 -426 1148 c 0
 -413 1148 -383 1172 -315 1232 c 0
 -249 1290 -230 1320 -202 1320 c 0
 -196 1320 -188 1320 -188 1310 c 0
 -188 1307 -189 1303 -193 1297 c 0
 -396 1040 -380 1012 -410 1012 c 2
 -462 1012 l 2
 -473 1012 -482 1012 -491 1032 c 0
 -554 1170 -636 1289 -636 1311 c 0
EndSplineSet
Validated: 1
EndChar

StartChar: exclamdown
Encoding: 161 161 88
Width: 566
VWidth: 0
Flags: HW
PickledData: "(dp1
S'spacing_anchors_slanted'
p2
I00
s."
HStem: -23 21G<193 263>
VStem: 138 172<-11.0833 272.303> 247 252<1221.86 1333.86>
LayerCount: 3
Fore
SplineSet
138 43 m 0xc0
 138 116 166 136 210 448 c 0
 233 609 260 768 297 945 c 0
 300 957 315 986 339 986 c 0
 360 986 366 974 366 951 c 0
 366 936 364 917 362 894 c 2
 310 99 l 2
 307 59 315 -23 211 -23 c 0
 175 -23 138 -10 138 43 c 0xc0
247 1270 m 0xa0
 247 1294 280 1323 310 1351 c 0xc0
 335 1375 363 1406 375 1406 c 0
 399 1406 417 1386 439 1360 c 0
 466 1328 499 1301 499 1281 c 0
 499 1265 455 1221 446 1214 c 0
 400 1180 382 1146 349 1146 c 0
 332 1146 317 1176 285 1214 c 0
 267 1235 247 1256 247 1270 c 0xa0
EndSplineSet
Validated: 1
EndChar

StartChar: questiondown
Encoding: 191 191 89
Width: 716
VWidth: 0
Flags: HW
PickledData: "(dp1
S'spacing_anchors_slanted'
p2
I00
s."
HStem: -29 94<342.618 528.544>
VStem: 133 152<122.226 345.837> 491 64<736.754 933.21>
LayerCount: 3
Fore
SplineSet
133 214 m 0
 133 336 226 422 255 459 c 0
 400 641 491 738 491 851 c 0
 491 874 485 904 485 920 c 0
 485 936 495 940 504 940 c 0
 545 940 555 871 555 807 c 0
 555 631.200195312 285 352.849609375 285 221 c 0
 285 131.375976562 378.951171875 65 449 65 c 0
 519 65 547 105 580 105 c 0
 590 105 598 100 598 92 c 0
 598 62 502 -29 390 -29 c 0
 270 -29 133 64 133 214 c 0
422 1231 m 0
 422 1251 461 1277 491 1305 c 0
 516 1329 546 1366 558 1366 c 0
 582 1366 602 1336 624 1310 c 0
 651 1278 687 1255 687 1235 c 0
 687 1211 625 1171 616 1164 c 0
 570 1130 565 1103 532 1103 c 0
 515 1103 500 1130 468 1168 c 0
 450 1189 422 1217 422 1231 c 0
EndSplineSet
Validated: 1
EndChar

StartChar: dotlessi
Encoding: 305 305 99
Width: 581
VWidth: 0
Flags: W
PickledData: "(dp1
S'spacing_anchors_slanted'
p2
I00
s."
HStem: -20 156<228.5 392.901> 786 54<104.183 272.258> 839 20G<346.5 412>
VStem: 182 136<136.285 446.137> 274 160<653.245 845.406>
AnchorPoint: "top" 323 940 basechar 0
LayerCount: 3
Fore
SplineSet
104 810 m 0xc8
 104 837 130 840 152 840 c 2
 172 840 l 2xc8
 254 840 288 859 405 859 c 0
 419 859 434 850 434 836 c 0xa8
 434 783 396 703 379 598 c 0
 318 210 318 216 318 191 c 0
 318 162 338 136 358 136 c 0
 427 136 457 242 486 242 c 0
 499 242 506 234 506 220 c 0
 506 196 469 126 447 101 c 0
 446 100 334 -20 259 -20 c 0
 198 -20 182 60 182 149 c 0xb0
 182 304 274 625 274 741 c 0
 274 776 262 784 225 784 c 0
 183 784 149 786 133 786 c 0
 120 786 104 790 104 810 c 0xc8
EndSplineSet
Validated: 1
EndChar

StartChar: uni0237
Encoding: 567 567 107
Width: 575
VWidth: 0
Flags: W
PickledData: "(dp1
S'spacing_anchors_slanted'
p2
I00
s."
HStem: -409 88<-11.5 123.871> 784 57<116.206 266.923> 843 20G<344.5 395>
VStem: 272 149<529.561 843.376>
AnchorPoint: "top" 299 940 basechar 0
LayerCount: 3
Fore
SplineSet
-74 -268 m 0
 -74 -252 -67 -235 -47 -235 c 0
 -2 -235 29 -321 84 -321 c 0
 126 -321 145 -248 190 111 c 0
 224 386 272 716 272 735 c 0
 272 775 231 785 207 785 c 0
 199 785 172 784 154 784 c 0
 125 784 116 796 116 809 c 0
 116 826 127 841 158 841 c 0
 174 841 197 843 222 843 c 0
 275 843 317 863 372 863 c 0
 418 863 421 844 421 830 c 0
 421 740 393 651 376 529 c 0
 289 -123 312 -202 171 -336 c 0
 135 -371 105 -409 14 -409 c 0
 -37 -409 -64 -402 -67 -353 c 0
 -70 -298 -74 -284 -74 -268 c 0
EndSplineSet
Validated: 1
EndChar

StartChar: uni0327
Encoding: 807 807 133
Width: 0
VWidth: 0
Flags: W
PickledData: "(dp1
S'spacing_anchors_slanted'
p2
I00
s."
HStem: -412 322<-511 -448>
VStem: -445 103<-335.528 -210.988>
AnchorPoint: "cedilla" -450 -162 mark 0
LayerCount: 3
Fore
SplineSet
-551 -162 m 0
 -551 -153 -531 -141 -509 -125 c 0
 -491 -112 -475 -90 -448 -90 c 0
 -436 -90 -342 -124 -342 -216 c 0
 -342 -353 -481 -412 -511 -412 c 0
 -524 -412 -531 -402 -531 -398 c 0
 -531 -377 -445 -368 -445 -284 c 0
 -445 -194 -551 -203 -551 -162 c 0
EndSplineSet
Validated: 1
EndChar

StartChar: uni0307
Encoding: 775 775 136
Width: 0
VWidth: 0
Flags: W
PickledData: "(dp1
S'spacing_anchors_slanted'
p2
I00
s."
HStem: 1102.84 220.32<-470.48 -363.689>
VStem: -511 182<1137.32 1283.36>
AnchorPoint: "top" -450 940 mark 0
LayerCount: 3
Fore
SplineSet
-511 1214.01953125 m 0
 -511 1233.40039062 -447 1323.16015625 -408 1323.16015625 c 0
 -367 1323.16015625 -329 1247.6796875 -329 1214.01953125 c 0
 -329 1171.1796875 -401 1102.83984375 -421 1102.83984375 c 0
 -452 1102.83984375 -511 1187.5 -511 1214.01953125 c 0
EndSplineSet
Validated: 1
EndChar

StartChar: uni030A
Encoding: 778 778 141
Width: 0
VWidth: 0
Flags: HW
PickledData: "(dp1
S'spacing_anchors_slanted'
p2
I00
s."
HStem: 1049 70<-494.437 -360.243> 1293 70<-481.486 -348.3>
VStem: -574.134 67.3945<1130.22 1266.73> -338.403 67.168<1144.49 1283.58>
AnchorPoint: "top" -450 940 mark 0
LayerCount: 3
Fore
SplineSet
-574.133789062 1188.76269531 m 0
 -574.133789062 1282.70703125 -483.484375 1363 -402 1363 c 0
 -303.01953125 1363 -271.235351562 1275.64648438 -271.235351562 1217.94628906 c 0
 -271.235351562 1100.00195312 -405.958984375 1049 -437 1049 c 0
 -554.079101562 1049 -574.133789062 1136.24609375 -574.133789062 1188.76269531 c 0
-506.739257812 1195.42675781 m 0
 -506.739257812 1150.13671875 -476.78515625 1119 -430 1119 c 0
 -409.215820312 1119 -338.403320312 1138.71777344 -338.403320312 1217.58691406 c 0
 -338.403320312 1249.78515625 -350.5078125 1293 -412 1293 c 0
 -447.456054688 1293 -506.739257812 1258.70703125 -506.739257812 1195.42675781 c 0
EndSplineSet
Validated: 1
EndChar

StartChar: ampersand
Encoding: 38 38 145
Width: 1519
VWidth: 0
Flags: HW
PickledData: "(dp1
S'spacing_anchors_slanted'
p2
I00
s."
HStem: -21 84<522.96 902.792> 354 54<889.597 998.783> 724 64<530.596 669.323> 866 108<404 471> 936 59<505.386 663.136> 1360 119<622.837 876.433> 1417 56<1336.75 1507.48>
VStem: 70 168<347.723 637.064> 380 67<956.334 1163.75> 393 100<901.508 927.485> 684 106<796.519 922.977> 753 105<423.254 629.81> 898 131<1191 1334.74> 1207 95<1257.07 1381.69> 1217 111<344.09 615.423> 1575 84<1134.64 1365.35>
LayerCount: 3
Fore
SplineSet
70 448 m 0xeb0b
 70 610 178 770 268 846 c 0
 342 909 393 913 393 938 c 0xeb4b
 393 952 380 975 380 1062 c 0
 380 1360 652 1479 810 1479 c 0
 873 1479 1029 1453 1029 1307 c 0
 1029 1241 1003 1163 895 1163 c 0
 876 1163 870 1169 870 1178 c 0
 870 1198 898 1234 898 1272 c 0
 898 1310 846 1360 772 1360 c 0
 540 1360 447 1152 447 1012 c 0
 447 980 459 974 471 974 c 0xf589
 502 974 551 995 619 995 c 0xe989
 733 995 790 926 790 858 c 0
 790 791 735 724 626 724 c 0
 475 724 431 866 404 866 c 0
 372 866 238 732 238 543 c 0
 238 324 400 63 728 63 c 0
 985 63 1217 265 1217 480 c 0xf1ab
 1217 591 1150 680 1032 680 c 0
 939 680 858 622 858 517 c 0
 858 439 915 408 943 408 c 0
 998 408 1000 452 1026 452 c 0
 1037 452 1040 443 1040 435 c 0
 1040 403 995 354 923 354 c 0
 802 354 753 485 753 546 c 0
 753 767 993 819 1254 936 c 0
 1456 1026 1575 1121 1575 1269 c 0
 1575 1333 1519 1417 1415 1417 c 0
 1383 1417 1302 1402 1302 1311 c 0
 1302 1247 1398 1256 1398 1218 c 0
 1398 1180 1379 1135 1302 1135 c 0
 1240 1135 1207 1193 1207 1264 c 0xeb1d
 1207 1389 1334 1473 1437 1473 c 0
 1556 1473 1659 1365 1659 1239 c 0
 1659 900 1204 799 1204 756 c 0
 1204 734 1328 712 1328 540 c 0
 1328 426 1284 302 1190 209 c 0
 1034 54 880 -21 636 -21 c 0
 321 -21 70 134 70 448 c 0xeb0b
493 881 m 0
 493 852 543 788 606 788 c 0
 646 788 684 820 684 859 c 0xe969
 684 922 610 936 580 936 c 0
 536 936 493 909 493 881 c 0
EndSplineSet
Validated: 1
EndChar

StartChar: dollar
Encoding: 36 36 146
Width: 1097
VWidth: 0
Flags: HW
PickledData: "(dp1
S'spacing_anchors_slanted'
p2
I00
s."
HStem: -27.538 51.1239<544.772 675.982> 1332 64<464.297 630.707> 1528 20G<654 696.903>
VStem: 226 106<971.094 1209.05> 418 113<-319.479 -58.0076> 550 88<646 834> 885 138<195.703 500.248>
LayerCount: 3
Fore
SplineSet
104 186 m 0
 104 205.252406744 141.907866406 344 174 344 c 0
 217.601123094 344 223.692293824 260.303565038 250 202 c 0
 297.503212435 96.7226102786 382.757935859 34.709763992 449.283629477 34.709763992 c 0
 467.09538851 34.709763992 472.39310133 43.3413613042 476 74 c 0
 508.658121517 351.594032895 550 632 550 646 c 0
 550 724.674976796 226 743.347939365 226 1025 c 0
 226 1286 438 1392 616 1396 c 0
 679 1397 620 1548 688 1548 c 0
 705.805063814 1548 740.30575997 1542.91045843 740.30575997 1510.71173959 c 0
 740.30575997 1471.96263073 718 1444.28469583 718 1400 c 0
 718 1386 763 1386 781 1381 c 0
 962 1327 1012 1240 1012 1216 c 0
 1012 1115 968 1093 957 1093 c 0
 936 1093 921 1140 895 1182 c 0
 858 1242 766 1320 720 1320 c 0
 702 1320 692 1277 690 1261 c 0
 658 959 638 895 638 834 c 0
 638 746.833385654 1023 769.167565646 1023 387 c 0
 1023 132.571004429 839.106740919 -27.5380224233 566.505430599 -27.5380224233 c 0
 548.167350076 -27.5380224233 532 -40 531 -50 c 0
 507.403320312 -249.94921875 515.877922549 -328 464 -328 c 0
 426 -328 418 -314 418 -292 c 0
 418 -241.090885898 459.42796374 -69.5564647767 459.42796374 -57.3183466854 c 0
 459.42796374 -34.7473817565 443.265967609 -34.8314685698 438 -34 c 0
 267 -7 104 105 104 186 c 0
332 1088 m 0
 332 1021 373 955 421 924 c 0
 484 883 543 847 554 847 c 0
 574 847 577 865 580 892 c 0
 631 1292 631 1298 631 1301 c 0
 631 1323 616 1332 590 1332 c 0
 540 1332 332 1298 332 1088 c 0
543.859447508 57.0407299291 m 0
 543.859447508 37.9472805805 554.267276491 23.5858829062 587.596376923 23.5858829062 c 0
 640.398590048 23.5858829062 885 91.0416350681 885 363 c 0
 885 561 657 636 648 636 c 0
 620.8 636 617.0021998 622.0131988 614 604 c 0
 598.691628249 512.149769495 543.859447508 83.7753334862 543.859447508 57.0407299291 c 0
EndSplineSet
Validated: 1
AlternateSubs2: "'aalt' Access All Alternates lookup 0 subtable" dollar.lining dollar.lining.sub dollar.lining.sup
AlternateSubs2: "'aalt' Access All Alternates in Latin lookup 0 subtable" dollar.lining dollar.lining.sub dollar.lining.sup
Substitution2: "lining_figures subtable" dollar.lining
Substitution2: "'subs' Subscript in Latin lookup 8 subtable" dollar.lining.sub
Substitution2: "'sups' Superscript in Latin lookup 7 subtable" dollar.lining.sup
EndChar

StartChar: one
Encoding: 49 49 147
Width: 696
VWidth: 0
Flags: W
PickledData: "(dp1
S'spacing_anchors_slanted'
p2
I00
s."
HStem: -8 62<68.398 191.219 426.783 585.309> 803 79<116.23 279.985 472.908 619.71>
VStem: 300 87<166 705>
LayerCount: 3
Fore
SplineSet
68 29 m 0
 68 38 74 54 120 54 c 0
 242 54 245 232 259 324 c 0
 285 493 300 692 300 705 c 0
 300 736 289 796 185 803 c 0
 165 804 114 818 114 854 c 0
 114 871 125 882 144 882 c 0
 175 882 205 866 252 866 c 0
 311 866 300 865 381 865 c 0
 470 865 520 876 572 876 c 0
 607 876 620 857 620 846 c 0
 620 812 575 810 550 810 c 0
 440 810 434 692 394 234 c 0
 392 214 387 190 387 166 c 0
 387 126 400 86 462 66 c 0
 478 61 586 61 586 19 c 0
 586 -2 573 -8 547 -8 c 0
 484 -8 417 7 328 7 c 0
 242 7 172 -8 116 -8 c 0
 83 -8 68 4 68 29 c 0
EndSplineSet
Validated: 1
AlternateSubs2: "'aalt' Access All Alternates lookup 0 subtable" one.lining one.lining.sub one.lining.sup one.lining.denom one.lining.numer
AlternateSubs2: "'aalt' Access All Alternates in Latin lookup 0 subtable" one.lining one.lining.sub one.lining.sup one.lining.denom one.lining.numer
Substitution2: "lining_figures subtable" one.lining
Substitution2: "'subs' Subscript in Latin lookup 8 subtable" one.lining.sub
Substitution2: "'sups' Superscript in Latin lookup 7 subtable" one.lining.sup
Substitution2: "denominators subtable" one.lining.denom
Substitution2: "numerators subtable" one.lining.numer
EndChar

StartChar: bracketleft
Encoding: 91 91 148
Width: 541
VWidth: 1000
Flags: W
PickledData: "(dp1
S'spacing_anchors_slanted'
p2
I00
s."
HStem: -418 93<210.003 440.695> 1479 84<396.622 646.714>
VStem: 110 100<-388.5 59.5124>
LayerCount: 3
Fore
SplineSet
110 -366 m 0
 110 -348 112 -325 115 -293 c 2
 128 -168 l 2
 162 158 236 762 279 1167 c 0
 301 1373 309 1477 313 1511 c 0
 318 1558 343 1563 412 1563 c 2
 494 1563 l 2
 594 1563 607 1564 620 1564 c 0
 636 1564 647 1548 647 1527 c 0
 647 1504 636 1480 619 1480 c 0
 584 1479 461 1479 443 1479 c 2
 412 1479 l 2
 391 1479 401 1477 366 1144 c 0
 330 800 210 -208 210 -291 c 0
 210 -309 214 -325 228 -325 c 0
 262 -325 383 -324 400 -324 c 0
 430 -324 442 -331 442 -356 c 0
 442 -414 407 -418 335 -418 c 2
 165 -418 l 2
 123 -418 110 -411 110 -366 c 0
EndSplineSet
Validated: 1
AlternateSubs2: "'aalt' Access All Alternates lookup 0 subtable" bracketleft.uppercase bracketleft.sub bracketleft.sup
AlternateSubs2: "'aalt' Access All Alternates in Latin lookup 0 subtable" bracketleft.uppercase bracketleft.sub bracketleft.sup
Substitution2: "'case' Case-Sensitive Forms in Latin lookup 10 subtable" bracketleft.uppercase
Substitution2: "'subs' Subscript in Latin lookup 8 subtable" bracketleft.sub
Substitution2: "'sups' Superscript in Latin lookup 7 subtable" bracketleft.sup
EndChar

StartChar: zero
Encoding: 48 48 149
Width: 1061
VWidth: 10
Flags: HW
PickledData: "(dp1
S'spacing_anchors_slanted'
p2
I00
s."
HStem: -52 102<306.725 648.017> 786 102<401.331 735.29>
VStem: 58 121<178.774 555.666> 874 114<277.121 644.413>
LayerCount: 3
Fore
SplineSet
58 349 m 0
 58 604 246 888 575 888 c 0
 799 888 988 723 988 476 c 0
 988 132 712 -52 461 -52 c 0
 251 -52 58 77 58 349 c 0
179 348 m 0
 179 145 316 50 468 50 c 0
 659 50 874 199 874 471 c 0
 874 682 729 786 572 786 c 0
 384 786 179 638 179 348 c 0
EndSplineSet
Validated: 1
AlternateSubs2: "'aalt' Access All Alternates lookup 0 subtable" zero.lining zero.lining.sub zero.lining.sup zero.lining.denom zero.lining.numer
AlternateSubs2: "'aalt' Access All Alternates in Latin lookup 0 subtable" zero.lining zero.lining.sub zero.lining.sup zero.lining.denom zero.lining.numer
Substitution2: "lining_figures subtable" zero.lining
Substitution2: "'subs' Subscript in Latin lookup 8 subtable" zero.lining.sub
Substitution2: "'sups' Superscript in Latin lookup 7 subtable" zero.lining.sup
Substitution2: "denominators subtable" zero.lining.denom
Substitution2: "numerators subtable" zero.lining.numer
EndChar

StartChar: two
Encoding: 50 50 150
Width: 958
VWidth: 0
Flags: W
PickledData: "(dp1
S'spacing_anchors_slanted'
p2
I00
s."
HStem: 0 122<378.023 770.872> 820 66<371.816 625.198>
VStem: 182 136<601.287 751.048> 723 164<549.002 750.314>
LayerCount: 3
Fore
SplineSet
66 23 m 0
 66 55 225 99 424 262 c 0
 610 414 723 552 723 648 c 0
 723 778 564 820 508 820 c 0
 416 820 318 802 318 724 c 0
 318 681 350 636 350 608 c 0
 350 596 339 582 320 582 c 0
 253 582 182 588 182 654 c 0
 182 709 277 886 558 886 c 0
 709 886 887 826 887 666 c 0
 887 448 378 192 378 140 c 0
 378 126 410 122 470 122 c 2
 605 122 l 2
 763 122 792 187 830 232 c 0
 842 246 857 256 864 256 c 0
 880 256 888 246 888 234 c 0
 888 215 859 203 808 84 c 0
 803 73 781 0 742 0 c 2
 440 0 l 2
 215 0 171 -5 115 -5 c 0
 79 -5 66 7 66 23 c 0
EndSplineSet
Validated: 1
AlternateSubs2: "'aalt' Access All Alternates lookup 0 subtable" two.lining two.lining.sub two.lining.sup two.lining.denom two.lining.numer
AlternateSubs2: "'aalt' Access All Alternates in Latin lookup 0 subtable" two.lining two.lining.sub two.lining.sup two.lining.denom two.lining.numer
Substitution2: "lining_figures subtable" two.lining
Substitution2: "'subs' Subscript in Latin lookup 8 subtable" two.lining.sub
Substitution2: "'sups' Superscript in Latin lookup 7 subtable" two.lining.sup
Substitution2: "denominators subtable" two.lining.denom
Substitution2: "numerators subtable" two.lining.numer
EndChar

StartChar: three
Encoding: 51 51 151
Width: 916
VWidth: 0
Flags: W
PickledData: "(dp1
S'spacing_anchors_slanted'
p2
I00
s."
HStem: -378 84<172.082 432.347> 818 74<332.802 584.082>
VStem: 665 137<568.702 751.428> 684 140<-41.1331 160.426>
LayerCount: 3
Fore
SplineSet
46 -238 m 0xd0
 46 -214 59 -193 86 -193 c 0
 107 -193 179 -294 310 -294 c 0
 519 -294 684 -87 684 42 c 0xd0
 684 172 549 268 430 268 c 0
 388 268 283 251 277 251 c 0
 257 251 251 263 251 277 c 0
 251 309 309 306 432 376 c 0
 558 447 665 538 665 646 c 0
 665 743 574 818 443 818 c 0
 331 818 293 753 252 753 c 0
 228 753 224 769 224 782 c 0
 224 826 399 892 530 892 c 0
 640 892 802 856 802 704 c 0xe0
 802 541 645 464 572 412 c 0
 514 370 504 369 504 360 c 0
 504 336 824 342 824 109 c 0
 824 -60 601 -378 193 -378 c 0
 81 -378 46 -369 46 -238 c 0xd0
EndSplineSet
Validated: 1
AlternateSubs2: "'aalt' Access All Alternates lookup 0 subtable" three.lining three.lining.sub three.lining.sup three.lining.denom three.lining.numer
AlternateSubs2: "'aalt' Access All Alternates in Latin lookup 0 subtable" three.lining three.lining.sub three.lining.sup three.lining.denom three.lining.numer
Substitution2: "lining_figures subtable" three.lining
Substitution2: "'subs' Subscript in Latin lookup 8 subtable" three.lining.sub
Substitution2: "'sups' Superscript in Latin lookup 7 subtable" three.lining.sup
Substitution2: "denominators subtable" three.lining.denom
Substitution2: "numerators subtable" three.lining.numer
EndChar

StartChar: four
Encoding: 52 52 152
Width: 1033
VWidth: 0
Flags: HW
PickledData: "(dp1
S'spacing_anchors_slanted'
p2
I00
s."
HStem: -388 21G<588 662> 0 106<228.023 601.713 754.013 949.345> 846 20G<830 857>
VStem: 34 194<19 150.5>
LayerCount: 3
Fore
SplineSet
34 28 m 0
 34 69 87 110 141 166 c 2
 719 764 l 2
 748 794 811 866 849 866 c 0
 865 866 876 857 876 832 c 0
 876 777 847 749 808 492 c 2
 790 376 l 2
 773 268 754 157 754 139 c 0
 754 116 772 106 809 106 c 0
 965 106 924 156 968 156 c 0
 979 156 990 150 990 132 c 0
 990 114 968 67 955 40 c 0
 943 16 921 0 890 0 c 0
 815 0 755 6 745 6 c 0
 719 6 729 -15 714 -169 c 0
 700 -316 712 -388 612 -388 c 0
 564 -388 548 -355 548 -338 c 0
 548 -310 602 -46 602 -28 c 0
 602 8 571 8 471 8 c 0
 233 8 213 -4 79 -4 c 0
 43 -4 34 10 34 28 c 0
228 142 m 0
 228 113 259 108 363 108 c 0
 411 108 476 110 527 110 c 0
 542 110 557 111 571 111 c 2
 582 111 l 2
 637 111 629 134 647 243 c 0
 663 341 700 576 700 608 c 0
 700 625 698 639 691 639 c 0
 675 639 643 600 623 580 c 0
 499 457 228 159 228 142 c 0
EndSplineSet
Validated: 1
AlternateSubs2: "'aalt' Access All Alternates lookup 0 subtable" four.lining four.lining.sub four.lining.sup four.lining.denom four.lining.numer
AlternateSubs2: "'aalt' Access All Alternates in Latin lookup 0 subtable" four.lining four.lining.sub four.lining.sup four.lining.denom four.lining.numer
Substitution2: "lining_figures subtable" four.lining
Substitution2: "'subs' Subscript in Latin lookup 8 subtable" four.lining.sub
Substitution2: "'sups' Superscript in Latin lookup 7 subtable" four.lining.sup
Substitution2: "denominators subtable" four.lining.denom
Substitution2: "numerators subtable" four.lining.numer
EndChar

StartChar: five
Encoding: 53 53 153
Width: 868
VWidth: 0
Flags: W
PickledData: "(dp1
S'spacing_anchors_slanted'
p2
I00
s."
HStem: -382 90<123.5 410.796> 739 133<338.157 803.053>
VStem: 194 120<465.5 616.953> 672 125<2.53633 284.988>
LayerCount: 3
Fore
SplineSet
22 -236 m 0
 22 -210 30 -188 56 -188 c 0
 103 -188 124 -292 303 -292 c 0
 454 -292 672 -142 672 120 c 0
 672 291 558 444 268 448 c 0
 220 449 194 445 194 486 c 0
 194 512 209 534 273 733 c 1
 306 828 l 1
 314 855 332 872 377 872 c 0
 416 872 435 861 571 861 c 0
 723 861 787 866 809 893 c 0
 820 906 842 947 863 947 c 0
 871 947 880 943 880 929 c 0
 880 904 860 890 810 795 c 0
 793 764 779 738 748 738 c 0
 622 738 535 737 475 737 c 0
 401 737 391 739 382 739 c 0
 368 739 346 734 339 700 c 0
 330 660 314 611 314 604 c 0
 314 536 564 607 720 424 c 0
 773 363 797 285 797 202 c 0
 797 61 726 -94 603 -214 c 0
 519 -296 394 -382 133 -382 c 0
 114 -382 85 -379 66 -358 c 0
 50 -340 22 -285 22 -236 c 0
EndSplineSet
Validated: 1
AlternateSubs2: "'aalt' Access All Alternates lookup 0 subtable" five.lining five.lining.sub five.lining.sup five.lining.denom five.lining.numer
AlternateSubs2: "'aalt' Access All Alternates in Latin lookup 0 subtable" five.lining five.lining.sub five.lining.sup five.lining.denom five.lining.numer
Substitution2: "lining_figures subtable" five.lining
Substitution2: "'subs' Subscript in Latin lookup 8 subtable" five.lining.sub
Substitution2: "'sups' Superscript in Latin lookup 7 subtable" five.lining.sup
Substitution2: "denominators subtable" five.lining.denom
Substitution2: "numerators subtable" five.lining.numer
EndChar

StartChar: six
Encoding: 54 54 154
Width: 1018
VWidth: 0
Flags: HW
PickledData: "(dp1
S'spacing_anchors_slanted'
p2
I00
s."
HStem: -26 64<411.518 633.15> 817 73<381.51 603.331> 1312 106<678.934 852.684>
VStem: 56 146<256.611 679.93> 786 153<262.039 623.084>
LayerCount: 3
Fore
SplineSet
56 504 m 0
 56 951 536 1418 854 1418 c 0
 877 1418 900 1405 900 1391 c 0
 900 1344 831 1372 704 1312 c 0
 492 1213 258 924 258 791 c 0
 258 784 261 781 265 781 c 0
 287 781 369 890 538 890 c 0
 812 890 939 689 939 476 c 0
 939 233 775 -26 475 -26 c 0
 143 -26 56 226 56 504 c 0
202 490 m 0
 202 197 368 38 523 38 c 0
 696 38 786 219 786 406 c 0
 786 608 682 817 466 817 c 0
 281 817 202 662 202 490 c 0
EndSplineSet
Validated: 1
AlternateSubs2: "'aalt' Access All Alternates lookup 0 subtable" six.lining six.lining.sub six.lining.sup six.lining.denom six.lining.numer
AlternateSubs2: "'aalt' Access All Alternates in Latin lookup 0 subtable" six.lining six.lining.sub six.lining.sup six.lining.denom six.lining.numer
Substitution2: "lining_figures subtable" six.lining
Substitution2: "'subs' Subscript in Latin lookup 8 subtable" six.lining.sub
Substitution2: "'sups' Superscript in Latin lookup 7 subtable" six.lining.sup
Substitution2: "denominators subtable" six.lining.denom
Substitution2: "numerators subtable" six.lining.numer
EndChar

StartChar: seven
Encoding: 55 55 155
Width: 1027
VWidth: 0
Flags: W
PickledData: "(dp1
S'spacing_anchors_slanted'
p2
I00
s."
HStem: 739 129<191.989 815.988> 880 20G<958.5 981>
VStem: 20 205<-332.877 -211.585> 108 79<645.014 724.769>
LayerCount: 3
Fore
SplineSet
20 -311 m 0xe0
 20 -289 37 -242 80 -190 c 0
 194 -50 344 153 501 338 c 0
 669 536 816 707 816 728 c 0
 816 737 799 739 768 739 c 0
 747 739 720 738 687 738 c 2
 526 738 l 2
 463 738 361 732 302 732 c 0
 191 732 198 709 187 685 c 0
 177 664 179 645 148 645 c 0
 119 645 108 658 108 679 c 0xd0
 108 709 130 756 149 803 c 0
 170 854 157 878 217 878 c 2
 251 878 l 2
 329 878 525 868 747 868 c 0
 791 868 835 868 880 869 c 0
 933 870 942 900 975 900 c 0
 987 900 996 894 996 876 c 0
 996 847 958 813 926 770 c 2
 755 532 l 1
 487 164 602 332 366 -22 c 0
 234 -220 225 -236 225 -276 c 2
 225 -286 l 2
 225 -330 185 -334 174 -334 c 0
 154 -334 115 -333 65 -333 c 0
 41 -333 20 -329 20 -311 c 0xe0
EndSplineSet
Validated: 1
AlternateSubs2: "'aalt' Access All Alternates lookup 0 subtable" seven.lining seven.lining.sub seven.lining.sup seven.lining.denom seven.lining.numer
AlternateSubs2: "'aalt' Access All Alternates in Latin lookup 0 subtable" seven.lining seven.lining.sub seven.lining.sup seven.lining.denom seven.lining.numer
Substitution2: "lining_figures subtable" seven.lining
Substitution2: "'subs' Subscript in Latin lookup 8 subtable" seven.lining.sub
Substitution2: "'sups' Superscript in Latin lookup 7 subtable" seven.lining.sup
Substitution2: "denominators subtable" seven.lining.denom
Substitution2: "numerators subtable" seven.lining.numer
EndChar

StartChar: eight
Encoding: 56 56 156
Width: 1072
VWidth: 0
Flags: HW
PickledData: "(dp1
S'spacing_anchors_slanted'
p2
I00
s."
HStem: -51 62<332.769 619.91> 696 108<492.619 587.296> 1350 59<435.101 713.646>
VStem: 49 122<149.789 481.23> 174 104<974.623 1204.54> 836 140<211.579 502.761> 866 108<950.097 1226.87>
LayerCount: 3
Fore
SplineSet
49 303 m 0xfc
 49 621 398 708 398 719 c 0
 398 731 174 842 174 1046 c 0
 174 1194 307 1409 591 1409 c 0
 781 1409 974 1317 974 1104 c 0xfa
 974 838 694 798 694 778 c 0
 694 760 976 670 976 400 c 0
 976 130 746 -51 462 -51 c 0
 216 -51 49 94 49 303 c 0xfc
171 323 m 0
 171 178 256 11 470 11 c 0
 549 11 602 19 696 83 c 0
 772 135 836 222 836 364 c 0xfc
 836 486 749 568 658 620 c 0
 616 644 469 696 459 696 c 0
 440 696 311 634 257 554 c 0
 228 510 171 415 171 323 c 0
278 1092 m 0
 278 889 607 804 628 804 c 0
 691 804 866 917 866 1095 c 0xfa
 866 1200 775 1350 579 1350 c 0
 423 1350 278 1266 278 1092 c 0
EndSplineSet
Validated: 1
AlternateSubs2: "'aalt' Access All Alternates lookup 0 subtable" eight.lining eight.lining.sub eight.lining.sup eight.lining.denom eight.lining.numer
AlternateSubs2: "'aalt' Access All Alternates in Latin lookup 0 subtable" eight.lining eight.lining.sub eight.lining.sup eight.lining.denom eight.lining.numer
Substitution2: "lining_figures subtable" eight.lining
Substitution2: "'subs' Subscript in Latin lookup 8 subtable" eight.lining.sub
Substitution2: "'sups' Superscript in Latin lookup 7 subtable" eight.lining.sup
Substitution2: "denominators subtable" eight.lining.denom
Substitution2: "numerators subtable" eight.lining.numer
EndChar

StartChar: nine
Encoding: 57 57 157
Width: 1026
VWidth: 0
Flags: HW
PickledData: "(dp1
S'spacing_anchors_slanted'
p2
I00
s."
HStem: -420 67<90.0609 289.852> -39 83<371.132 624.342> 820 68<363.266 591.634>
VStem: 46 145<244.106 577.033> 788 157<174.49 604.088>
LayerCount: 3
Fore
SplineSet
46 377 m 0
 46 588 213 888 519 888 c 0
 738 888 945 749 945 432 c 0
 945 235 877 69 786 -63 c 0
 690 -202 564 -297 429 -362 c 0
 333 -408 244 -420 156 -420 c 0
 92 -420 90 -401 90 -384 c 0
 90 -354 111 -353 131 -353 c 0
 393 -353 668 -59 668 2 c 0
 668 7 665 11 659 11 c 0
 623 11 565 -39 452 -39 c 0
 253 -39 46 72 46 377 c 0
191 443 m 0
 191 269 290 44 526 44 c 0
 744 44 788 239 788 390 c 0
 788 629 630 820 484 820 c 0
 310 820 191 638 191 443 c 0
EndSplineSet
Validated: 1
AlternateSubs2: "'aalt' Access All Alternates lookup 0 subtable" nine.lining nine.lining.sub nine.lining.sup nine.lining.denom nine.lining.numer
AlternateSubs2: "'aalt' Access All Alternates in Latin lookup 0 subtable" nine.lining nine.lining.sub nine.lining.sup nine.lining.denom nine.lining.numer
Substitution2: "lining_figures subtable" nine.lining
Substitution2: "'subs' Subscript in Latin lookup 8 subtable" nine.lining.sub
Substitution2: "'sups' Superscript in Latin lookup 7 subtable" nine.lining.sup
Substitution2: "denominators subtable" nine.lining.denom
Substitution2: "numerators subtable" nine.lining.numer
EndChar

StartChar: at
Encoding: 64 64 160
Width: 1681
VWidth: 1000
Flags: HW
PickledData: "(dp1
S'spacing_anchors_slanted'
p2
I00
s."
HStem: -131 75<642.025 1084.5> 228 115<604.842 781.873> 264 92<1083.13 1303.01> 933 66<803.866 1022.68> 1350 77<713.556 1166.85>
VStem: 90 123<353.786 867.41> 444 137<368.944 623.336> 1508 83<590.358 1031.53>
LayerCount: 3
Fore
SplineSet
90 586 m 0xbf
 90 1280 704 1427 949 1427 c 0
 1337 1427 1591 1146 1591 803 c 0
 1591 500 1369 264 1125 264 c 0xbf
 934 264 971 428 952 428 c 0
 933 428 819 228 635 228 c 0xdf
 499 228 444 313 444 427 c 0
 444 659 667 999 918 999 c 0
 983 999 1046 981 1064 981 c 0
 1095 981 1109 1063 1151 1063 c 0
 1167 1063 1168 1041 1168 1023 c 0
 1168 997 1066 655 1066 503 c 2
 1066 478 l 2
 1066 417 1090 356 1151 356 c 0
 1347 356 1508 503 1508 813 c 0
 1508 1163 1254 1350 951 1350 c 0
 547 1350 213 1058 213 609 c 0
 213 223 474 -56 866 -56 c 0
 1159 -56 1287 77 1312 77 c 0
 1322 77 1335 71 1335 53 c 0
 1335 16 1139 -131 830 -131 c 0
 405 -131 90 129 90 586 c 0xbf
581 465 m 0
 581 380 640 343 709 343 c 0xdf
 797 343 878 417 895 441 c 0
 917 473 923 488 946 576 c 0
 975 685 1028 886 1028 892 c 0
 1028 909 950 933 901 933 c 0
 791 933 581 767 581 465 c 0
EndSplineSet
Validated: 1
EndChar

StartChar: parenleft
Encoding: 40 40 161
Width: 617
VWidth: 1000
Flags: W
PickledData: "(dp1
S'spacing_anchors_slanted'
p2
I00
s."
VStem: 188 84<98.8103 759.025>
LayerCount: 3
Fore
SplineSet
188 424 m 0
 188 1118 669 1582 726 1582 c 0
 755 1582 761 1566 761 1547 c 0
 761 1468 357 1293 281 568 c 0
 275 509 272 453 272 400 c 0
 272 -124 552 -344 552 -398 c 0
 552 -421 523 -438 509 -438 c 0
 452 -438 188 -73 188 424 c 0
EndSplineSet
Validated: 1
AlternateSubs2: "'aalt' Access All Alternates lookup 0 subtable" parenleft.uppercase parenleft.sub parenleft.sup
AlternateSubs2: "'aalt' Access All Alternates in Latin lookup 0 subtable" parenleft.uppercase parenleft.sub parenleft.sup
Substitution2: "'case' Case-Sensitive Forms in Latin lookup 10 subtable" parenleft.uppercase
Substitution2: "'subs' Subscript in Latin lookup 8 subtable" parenleft.sub
Substitution2: "'sups' Superscript in Latin lookup 7 subtable" parenleft.sup
EndChar

StartChar: asterisk
Encoding: 42 42 162
Width: 883
VWidth: 0
Flags: W
PickledData: "(dp1
S'spacing_anchors_slanted'
p2
I00
s."
HStem: 822 191<345.664 381.997 499.002 537.121>
VStem: 376 129<578.011 821.991 1013.01 1257.08>
LayerCount: 3
Fore
SplineSet
120 784 m 0
 120 830 343 897 343 916 c 0
 343 939 120 1007 120 1051 c 0
 120 1070 146 1123 187 1123 c 0
 220 1123 355 1013 373 1013 c 0
 379 1013 382 1023 382 1052 c 0
 382 1095 376 1161 376 1214 c 0
 376 1249 389 1258 431 1258 c 0
 492 1258 505 1253 505 1184 c 0
 505 1147 498 1090 498 1050 c 0
 498 1022 500 1013 507 1013 c 0
 529 1013 671 1124 696 1124 c 0
 732 1124 763 1077 763 1053 c 0
 763 1011 540 939 540 918 c 0
 540 894 763 829 763 785 c 0
 763 764 736 712 694 712 c 0
 664 712 524 822 509 822 c 0
 501 822 499 811 499 782 c 0
 499 744 505 693 505 663 c 0
 505 586 500 577 433 577 c 0
 402 577 376 583 376 627 c 0
 376 663 382 728 382 775 c 0
 382 810 381 822 373 822 c 0
 355 822 211 712 186 712 c 0
 147 712 120 764 120 784 c 0
EndSplineSet
Validated: 1
EndChar

StartChar: plus
Encoding: 43 43 163
Width: 1080
VWidth: 1000
Flags: W
PickledData: "(dp1
S'spacing_anchors_slanted'
p2
I00
s."
HStem: -46 21G<525 556> 385 91<63.004 493 586.148 1015.99>
VStem: 493 93<-45.99 384.99 476 905.99>
LayerCount: 3
Fore
SplineSet
63 434 m 0
 63 460 64 476 101 476 c 2
 449 476 l 2
 488 476 493 492 493 515 c 2
 493 874 l 2
 493 905 507 906 536 906 c 0
 564 906 586 906 586 865 c 2
 586 530 l 2
 586 501 589 476 621 476 c 2
 983 476 l 2
 1016 476 1016 461 1016 433 c 0
 1016 399 1015 385 973 385 c 2
 621 385 l 2
 587 385 586 372 586 348 c 2
 586 -10 l 2
 586 -45 567 -46 545 -46 c 0
 505 -46 493 -46 493 -9 c 2
 493 348 l 2
 493 384 479 385 445 385 c 2
 99 385 l 2
 63 385 63 399 63 434 c 0
EndSplineSet
Validated: 1
EndChar

StartChar: slash
Encoding: 47 47 164
Width: 789
VWidth: 1000
Flags: W
PickledData: "(dp1
S'spacing_anchors_slanted'
p2
I00
s."
HStem: -375 21G<83 110.5>
VStem: 40 119<-373.859 -311>
LayerCount: 3
Fore
SplineSet
40 -348 m 0
 40 -329 62 -279 79 -232 c 2
 79 -232 703 1454 708 1469 c 0
 718 1499 731 1505 768 1505 c 0
 787 1505 811 1502 811 1481 c 0
 811 1462 792 1418 782 1391 c 2
 159 -311 l 2
 136 -374 126 -375 95 -375 c 0
 71 -375 40 -374 40 -348 c 0
EndSplineSet
Validated: 1
AlternateSubs2: "'aalt' Access All Alternates lookup 0 subtable" fraction
AlternateSubs2: "'aalt' Access All Alternates in Latin lookup 0 subtable" fraction
Substitution2: "numerators subtable" fraction
EndChar

StartChar: less
Encoding: 60 60 165
Width: 1080
VWidth: 1000
Flags: W
PickledData: "(dp1
S'spacing_anchors_slanted'
p2
I00
s."
HStem: 84 76<975 995.513> 697 83<965 996.515>
LayerCount: 3
Fore
SplineSet
83 433 m 0
 83 454 84 462 115 474 c 0
 949 778 946 780 959 780 c 0
 978 780 997 772 997 729 c 0
 997 710 981 702 965 697 c 2
 339 468 l 2
 300 453 253 436 253 426 c 0
 253 416 299 404 339 390 c 2
 975 160 l 2
 988 155 997 147 997 133 c 0
 997 117 986 84 949 84 c 0
 936 84 942 84 113 386 c 0
 84 396 83 405 83 433 c 0
EndSplineSet
Validated: 1
EndChar

StartChar: equal
Encoding: 61 61 166
Width: 1080
VWidth: 1000
Flags: HW
PickledData: "(dp1
S'spacing_anchors_slanted'
p2
I00
s."
HStem: 185 91<63.004 1015.99> 585 91<63.004 1015.99>
LayerCount: 3
Fore
SplineSet
63 234 m 0
 63 260 64 276 101 276 c 2
 983 276 l 2
 1016 276 1016 261 1016 233 c 0
 1016 199 1015 185 973 185 c 2
 99 185 l 2
 63 185 63 199 63 234 c 0
63 634 m 0
 63 660 64 676 101 676 c 2
 983 676 l 2
 1016 676 1016 661 1016 633 c 0
 1016 599 1015 585 973 585 c 2
 99 585 l 2
 63 585 63 599 63 634 c 0
EndSplineSet
Validated: 1
EndChar

StartChar: greater
Encoding: 62 62 167
Width: 1080
VWidth: 1000
Flags: W
PickledData: "(dp1
S'spacing_anchors_slanted'
p2
I00
s."
HStem: 84 76<84.4873 105> 697 83<83.4853 115>
LayerCount: 3
Fore
SplineSet
83 133 m 0
 83 147 92 155 105 160 c 2
 741 390 l 2
 781 404 827 416 827 426 c 0
 827 436 780 453 741 468 c 2
 115 697 l 2
 99 702 83 710 83 729 c 0
 83 772 102 780 121 780 c 0
 134 780 131 778 965 474 c 0
 996 462 997 454 997 433 c 0
 997 405 996 396 967 386 c 0
 138 84 144 84 131 84 c 0
 94 84 83 117 83 133 c 0
EndSplineSet
Validated: 1
EndChar

StartChar: parenright
Encoding: 41 41 168
Width: 617
VWidth: 1000
Flags: W
PickledData: "(dp1
S'spacing_anchors_slanted'
p2
I00
s."
VStem: 466 84<384.975 1045.19>
LayerCount: 3
Fore
SplineSet
-23 -403 m 0
 -23 -324 381 -149 457 576 c 0
 463 635 466 691 466 744 c 0
 466 1268 186 1488 186 1542 c 0
 186 1565 215 1582 229 1582 c 0
 286 1582 550 1217 550 720 c 0
 550 26 69 -438 12 -438 c 0
 -17 -438 -23 -422 -23 -403 c 0
EndSplineSet
Validated: 1
AlternateSubs2: "'aalt' Access All Alternates lookup 0 subtable" parenright.uppercase parenright.sub parenright.sup
AlternateSubs2: "'aalt' Access All Alternates in Latin lookup 0 subtable" parenright.uppercase parenright.sub parenright.sup
Substitution2: "'case' Case-Sensitive Forms in Latin lookup 10 subtable" parenright.uppercase
Substitution2: "'subs' Subscript in Latin lookup 8 subtable" parenright.sub
Substitution2: "'sups' Superscript in Latin lookup 7 subtable" parenright.sup
EndChar

StartChar: numbersign
Encoding: 35 35 169
Width: 1092
VWidth: 1000
Flags: HW
PickledData: "(dp1
S'spacing_anchors_slanted'
p2
I00
s."
HStem: 248 86<120.002 309.996 412.445 627.678 730.208 971.99> 624 86<120.01 361.996 466.003 680 784.001 971.865>
VStem: 262 84<-135.924 170.446> 362 50<435.182 528.228> 434 86<811.298 1126.98> 582 132<-90.625 225.473> 680 50<346 614> 756 80<862.955 1126.98>
LayerCount: 3
Fore
SplineSet
120 284 m 0xfd
 120 286 120 288 120 290 c 0
 120 319 121 334 150 334 c 2
 318 334 l 2
 322 334 324 334 324 338 c 0
 337 430 362 604 362 614 c 0
 362 622 356 624 348 624 c 2
 154 624 l 2
 133 624 120 630 120 666 c 0
 120 695 127 710 154 710 c 2
 362 710 l 2
 375 710 379 716 380 726 c 0
 434 1106 428 1102 434 1112 c 0
 443 1125 452 1127 480 1127 c 0
 495 1127 520 1125 520 1102 c 0
 520 1089 466 732 466 720 c 0
 466 712 470 710 480 710 c 2
 680 710 l 2
 688 710 696 711 698 724 c 0
 752 1104 750 1106 756 1114 c 0
 765 1127 778 1127 802 1127 c 0
 818 1127 836 1126 836 1106 c 0
 836 1087 784 739 784 720 c 0
 784 714 786 710 794 710 c 2
 936 710 l 2
 965 710 972 695 972 660 c 0
 972 629 961 624 942 624 c 2
 776 624 l 2
 768 624 768 618 766 612 c 1
 754 524 730 354 730 346 c 0xfb
 730 338 734 334 744 334 c 2
 938 334 l 2
 959 334 972 328 972 292 c 0
 972 261 965 248 938 248 c 2
 738 248 l 2
 719 248 716 239 714 227 c 0
 663 -136 678 -136 620 -136 c 0
 591 -136 582 -124 582 -109 c 0
 582 -96 628 226 628 236 c 0
 628 246 622 248 614 248 c 2
 480 248 l 2
 401 248 398 245 396 232 c 0
 348 -118 349 -113 346 -119 c 0
 338 -132 327 -136 298 -136 c 0
 279 -136 262 -130 262 -109 c 0
 262 -97 310 224 310 234 c 0
 310 244 304 248 292 248 c 2
 150 248 l 2
 123 248 120 263 120 284 c 0xfd
412 344 m 0
 412 336 418 334 428 334 c 2
 622 334 l 2
 630 334 642 334 644 349 c 0
 671 543 680 597 680 614 c 0
 680 620 680 624 668 624 c 2
 466 624 l 2
 453 624 450 619 448 611 c 0
 436 523 412 354 412 344 c 0
EndSplineSet
Validated: 1
EndChar

StartChar: percent
Encoding: 37 37 170
Width: 1578
VWidth: 1000
Flags: HW
PickledData: "(dp1
S'spacing_anchors_slanted'
p2
I00
s."
HStem: -159 64<994.008 1137.38> 450 56<327.945 466.701> 536 64<1081.24 1233.68> 992 48<754.229 939.619> 1122 60<417.793 564.311>
VStem: 120 148<555.051 898.288> 609 129<715.521 1012> 790 146<-46.7805 333.901> 1282 136<134.111 500.132>
LayerCount: 3
Fore
SplineSet
120 705 m 0
 120 904 283 1182 529 1182 c 0
 682 1182 708 1040 836 1040 c 0
 1002 1040 1206 1250 1268 1306 c 0
 1281 1318 1294 1323 1304 1323 c 0
 1318 1323 1323 1315 1323 1305 c 0
 1323 1291 1313 1271 1306 1261 c 0
 341 -180 376 -175 352 -183 c 0
 345 -185 338 -187 331 -187 c 0
 296 -187 265 -159 265 -137 c 0
 265 -108 283 -87 347 6 c 2
 685 492 l 2
 947.607421875 868.568359375 1098 1057 1098 1074 c 0
 1098 1080 1095 1081 1090 1081 c 0
 1075 1081 963 992 839 992 c 0
 789 992 748 1012 740 1012 c 0
 738 1012 738 1011 738 1009 c 0
 738 1004 741 992 741 971 c 0
 741 821 721 741 636 615 c 0
 589 545 508 450 346 450 c 0
 273 450 120 524 120 705 c 0
268 746 m 0
 268 596 314 506 391 506 c 0
 532 506 609 745 609 934 c 0
 609 1041 570 1122 511 1122 c 0
 347 1122 268 921 268 746 c 0
790 131 m 0
 790 345 941 600 1197 600 c 0
 1353 600 1418 487 1418 348 c 0
 1418 127 1255 -159 1039 -159 c 0
 872 -159 790 -25 790 131 c 0
936 150 m 0
 936 0 982 -95 1059 -95 c 0
 1190 -95 1282 149 1282 338 c 0
 1282 445 1238 536 1179 536 c 0
 1015 536 936 325 936 150 c 0
EndSplineSet
Validated: 1
EndChar

StartChar: backslash
Encoding: 92 92 171
Width: 789
VWidth: 1000
Flags: W
PickledData: "(dp1
S'spacing_anchors_slanted'
p2
I00
s."
HStem: -375 21G<734.5 755.5>
VStem: 692 119<-374.095 -311>
LayerCount: 3
Fore
SplineSet
40 1481 m 0
 40 1502 64 1505 83 1505 c 0
 120 1505 133 1499 143 1469 c 0
 148 1454 772 -232 772 -232 c 2
 789 -279 811 -323 811 -342 c 0
 811 -374 767 -375 744 -375 c 0
 725 -375 714 -370 692 -311 c 2
 69 1391 l 2
 59 1418 40 1462 40 1481 c 0
EndSplineSet
Validated: 1
EndChar

StartChar: bracketright
Encoding: 93 93 172
Width: 541
VWidth: 1000
Flags: W
PickledData: "(dp1
S'spacing_anchors_slanted'
p2
I00
s."
HStem: -417 84<15.2859 265.378> 1471 93<221.536 497>
VStem: 452 100<1086.49 1534.5>
LayerCount: 3
Fore
SplineSet
15 -381 m 0
 15 -358 26 -334 43 -334 c 0
 77 -333 191 -333 240 -333 c 2
 250 -333 l 2
 271 -333 261 -331 296 2 c 0
 332 346 452 1354 452 1437 c 0
 452 1455 448 1471 434 1471 c 0
 400 1471 279 1470 262 1470 c 0
 232 1470 220 1477 220 1502 c 0
 220 1529 230 1559 258 1560 c 0
 354 1563 282 1564 497 1564 c 0
 539 1564 552 1557 552 1512 c 0
 552 1494 550 1471 547 1439 c 2
 534 1314 l 2
 500 988 426 384 383 -21 c 0
 361 -227 353 -331 349 -365 c 0
 344 -412 319 -417 250 -417 c 2
 168 -417 l 2
 68 -417 55 -418 42 -418 c 0
 26 -418 15 -402 15 -381 c 0
EndSplineSet
Validated: 1
AlternateSubs2: "'aalt' Access All Alternates lookup 0 subtable" bracketright.uppercase bracketright.sub bracketright.sup
AlternateSubs2: "'aalt' Access All Alternates in Latin lookup 0 subtable" bracketright.uppercase bracketright.sub bracketright.sup
Substitution2: "'case' Case-Sensitive Forms in Latin lookup 10 subtable" bracketright.uppercase
Substitution2: "'subs' Subscript in Latin lookup 8 subtable" bracketright.sub
Substitution2: "'sups' Superscript in Latin lookup 7 subtable" bracketright.sup
EndChar

StartChar: asciicircum
Encoding: 94 94 173
Width: 681
VWidth: 1000
Flags: W
PickledData: "(dp1
S'spacing_anchors_slanted'
p2
I00
s."
HStem: 958 110<295.338 368.873>
VStem: 60 541<662 684>
LayerCount: 3
Fore
SplineSet
60 677 m 0
 60 687 77 716 85 729 c 0
 263 1028 277 1068 332 1068 c 0
 389 1068 401 1026 578 729 c 0
 586 716 601 684 601 674 c 0
 601 660 583 657 564 657 c 0
 552 657 541 658 533 658 c 0
 499 658 487 696 471 726 c 0
 378 896 351 958 332 958 c 0
 312 958 286 896 193 726 c 0
 177 696 163 660 129 660 c 0
 122 660 112 659 101 659 c 0
 81 659 60 662 60 677 c 0
EndSplineSet
Validated: 1
EndChar

StartChar: underscore
Encoding: 95 95 174
Width: 437
VWidth: 1000
Flags: W
PickledData: "(dp1
S'spacing_anchors_slanted'
p2
I00
s."
HStem: -126 91<0.0039978 436.992>
VStem: 0 437<-126 -35>
LayerCount: 3
Fore
SplineSet
0 -77 m 0
 0 -51 1 -35 38 -35 c 2
 404 -35 l 2
 437 -35 437 -50 437 -78 c 0
 437 -112 436 -126 394 -126 c 2
 36 -126 l 2
 0 -126 0 -112 0 -77 c 0
EndSplineSet
Validated: 1
EndChar

StartChar: braceleft
Encoding: 123 123 175
Width: 516
VWidth: 1000
Flags: W
PickledData: "(dp1
S'spacing_anchors_slanted'
p2
I00
s."
HStem: -381 31G<116 141.5 399 411> 1402 122<397 559.712>
LayerCount: 3
Fore
SplineSet
101 -359 m 0
 101 -330 189 395 189 427 c 0
 189 492 135 489 135 538 c 0
 135 612 210 588 217 658 c 0
 245 922 268 1206 299 1503 c 0
 302 1533 322 1541 337 1541 c 0
 375 1541 407 1524 454 1524 c 0
 523 1524 550 1535 583 1535 c 0
 595 1535 615 1532 615 1517 c 0
 615 1448 473 1402 413 1402 c 0
 405 1402 398 1393 397 1384 c 16
 294 490 229 -213 229 -217 c 0
 229 -237 307 -233 364 -268 c 0
 376 -276 421 -309 421 -347 c 0
 421 -358 418 -371 404 -371 c 0
 394 -371 343 -352 267 -352 c 0
 167 -352 161 -381 122 -381 c 0
 110 -381 101 -372 101 -359 c 0
EndSplineSet
Validated: 1
AlternateSubs2: "'aalt' Access All Alternates lookup 0 subtable" braceleft.uppercase
AlternateSubs2: "'aalt' Access All Alternates in Latin lookup 0 subtable" braceleft.uppercase
Substitution2: "'case' Case-Sensitive Forms in Latin lookup 10 subtable" braceleft.uppercase
EndChar

StartChar: bar
Encoding: 124 124 176
Width: 428
VWidth: 1000
Flags: W
PickledData: "(dp1
S'spacing_anchors_slanted'
p2
I00
s."
VStem: 160 102<-427.004 1559.57>
LayerCount: 3
Fore
SplineSet
160 -178 m 2
 160 148 172 762 172 1167 c 0
 172 1373 169 1477 169 1511 c 0
 169 1546 184 1561 222 1561 c 0
 260 1561 266 1545 266 1510 c 0
 266 1497 265 1481 265 1462 c 0
 265 1430 268 1335 268 1144 c 0
 268 822 259 327 259 20 c 0
 259 -65 259 -178 261 -280 c 0
 261 -290 262 -311 262 -334 c 2
 262 -350 l 2
 262 -389 261 -428 228 -428 c 0
 166 -428 160 -416 160 -303 c 2
 160 -178 l 2
EndSplineSet
Validated: 1
EndChar

StartChar: braceright
Encoding: 125 125 177
Width: 516
VWidth: 1000
Flags: W
PickledData: "(dp1
S'spacing_anchors_slanted'
p2
I00
s."
HStem: -371 11G<29.5 40 295.5 336.5> 1402 133<260.575 410.388> 1521 20G<485 511>
VStem: 411 27<594 678>
LayerCount: 3
Fore
SplineSet
22 -356 m 0xb0
 22 -321 67 -285 97 -268 c 0
 162 -233 241 -237 243 -216 c 0
 329 585 253 -217 411 1386 c 0
 411 1394 406 1402 399 1402 c 0
 350 1402 220 1438 220 1509 c 0
 220 1525 229 1535 257 1535 c 0xd0
 290 1535 314 1524 383 1524 c 0
 430 1524 466 1541 504 1541 c 0
 518 1541 534 1534 534 1509 c 0
 534 1474 438 678 438 649 c 0
 438 594 497 609 497 556 c 0
 497 487 425 500 416 413 c 0
 333 -359 358 -381 315 -381 c 0
 276 -381 276 -352 176 -352 c 0
 100 -352 45 -371 35 -371 c 0
 24 -371 22 -363 22 -356 c 0xb0
EndSplineSet
Validated: 1
AlternateSubs2: "'aalt' Access All Alternates lookup 0 subtable" braceright.uppercase
AlternateSubs2: "'aalt' Access All Alternates in Latin lookup 0 subtable" braceright.uppercase
Substitution2: "'case' Case-Sensitive Forms in Latin lookup 10 subtable" braceright.uppercase
EndChar

StartChar: asciitilde
Encoding: 126 126 178
Width: 779
VWidth: 1000
Flags: W
PickledData: "(dp1
S'spacing_anchors_slanted'
p2
I00
s."
HStem: 336 114<397.714 599.539> 430 112<173.32 350.283>
VStem: 60 659
LayerCount: 3
Fore
SplineSet
60 353 m 0x60
 60 360 160 542 274 542 c 0x60
 368 542 420 450 514 450 c 0
 612 450 655 551 678 551 c 0
 704 551 719 536 719 520 c 0
 719 509 613 336 479 336 c 0xa0
 370 336 334 430 248 430 c 0
 154 430 118 320 100 320 c 0
 74 320 60 328 60 353 c 0x60
EndSplineSet
Validated: 1
EndChar

StartChar: minus
Encoding: 8722 8722 179
Width: 1080
VWidth: 1000
Flags: W
PickledData: "(dp1
S'spacing_anchors_slanted'
p2
I00
s."
HStem: 385 91<63.004 1015.99>
LayerCount: 3
Fore
SplineSet
63 434 m 0
 63 460 64 476 101 476 c 2
 983 476 l 2
 1016 476 1016 461 1016 433 c 0
 1016 399 1015 385 973 385 c 2
 99 385 l 2
 63 385 63 399 63 434 c 0
EndSplineSet
Validated: 1
EndChar

StartChar: Euro
Encoding: 8364 8364 180
Width: 1257
VWidth: 1000
Flags: W
PickledData: "(dp1
S'spacing_anchors_slanted'
p2
I00
s."
HStem: 20 96<545.69 926.138> 417 99<87 199 317 901> 595 97<80 199 317 976> 993 96<542.764 924.582>
VStem: 199 97<516 595>
LayerCount: 3
Fore
SplineSet
40 595 m 1
 80 692 l 1
 215 692 l 1
 305 999 573 1089 720 1089 c 0
 878 1089 995 1044 1117 929 c 1
 1090 862 1072 828 1072 828 c 1
 1051 862 936 993 730 993 c 0
 592 993 400 921 317 692 c 1
 1016 692 l 1
 976 595 l 1
 296 595 l 1
 296 587 295 574 295 556 c 0
 295 537 296 524 296 516 c 1
 943 516 l 1
 901 417 l 1
 317 417 l 1
 389 203 588 116 727 116 c 0
 951 116 1066 266 1071 271 c 1
 1077 270 l 1
 1077 145 l 1
 981 68 871 20 733 20 c 0
 555 20 309 111 215 417 c 1
 47 417 l 1
 87 516 l 1
 199 516 l 1
 199 595 l 1
 40 595 l 1
EndSplineSet
Validated: 1
EndChar

StartChar: germandbls
Encoding: 223 223 246
Width: 1079
VWidth: 0
Flags: W
PickledData: "(dp1
S'spacing_anchors_slanted'
p2
I00
s."
HStem: -387 85<18.5 147.664> -29 66<626.051 817.652> 1430 86<610.74 808.675>
VStem: -39 86<-293.178 -209.659> 571 115<660.409 815.826> 868 124<103.469 297.949 1128.56 1372.21>
LayerCount: 3
Fore
SplineSet
-39 -339 m 0
 -39 -322 -19 -200 22 -200 c 0
 33 -200 44 -208 47 -228 c 0
 55 -277 98 -302 109 -302 c 0
 171 -302 169 -129 224 260 c 0
 317 919 324 1131 482 1353 c 0
 554 1454 657 1516 741 1516 c 0
 810 1516 990 1472 990 1280 c 0
 990 1032 686 926 686 769 c 0
 686 711 736 641 851 515 c 0
 915 444 992 377 992 239 c 0
 992 165 935 -29 673 -29 c 0
 594 -29 444 -3 444 105 c 0
 444 168 486 179 510 179 c 0
 614 179 580 37 704 37 c 0
 853 37 868 144 868 169 c 0
 868 266 800 334 727 408 c 0
 614 524 571 614 571 685 c 0
 571 886 866 984 866 1240 c 0
 866 1354 794 1430 710 1430 c 0
 579 1430 547 1312 535 1280 c 0
 474 1121 432 871 429 851 c 0
 371 401 347 -39 294 -168 c 0
 215 -361 78 -387 36 -387 c 0
 1 -387 -39 -372 -39 -339 c 0
EndSplineSet
Validated: 1
EndChar

StartChar: section
Encoding: 167 167 247
Width: 1026
VWidth: 1000
Flags: HW
PickledData: "(dp1
S'spacing_anchors_slanted'
p2
I00
s."
HStem: -370 92<339.813 660.889> 1398 77<483.082 774.5> 1414 20G<935.5 948.5>
VStem: 115 65<-50.1059 80.9746> 166 124<507.602 703.769> 251 126<1089.07 1265.73> 799 113<-130.922 56.3147> 866 115<432.537 648.372>
LayerCount: 3
Fore
SplineSet
115 25 m 0xd2
 115 46 121 81 148 81 c 0
 162 81 176 71 180 57 c 0xd2
 185 38 240 -278 479 -278 c 0
 669 -278 799 -162 799 -34 c 0
 799 189 166 165 166 529 c 0xca
 166 785 394 856 394 872 c 0
 394 896 251 929 251 1097 c 0
 251 1292 417 1475 656 1475 c 0xc4
 810 1475 850 1419 896 1419 c 0
 904 1419 928 1434 943 1434 c 0
 954 1434 974 1429 974 1414 c 0xa4
 977 1333 984 1207 984 1155 c 0
 984 1116 975 1078 953 1078 c 0
 890 1078 949 1262 774 1362 c 0
 735 1384 685 1398 618 1398 c 0
 452 1398 377 1264 377 1182 c 0
 377 942 981 1006 981 627 c 0xc5
 981 373 801 283 801 268 c 0
 801 251 866 244 899 134 c 0
 908 103 912 71 912 43 c 0
 912 -132 768 -370 454 -370 c 0
 353 -370 280 -361 165 -292 c 0
 127 -269 115 -24 115 25 c 0xd2
290 612 m 0x89
 290 559 317 506 383 461 c 0
 440 421 713 313 723 313 c 0
 756 313 866 424 866 539 c 0
 866 684 691 746 609 780 c 0
 557 802 491 828 479 828 c 0
 453 828 290 749 290 612 c 0x89
EndSplineSet
Validated: 1
EndChar

StartChar: multiply
Encoding: 215 215 248
Width: 1080
VWidth: 1000
Flags: W
PickledData: "(dp1
S'spacing_anchors_slanted'
p2
I00
s."
HStem: 354 155<485.938 593.562>
VStem: 462 153<379.703 483.234>
LayerCount: 3
Fore
SplineSet
181 734 m 0
 181 748 218 786 237 786 c 0
 245 786 255 781 266 770 c 2
 503 534 l 2
 516 521 529 509 543 509 c 0
 550 509 558 512 566 520 c 2
 822 776 l 2
 831 785 838 789 845 789 c 0
 860 789 898 752 898 736 c 0
 898 728 892 718 879 705 c 2
 630 456 l 2
 619 445 615 437 615 430 c 0
 615 421 622 414 631 405 c 2
 885 152 l 2
 895 142 898 133 898 126 c 0
 898 109 858 71 844 71 c 0
 837 71 829 76 818 87 c 2
 566 339 l 2
 555 350 547 354 539 354 c 0
 529 354 519 345 505 331 c 2
 261 87 l 2
 251 77 242 72 235 72 c 0
 220 72 182 109 182 125 c 0
 182 133 187 141 198 152 c 2
 444 399 l 2
 457 412 462 422 462 431 c 0
 462 441 457 448 448 457 c 2
 194 711 l 2
 185 720 181 727 181 734 c 0
EndSplineSet
Validated: 1
EndChar

StartChar: plusminus
Encoding: 177 177 249
Width: 1080
VWidth: 1000
Flags: HW
PickledData: "(dp1
S'spacing_anchors_slanted'
p2
I00
s."
HStem: 149 91<63.0917 1015.98> 616 93<63.0052 492.999 584 1015.85>
VStem: 493 91<282.18 616 709 1043.85>
LayerCount: 3
Fore
SplineSet
63 184 m 0
 63 221 64 240 101 240 c 2
 979 240 l 2
 1009 240 1016 228 1016 198 c 0
 1016 168 1014 149 973 149 c 2
 99 149 l 2
 77 149 63 154 63 184 c 0
63 663 m 0
 63 688 70 709 101 709 c 2
 472 709 l 2
 491 709 494 718 494 730 c 0
 494 736 493 742 493 748 c 2
 493 1013 l 2
 493 1036 507 1044 526 1044 c 0
 576 1044 584 1039 584 1010 c 2
 584 748 l 2
 584 742 584 737 584 732 c 0
 584 719 587 709 608 709 c 2
 984 709 l 2
 1003 709 1016 703 1016 677 c 0
 1016 636 1016 616 973 616 c 2
 608 616 l 2
 587 616 584 603 584 582 c 2
 584 311 l 2
 584 285 572 282 551 282 c 0
 507 282 493 286 493 312 c 2
 493 582 l 2
 493 609 490 616 460 616 c 2
 99 616 l 2
 64 616 63 632 63 663 c 0
EndSplineSet
Validated: 1
EndChar

StartChar: divide
Encoding: 247 247 250
Width: 1080
VWidth: 1000
Flags: HW
PickledData: "(dp1
S'spacing_anchors_slanted'
p2
I00
s."
HStem: 123 165<454.985 602.551> 385 91<63.004 1015.99> 574 165<444.681 592.783>
VStem: 445 168<133.528 277.291 590.442 723.393>
LayerCount: 3
Fore
SplineSet
63 434 m 0
 63 460 64 476 101 476 c 2
 983 476 l 2
 1016 476 1016 461 1016 433 c 0
 1016 399 1015 385 973 385 c 2
 99 385 l 2
 63 385 63 399 63 434 c 0
434 655 m 0
 434 701 474 739 520 739 c 0
 566 739 603 702 603 657 c 0
 603 611 565 574 519 574 c 0
 473 574 434 609 434 655 c 0
445 206 m 0
 445 252 482 288 528 288 c 0
 574 288 613 250 613 204 c 0
 613 158 576 123 530 123 c 0
 485 123 445 158 445 206 c 0
EndSplineSet
Validated: 1
EndChar

StartChar: guillemotleft
Encoding: 171 171 251
Width: 683
VWidth: 1000
Flags: HW
PickledData: "(dp1
S'spacing_anchors_slanted'
p2
I00
s."
HStem: 172 542
VStem: 83 143<391.888 486.099> 335 142<392.119 487.224>
LayerCount: 3
Fore
SplineSet
83 441 m 0
 83 453 93 459 98 464 c 0
 396 714 394 714 403 714 c 0
 416 714 429 691 429 678 c 0
 429 653 226 464 226 444 c 0
 226 417 378 237 378 210 c 0
 378 198 358 172 344 172 c 0
 335 172 337 173 92 426 c 0
 87 430 83 434 83 441 c 0
335 441 m 0
 335 455 347 462 349 464 c 0
 647 714 644 714 655 714 c 0
 668 714 681 691 681 678 c 0
 681 654 477 468 477 445 c 0
 477 420 628 230 628 209 c 0
 628 202 613 172 596 172 c 0
 585 172 589 173 344 426 c 0
 339 430 335 434 335 441 c 0
EndSplineSet
Validated: 1
EndChar

StartChar: guillemotright
Encoding: 187 187 252
Width: 683
VWidth: 1000
Flags: HW
PickledData: "(dp1
S'spacing_anchors_slanted'
p2
I00
s."
HStem: 172 542
VStem: 300 141<398.923 493.881> 550 143<399.901 495.402>
LayerCount: 3
Fore
SplineSet
95 208 m 0
 95 232 300 428 300 441 c 0
 300 466 148 656 148 677 c 0
 148 684 163 714 180 714 c 0
 191 714 187 713 432 460 c 0
 437 456 441 452 441 445 c 0
 441 433 433 427 426 422 c 0
 128 172 133 172 122 172 c 0
 108 172 95 195 95 208 c 0
347 208 m 0
 347 233 550 422 550 442 c 0
 550 469 398 664 398 677 c 0
 398 692 418 714 432 714 c 0
 441 714 439 713 684 460 c 0
 689 456 693 452 693 445 c 0
 693 433 683 427 678 422 c 0
 380 172 383 172 374 172 c 0
 360 172 347 195 347 208 c 0
EndSplineSet
Validated: 1
EndChar

StartChar: guilsinglleft
Encoding: 8249 8249 253
Width: 430
VWidth: 1000
Flags: W
PickledData: "(dp1
S'spacing_anchors_slanted'
p2
I00
s."
HStem: 172 542
VStem: 82.8713 143.087<392.034 486.257>
LayerCount: 3
Fore
SplineSet
82.8712907082 440.975902699 m 0
 82.8712907082 452.715202562 93 459 98 464 c 0
 396 714 394 714 403 714 c 0
 416 714 429.054178867 691.712023458 429.054178867 678.458622797 c 0
 429.054178867 653.385760798 225.957810419 464.327019223 225.957810419 444.279574939 c 0
 225.957810419 417.732608173 378.042189581 236.267391827 378.042189581 209.720425061 c 0
 378.042189581 197.274833265 358 172 344 172 c 0
 335 172 337 173 92 426 c 0
 87 430 82.8712907082 434.136300767 82.8712907082 440.975902699 c 0
EndSplineSet
Validated: 1
EndChar

StartChar: guilsinglright
Encoding: 8250 8250 254
Width: 430
VWidth: 1000
Flags: W
PickledData: "(dp1
S'spacing_anchors_slanted'
p2
I00
s."
HStem: 172 542
VStem: 298 143<399.901 494.112>
LayerCount: 3
Fore
SplineSet
95 208 m 0
 95 233 298 422 298 442 c 0
 298 469 146 649 146 676 c 0
 146 688 166 714 180 714 c 0
 189 714 187 713 432 460 c 0
 437 456 441 452 441 445 c 0
 441 433 431 427 426 422 c 0
 128 172 131 172 122 172 c 0
 108 172 95 195 95 208 c 0
EndSplineSet
Validated: 1
EndChar

StartChar: logicalnot
Encoding: 172 172 255
Width: 1080
VWidth: 1000
Flags: W
PickledData: "(dp1
S'spacing_anchors_slanted'
p2
I00
s."
HStem: 385 91<63.136 926>
VStem: 926 91<81.2009 384.73>
LayerCount: 3
Fore
SplineSet
63 441 m 0
 63 475 84 476 102 476 c 2
 976 476 l 2
 1010 476 1017 470 1017 436 c 2
 1017 113 l 2
 1017 92 1012 81 986 81 c 0
 947 81 926 82 926 123 c 2
 926 350 l 2
 926 378 904 385 872 385 c 2
 103 385 l 2
 64 385 63 403 63 441 c 0
EndSplineSet
Validated: 1
EndChar

StartChar: oslash
Encoding: 248 248 256
Width: 981
VWidth: 0
Flags: HW
PickledData: "(dp1
S'spacing_anchors_slanted'
p2
I00
s."
HStem: -21 62<321.833 507.766> 829 61<430.968 615.86>
VStem: 72 158<166.656 573.767> 186 127<51.5934 99.216> 618 122<778.511 821.939> 704 151<302.881 714.047>
LayerCount: 3
Fore
SplineSet
72 347 m 0xe0
 72 600 244 890 555 890 c 0
 621 890 655 873 660 873 c 0
 665 873 666 878 675 894 c 2
 737 1002 l 2
 743 1012 750 1020 761 1020 c 0
 773 1020 821 1004 821 978 c 0
 821 971 820 968 792 920 c 0
 741 830 740 829 740 828 c 0xe8
 740 821 855 750 855 529 c 0
 855 274 688 -21 387 -21 c 0
 315 -21 269 2 265 2 c 0
 260 2 260 -4 250 -21 c 2
 193 -119 l 2
 171 -157 165 -169 152 -169 c 0
 142 -169 90 -150 90 -128 c 0
 90 -124 92 -116 95 -111 c 2
 153 -12 l 2
 176 27 186 39 186 47 c 0xd4
 186 61 72 124 72 347 c 0xe0
230 344 m 0
 230 262 254 164 259 164 c 0
 260 164 275 197 291 225 c 2
 599 761 l 2
 609 779 618 790 618 795 c 0
 618 802 580 829 528 829 c 0
 430 829 318 740 271 574 c 0
 251 503 230 427 230 344 c 0
313 85 m 0
 313 67 367 41 409 41 c 0
 628 41 704 383 704 553 c 0xd4
 704 652 680 715 677 715 c 0
 675 715 672 710 666 700 c 2
 346 147 l 2
 326 112 313 96 313 85 c 0
EndSplineSet
EndChar

StartChar: Oslash
Encoding: 216 216 257
Width: 1746
VWidth: -5
Flags: HW
PickledData: "(dp1
S'spacing_anchors_slanted'
p2
I00
s."
HStem: -40 73<638.292 1000.21> 1405 62<688.692 1061.52>
VStem: 84 177<434.54 908.857> 1129 129<1342 1387> 1414 179<498.157 1034.7>
LayerCount: 3
Fore
SplineSet
84 644 m 0
 84 1043 374 1467 892 1467 c 0
 1072 1467 1160 1422 1171 1422 c 0
 1178 1422 1180 1430 1195 1456 c 2
 1268 1583 l 2
 1280 1604 1296 1613 1306 1613 c 0
 1316 1613 1360 1598 1360 1572 c 0
 1360 1567 1358 1562 1355 1556 c 2
 1278 1422 l 2
 1266 1400 1258 1392 1258 1387 c 0
 1258 1379 1593 1231 1593 770 c 0
 1593 394 1344 -40 810 -40 c 0
 596 -40 486 22 476 22 c 0
 468 22 465 10 444 -27 c 2
 346 -196 l 2
 342 -203 329 -227 314 -227 c 0
 293 -227 255 -204 255 -186 c 0
 255 -180 257 -172 263 -162 c 2
 366 15 l 2
 383 44 393 56 393 61 c 0
 393 75 84 210 84 644 c 0
261 710 m 0
 261 348 455 183 460 183 c 0
 464 183 475 200 494 234 c 2
 1107 1302 l 2
 1121 1327 1129 1337 1129 1342 c 0
 1129 1355 1001 1405 865 1405 c 0
 460 1405 261 1004 261 710 c 0
533 127 m 0
 533 111 671 33 825 33 c 0
 1199 33 1414 418 1414 779 c 0
 1414 968 1377 1127 1249 1256 c 0
 1223 1282 1212 1292 1206 1292 c 0
 1202 1292 1197 1283 1189 1268 c 0
 543 146 533 131 533 127 c 0
EndSplineSet
EndChar

StartChar: uni0326
Encoding: 806 806 265
Width: 0
VWidth: 0
Flags: W
PickledData: "(dp1
S'spacing_anchors_slanted'
p2
I00
s."
HStem: -407 312<-511 -448>
VStem: -440 93<-334.957 -207.606>
AnchorPoint: "cedilla" -450 -162 mark 0
LayerCount: 3
Fore
SplineSet
-546 -162 m 0
 -546 -161 -476 -95 -448 -95 c 0
 -439 -95 -347 -126 -347 -216 c 0
 -347 -350 -484 -407 -511 -407 c 0
 -517 -407 -523 -404 -523 -399 c 0
 -523 -382 -440 -367 -440 -284 c 0
 -440 -192 -546 -197 -546 -162 c 0
EndSplineSet
Validated: 1
EndChar

StartChar: uni0312
Encoding: 786 786 280
Width: 0
VWidth: 0
Flags: W
PickledData: "(dp1
S'spacing_anchors_slanted'
p2
I00
s."
HStem: 1027 312<-449 -386>
VStem: -550 93<1139.61 1266.96>
AnchorPoint: "top" -450 940 mark 0
LayerCount: 3
Fore
SplineSet
-550 1148 m 0
 -550 1282 -413 1339 -386 1339 c 0
 -380 1339 -374 1336 -374 1331 c 0
 -374 1314 -457 1299 -457 1216 c 0
 -457 1124 -351 1129 -351 1094 c 0
 -351 1093 -421 1027 -449 1027 c 0
 -458 1027 -550 1058 -550 1148 c 0
EndSplineSet
Validated: 1
EndChar

StartChar: AE
Encoding: 198 198 283
Width: 2285
VWidth: 2043
Flags: HW
PickledData: "(dp1
S'spacing_anchors_slanted'
p2
I01
s."
HStem: -5 66<54.0138 166.054 965.702 1091.31> 1 76<1292.13 1684.09> 527 95<684.018 1181.62> 696 81<1364.19 1820.12> 1361 83<1195.02 1277.99 1435.45 2043.8>
VStem: 50 283<8.5 118> 965 317<18.5 169> 1278 86<951.875 1170.76> 1864 99<528 910> 1864 59<496.325 644.544>
LayerCount: 3
Fore
SplineSet
50 14 m 0
 50 42 89 53 109 61 c 0
 227 103 192 137 1038 1236 c 2
 1118 1340 l 2
 1123 1346 1129 1357 1129 1367 c 0xbe80
 1129 1409 1003 1372 1003 1415 c 0
 1003 1436 1013 1444 1050 1444 c 0
 1161 1444 1249 1443 1271 1443 c 0
 1357 1442 1487 1440 1679 1440 c 0
 1761 1440 2091 1449 2152 1449 c 0
 2166 1449 2188 1444 2188 1410 c 0
 2188 1383 2181 1350 2181 1302 c 0
 2181 1269 2187 1235 2187 1191 c 0
 2187 1166 2176 1133 2160 1133 c 0
 2105 1133 2156 1214 2091 1290 c 0
 2080 1303 2015 1352 1875 1354 c 0
 1712 1356 1676 1360 1559 1360 c 0
 1433 1360 1434 1345 1414 1222 c 0
 1405 1164 1364 832 1364 806 c 0
 1364 779 1370 777 1452 777 c 0
 1822 777 1836 786 1869 827 c 0
 1919 889 1912 933 1938 933 c 0
 1956 933 1963 927 1963 910 c 0xbd80
 1963 874 1934 778 1923 697 c 0xbc40
 1913 626 1928 494 1885 494 c 0
 1866 494 1864 510 1864 528 c 0
 1864 567 1863 626 1828 651 c 0
 1789 679 1716 694 1610 694 c 0
 1431 694 1457 696 1434 696 c 0
 1391 696 1359 692 1356 660 c 0
 1340 514 1282 186 1282 152 c 0
 1282 84 1336 77 1540 77 c 0
 2050 77 2063 279 2117 279 c 0
 2128 279 2138 272 2138 252 c 0
 2138 186 1993 -21 1899 -21 c 0
 1637 -21 1391 1 1267 1 c 0x7e80
 1155 1 1137 -5 1037 -5 c 0
 966 -5 965 13 965 24 c 0
 965 35 979 51 1011 53 c 0
 1117 60 1124 128 1182 517 c 1
 1174 524 1161 529 1139 529 c 0
 1098 529 1033 527 908 527 c 0
 660 527 728 532 654 532 c 0
 622 532 598 525 581 502 c 0
 411 280 338 151 336 141 c 0
 334 131 333 122 333 114 c 0
 333 37 439 71 439 31 c 0
 439 1 426 -5 387 -5 c 0
 356 -5 299 -1 228 -1 c 0
 195 -1 166 -2 83 -5 c 0
 60 -5 50 3 50 14 c 0
684 638 m 0
 684 625 708 622 741 622 c 0
 777 622 863 624 1197 624 c 1
 1254 1112 l 2
 1267 1224 1278 1288 1278 1323 c 0
 1278 1352 1270 1361 1251 1361 c 0
 1235 1361 1205 1333 1185 1308 c 0
 1027 1106 684 646 684 638 c 0
EndSplineSet
EndChar

StartChar: ae
Encoding: 230 230 284
Width: 1500
VWidth: 0
Flags: HW
PickledData: "(dp1
S'spacing_anchors_slanted'
p2
I01
s."
HStem: -30 112<284.717 461.802> -24 123<958.93 1216.51> 438 36<881.348 1019.65> 805 55<533.959 765.26> 831 62<1063.98 1234.94>
VStem: 92 144<129.431 427.96> 761 118<484.624 640.199 727.001 787.814> 1262 141<616.728 813.249>
LayerCount: 3
Fore
SplineSet
92 234 m 0
 92 463 332 860 634 860 c 0xb7
 697 860 731 848 798 848 c 0
 838 848 863 948 904 948 c 0
 917 948 926 941 926 918 c 0
 926 882 879 783 879 736 c 0
 879 729 881 727 884 727 c 0
 905 727 979 893 1226 893 c 0
 1322 893 1403 832 1403 741 c 0
 1403 593 1244 511 1206 494 c 0
 1187 486 1076 441 884 438 c 0
 855 438 849 408 849 354 c 0
 849 200 942 99 1144 99 c 0
 1261 99 1342 187 1364 187 c 0
 1380 187 1390 179 1390 166 c 0
 1390 119 1212 -24 1034 -24 c 0x6f
 697 -24 733 222 705 222 c 0
 672 222 514 -30 312 -30 c 0
 117 -30 92 100 92 234 c 0
236 246 m 0xb7
 236 144 310 82 396 82 c 0
 544 82 640 230 658 266 c 0
 706 363 761 727 761 736 c 0
 761 785 682 805 637 805 c 0
 450 805 236 528 236 246 c 0xb7
878 515 m 0
 878 501 882 474 896 474 c 0
 1095 474 1262 605 1262 735 c 0
 1262 812 1188 831 1154 831 c 0x2f
 1102 831 1038 791 985 735 c 0
 924 671 878 542 878 515 c 0
EndSplineSet
EndChar

StartChar: OE
Encoding: 338 338 285
Width: 2206
VWidth: 0
Flags: HW
PickledData: "(dp1
S'spacing_anchors_slanted'
p2
I01
s."
HStem: -40 73<642.088 994.334> 696 81<1294.19 1750.11> 1360 80<1378.88 1973.78> 1405 62<688.692 1055.69>
VStem: 84 177<430.542 908.857> 1200 94<806 1264> 1794 99<528 910> 1794 59<496.325 644.535>
LayerCount: 3
Fore
SplineSet
84 644 m 0
 84 1043 374 1467 892 1467 c 0xde
 1057.6178442 1467 891.12520877 1440.00000442 1609 1440 c 0
 1691 1440 2021 1449 2082 1449 c 0
 2096 1449 2118 1444 2118 1410 c 0
 2118 1383 2111 1350 2111 1302 c 0
 2111 1269 2117 1235 2117 1191 c 0
 2117 1166 2106 1133 2090 1133 c 0
 2035 1133 2085.79872689 1213.82877731 2021 1290 c 0
 2009.96572614 1302.97084328 1945 1352 1805 1354 c 0
 1642.00436188 1356.32850912 1606 1360 1489 1360 c 0
 1363 1360 1364 1345 1344 1222 c 0
 1335 1164 1294 832 1294 806 c 0
 1294 779 1300 777 1382 777 c 0
 1752 777 1765.98044645 786.0157536 1799 827 c 0
 1848.97040848 889.023840838 1842 933 1868 933 c 0
 1886 933 1893 927 1893 910 c 0xee
 1893 874 1864.40064529 777.944581578 1853 697 c 0xed
 1843 626 1858 494 1815 494 c 0
 1796 494 1794 510 1794 528 c 0
 1794 567 1792.96968245 625.957663885 1758 651 c 0
 1718.96615896 678.952743603 1646 694 1540 694 c 0
 1361 694 1387 696 1364 696 c 0
 1321 696 1289 692 1286 660 c 0
 1270 514 1212 186 1212 152 c 0
 1212 121.12821324 1223.13011024 102.829328791 1254.37349738 92.0502775193 c 0
 1255.016157 92.0502775193 1255.40302861 91.9310868425 1255.50387273 91.6665705881 c 0xee
 1293.27983943 79.0455378452 1359.72373004 77.0000264899 1470 77 c 0
 1980 77 1993 279 2047 279 c 0
 2058 279 2068 272 2068 252 c 0
 2068 186 1923 -21 1829 -21 c 0
 1567 -21 1321 1 1197 1 c 0
 960.718359436 1 1027.00722307 -40.000030821 810 -40 c 0
 371 -40 84 234 84 644 c 0
261 710 m 0
 261 265 541 33 825 33 c 0
 1056.69772486 33 1046.13663002 112.698987219 1082 329 c 0
 1093 399 1110 491 1124 602 c 2
 1197 1222 l 2
 1199 1241 1200 1254 1200 1264 c 0
 1200 1374.70625 922.967187578 1404.99999984 865 1405 c 0
 460 1405 261 1004 261 710 c 0
EndSplineSet
EndChar

StartChar: oe
Encoding: 339 339 286
Width: 1455
VWidth: 0
Flags: HW
PickledData: "(dp1
S'spacing_anchors_slanted'
p2
I01
s."
HStem: -26 67<323.345 514.526> -24 123<930.074 1190.51> 438 36<855.348 993.649> 829 61<430.968 613.51 1035.49 1209.87>
VStem: 72 158<141.182 573.767> 704 148<474.02 635.515> 1236 141<616.728 813.249>
LayerCount: 3
Fore
SplineSet
72 347 m 0
 72 600 244 890 555 890 c 0
 777 890 820 697 829 697 c 0
 853 697 939 893 1200 893 c 0
 1296 893 1377 832 1377 741 c 0
 1377 593 1218 511 1180 494 c 0
 1161 486 1050 441 858 438 c 0
 829 438 823 408 823 354 c 0
 823 200 916 99 1118 99 c 0
 1235 99 1316 187 1338 187 c 0
 1354 187 1364 179 1364 166 c 0
 1364 119 1186 -24 1008 -24 c 0x7e
 745 -24 719 128 713 128 c 0
 706 128 600 -26 387 -26 c 0xbe
 220 -26 72 97 72 347 c 0
230 344 m 0
 230 138 313 41 409 41 c 0xbe
 628 41 704 383 704 553 c 0
 704 746 622 829 528 829 c 0
 430 829 318 740 271 574 c 0
 251 503 230 427 230 344 c 0
852 515 m 0
 852 501 856 474 870 474 c 0
 1069 474 1236 605 1236 735 c 0
 1236 812 1162 831 1128 831 c 0
 1076 831 1012 791 959 735 c 0
 898 671 852 542 852 515 c 0
EndSplineSet
EndChar

StartChar: uni0304
Encoding: 772 772 287
Width: 0
VWidth: -5
Flags: W
PickledData: "(dp1
S'spacing_anchors_slanted'
p2
I00
s."
HStem: 1156 89<-642.154 -206.291>
VStem: -642.866 436.886<1156.12 1241.63>
AnchorPoint: "top" -450 940 mark 0
LayerCount: 3
Fore
SplineSet
-642.866210938 1190.44335938 m 0
 -642.866210938 1215.48046875 -631.118164062 1245 -602 1245 c 0
 -315 1245 -413 1242 -234 1242 c 0
 -214.533203125 1242 -205.98046875 1238.96875 -205.98046875 1211.66113281 c 0
 -205.98046875 1178.88964844 -211.407226562 1154 -241 1154 c 0
 -278 1154 -552 1156 -626 1156 c 0
 -636.49609375 1156 -642.866210938 1172.00585938 -642.866210938 1190.44335938 c 0
EndSplineSet
Validated: 1
EndChar

StartChar: uni0315
Encoding: 789 789 313
Width: 0
VWidth: 0
Flags: W
PickledData: "(dp1
S'spacing_anchors_slanted'
p2
I00
s."
HStem: 1202 312<-512 -449>
VStem: -441 93<1274.04 1401.39>
AnchorPoint: "right" -450 1430 mark 0
LayerCount: 3
Fore
SplineSet
-547 1447 m 0
 -547 1448 -477 1514 -449 1514 c 0
 -440 1514 -348 1483 -348 1393 c 0
 -348 1259 -485 1202 -512 1202 c 0
 -518 1202 -524 1205 -524 1210 c 0
 -524 1227 -441 1242 -441 1325 c 0
 -441 1417 -547 1412 -547 1447 c 0
EndSplineSet
Validated: 1
EndChar

StartChar: uni030B
Encoding: 779 779 314
Width: 0
VWidth: 0
Flags: HW
PickledData: "(dp1
S'spacing_anchors_slanted'
p2
I00
s."
HStem: 988 363
VStem: -652.084 640.221
AnchorPoint: "top" -450 940 mark 0
LayerCount: 3
Fore
SplineSet
-652.083984375 1004.32128906 m 0
 -652.083984375 1030.25585938 -605.389648438 1046.88671875 -465 1315 c 0
 -448 1347 -430 1351 -424 1351 c 0
 -408.3671875 1351 -326.86328125 1337.63476562 -326.86328125 1304.37597656 c 0
 -326.86328125 1255.26171875 -604.884765625 988 -634 988 c 0
 -644.376953125 988 -652.083984375 995.120117188 -652.083984375 1004.32128906 c 0
-337.083984375 1004.32128906 m 0
 -337.083984375 1030.25585938 -290.389648438 1046.88671875 -150 1315 c 0
 -133 1347 -115 1351 -109 1351 c 0
 -93.3671875 1351 -11.86328125 1337.63476562 -11.86328125 1304.37597656 c 0
 -11.86328125 1255.26171875 -289.884765625 988 -319 988 c 0
 -329.376953125 988 -337.083984375 995.120117188 -337.083984375 1004.32128906 c 0
EndSplineSet
Validated: 1
EndChar

StartChar: cent
Encoding: 162 162 322
Width: 857
VWidth: 0
Flags: HW
PickledData: "(dp1
S'spacing_anchors_slanted'
p2
I00
s."
VStem: 110 150<225.354 548.022> 415 73<-207.843 -50.4446> 542 76<911 1005.86>
LayerCount: 3
Fore
SplineSet
110 326 m 0
 110 560 245 776 454 851 c 0
 528 878 528 854 534 911 c 2
 542 986 l 2
 543 998 558 1006 574 1006 c 0
 613 1006 618 995 618 986 c 0
 618 973 607 904 607 893 c 0
 607 856 709 893 802 838 c 0
 815 830 823 827 823 793 c 0
 823 792 819 624 787 624 c 0
 749 624 779 678 639 755 c 0
 617 767 612 770 606 770 c 0
 599 770 593 764 589 729 c 2
 518 92 l 2
 518 89 517 86 517 83 c 0
 517 71 523 64 548 64 c 0
 700 64 786 170 811 170 c 0
 822 170 829 161 829 151 c 0
 829 127 720 -14 528 -39 c 0
 489 -44 505 -33 488 -186 c 0
 486 -204 466 -208 445 -208 c 0
 421 -208 415 -200 415 -185 c 0
 415 -162 428 -58 428 -50 c 0
 428 -29 409 -53 318 -19 c 0
 187 30 110 150 110 326 c 0
260 408 m 0
 260 192 413 89 433 89 c 0
 439 89 443 95 446 119 c 2
 518 765 l 2
 519 771 519 776 519 780 c 0
 519 794 513 794 489 794 c 0
 398 794 260 644 260 408 c 0
EndSplineSet
Validated: 1
EndChar

StartChar: sterling
Encoding: 163 163 323
Width: 1058
VWidth: 1000
Flags: HW
PickledData: "(dp1
S'spacing_anchors_slanted'
p2
I00
s."
HStem: -34 136<468.799 858.505> -22 56<127.003 248.845> 130 74<119.283 286.255> 682 88<114.619 288.997 494.013 818.892> 1399 74<518.76 773.449>
VStem: 45 73<38.5392 126.536> 257 142<849.138 1224.92> 392 131<257.9 589.221> 831 154<1185 1350.34>
LayerCount: 3
Fore
SplineSet
45 75 m 0x7d80
 45 134 87 204 189 204 c 0
 262 204 325 162 337 161 c 1
 349 168 392 251 392 342 c 0x7d80
 392 458 343 603 332 637 c 0
 320 674 322 682 289 682 c 0
 265 682 224 680 137 680 c 0
 128 680 114 684 114 713 c 0
 114 738 120 768 144 768 c 2
 256 768 l 2
 285 768 289 770 289 772 c 0
 289 785 257 885 257 1004 c 0
 257 1324 476 1473 687 1473 c 0
 842 1473 985 1391 985 1275 c 0
 985 1206 915 1158 896 1158 c 0
 859 1158 864 1232 831 1300 c 0
 801 1362 726 1399 646 1399 c 0
 563 1399 399 1358 399 1106 c 0x7e80
 399 988 434 882 455 810 c 0
 465 774 471 770 488 770 c 2
 782 770 l 2
 812 770 820 765 820 746 c 0
 820 683 797 682 769 682 c 2
 537 682 l 2
 512 682 494 681 494 674 c 0
 494 663 523 568 523 466 c 0
 523 285 416 141 414 138 c 1
 435 131 550 102 675 102 c 0
 938 102 998 310 1030 310 c 0
 1042 310 1051 299 1051 283 c 0
 1051 229 958 -34 722 -34 c 0xbd80
 541 -34 367 49 352 56 c 1
 323 54 271 -22 150 -22 c 0
 79 -22 45 25 45 75 c 0x7d80
118 86 m 0
 118 63 142 34 177 34 c 0
 233 34 282 88 287 97 c 1
 280 108 223 130 177 130 c 0
 127 130 118 104 118 86 c 0
EndSplineSet
Validated: 1
EndChar

StartChar: copyright
Encoding: 169 169 324
Width: 1630
VWidth: 1000
Flags: HW
PickledData: "(dp1
S'spacing_anchors_slanted'
p2
I00
s."
HStem: -43 86<602.77 1037.25> 223 75<699.421 1022.69> 1075 70<658.216 981.546> 1330 88<596.269 1040.84>
VStem: 90 86<463.746 911.171> 336 135<522.705 879.891> 1462 86<458.935 911.272>
LayerCount: 3
Fore
SplineSet
90 686 m 0
 90 1081 407 1418 819 1418 c 0
 1227 1418 1548 1083 1548 686 c 0
 1548 295 1235 -43 817 -43 c 0
 424 -43 90 274 90 686 c 0
176 686 m 0
 176 323 473 43 819 43 c 0
 1161 43 1462 318 1462 689 c 0
 1462 1031 1186 1330 817 1330 c 0
 456 1330 176 1036 176 686 c 0
336 660 m 0
 336 925 503 1145 822 1145 c 0
 999 1145 1135 1055 1150 1055 c 0
 1159 1055 1159 1067 1175 1067 c 0
 1211 1067 1198 1029 1218 896 c 0
 1220 882 1222 873 1222 865 c 0
 1222 850 1217 834 1196 834 c 0
 1184 834 1173 844 1167 856 c 0
 1095 988 983 1075 822 1075 c 0
 618 1075 471 937 471 733 c 0
 471 566 554 298 883 298 c 0
 1019 298 1111 390 1161 460 c 0
 1196 510 1184 538 1223 538 c 0
 1234 538 1237 531 1237 522 c 0
 1237 488 1223 402 1212 352 c 0
 1208 333 1192 326 1186 323 c 0
 1085 277 1004 223 850 223 c 0
 398 223 336 540 336 660 c 0
EndSplineSet
Validated: 1
EndChar

StartChar: periodcentered
Encoding: 183 183 325
Width: 516
VWidth: 1050
Flags: W
PickledData: "(dp1
S'spacing_anchors_slanted'
p2
I00
s."
HStem: 570 216<201.482 309.517>
VStem: 162 182<603.178 746.402>
LayerCount: 3
Fore
SplineSet
162 679 m 0
 162 698 228 786 264 786 c 0
 305 786 344 715 344 678 c 0
 344 638 272 570 254 570 c 0
 217 570 162 658 162 679 c 0
EndSplineSet
Validated: 1
EndChar

StartChar: degree
Encoding: 176 176 326
Width: 531
VWidth: 0
Flags: HW
PickledData: "(dp1
S'spacing_anchors_slanted'
p2
I00
s."
HStem: 1032.16 89.8564<174.263 357.688> 1369.98 89.8564<179.288 360.619>
VStem: 60.4805 86.5674<1149.68 1337.63> 384.433 86.5674<1150.44 1346.38>
LayerCount: 3
Fore
SplineSet
60.48046875 1251.27929688 m 0
 60.48046875 1337.08007812 144.9609375 1459.84082031 270.360351562 1459.84082031 c 0
 418.200195312 1459.84082031 471 1318.59960938 471 1242.04003906 c 0
 471 1091.55957031 306 1032.15917969 269.040039062 1032.15917969 c 0
 85.560546875 1032.15917969 60.48046875 1189.24023438 60.48046875 1251.27929688 c 0
147.047851562 1249.02539062 m 0
 147.047851562 1173.42480469 195.432617188 1122.015625 268.008789062 1122.015625 c 0
 289.17578125 1122.015625 384.432617188 1141.67285156 384.432617188 1244.48730469 c 0
 384.432617188 1289.84765625 367.80078125 1369.984375 268.008789062 1369.984375 c 0
 213.575195312 1369.984375 147.047851562 1318.57519531 147.047851562 1249.02539062 c 0
EndSplineSet
Validated: 1
EndChar

StartChar: longs
Encoding: 383 383 327
Width: 858
VWidth: 0
Flags: W
PickledData: "(dp1
S'spacing_anchors_slanted'
p2
I00
s."
HStem: -396 92<-123 60.5459> 1515 69<651.896 865.983>
LayerCount: 3
Fore
SplineSet
-202 -324 m 0
 -202 -266 -169 -246 -142 -246 c 0
 -84 -246 -55 -304 -16 -304 c 0
 176 -304 210.191832689 141.151131362 224 260 c 0
 300 921 272 1156 480 1425 c 0
 539.144323847 1500.06779565 663.13688787 1584 818 1584 c 0
 960 1584 1076 1513 1076 1426 c 0
 1076 1394 1038 1364 1010 1364 c 0
 925.4647572 1364 915.540361901 1425.27951747 894 1454 c 0
 870 1486 831 1515 768 1515 c 0
 450 1515 437 880 433 851 c 0
 375 401 352 20 262 -140 c 0
 160 -322 18 -396 -96 -396 c 0
 -150 -396 -202 -357 -202 -324 c 0
EndSplineSet
Validated: 1
EndChar

StartChar: Eth
Encoding: 208 208 328
Width: 1623
VWidth: 2043
Flags: HW
PickledData: "(dp1
S'spacing_anchors_slanted'
p2
I00
s."
HStem: -11 21G<125.5 159.5> 6 63<415.966 857.123> 689 86<147.021 308.058 486.273 877.985> 1377 85<209.498 381.987 583.792 1037.35>
VStem: 1365 189<624.131 1093.5>
LayerCount: 3
Fore
SplineSet
93 27 m 0
 93 80 193 25 234 150 c 0
 252 207 309 662 309 662 c 1
 309 689 298 689 277 689 c 2
 174 689 l 2
 154 689 147 715 147 733 c 0
 147 758 160 778 170 778 c 0
 202 778 278 775 307 775 c 0
 330 775 326 781 333 832 c 2
 391 1261 l 2
 393 1278 395 1288 395 1298 c 0
 395 1340 348 1380 303 1383 c 0
 240 1388 208 1404 208 1427 c 0
 208 1442 220 1465 272 1465 c 0
 346 1465 383 1441 480 1441 c 0
 592 1441 639 1462 799 1462 c 0
 1353 1462 1554 1191 1554 885 c 0
 1554 714 1492 533 1394 381 c 0
 1328 279 1187 154 1126 117 c 0
 1002 42 849 0 663 0 c 0
 543 0 524 6 345 6 c 0x78
 222 6 180 -11 139 -11 c 0xb8
 112 -11 93 9 93 27 c 0
406 146 m 0
 406 100 421 69 503 69 c 2
 683 69 l 2
 787 69 980 122 1101 232 c 0
 1338 447 1365 780 1365 883 c 0
 1365 1081 1258 1377 776 1377 c 0
 616 1377 583 1374 553 1263 c 0
 545 1234 523 1075 498 886 c 1
 492 834 l 2
 489 812 486 798 486 789 c 0
 486 776 492 775 512 775 c 0x78
 580 775 820 780 854 780 c 0
 870 780 878 756 878 733 c 0
 878 716 873 691 861 691 c 0
 820 691 756 689 655 689 c 2
 503 689 l 2
 473 689 472 686 468 652 c 2
 464 620 l 2
 433 373 406 149 406 146 c 0
EndSplineSet
EndChar

StartChar: Thorn
Encoding: 222 222 329
Width: 1086
Flags: HW
PickledData: "(dp1
S'spacing_anchors_slanted'
p2
I00
s."
HStem: -11 57<388.36 531.953> 303 35<464.835 651.587> 1026 54<469.268 708.523> 1355 83<509.869 631.961> 1387 54<143.212 272.104>
VStem: 334 135<1080 1324.9> 902 162<553.177 885.851>
LayerCount: 3
Fore
SplineSet
51 23 m 0
 51 74 146 11 192 147 c 0
 193 150 334 1259 334 1267 c 0
 334 1387 188 1373 158 1387 c 0
 146 1392 143 1401 143 1411 c 0
 143 1427 154 1441 198 1441 c 0xee
 256 1441 293 1425 408 1425 c 0
 497 1425 560 1438 601 1438 c 0
 615 1438 637 1436 637 1408 c 0
 637 1376 562 1391 531 1355 c 0
 485 1301 469 1110 469 1096 c 0
 469 1082 473 1080 488 1080 c 0xf6
 538 1080 628 1094 688 1094 c 0
 909 1094 1064 983 1064 754 c 0
 1064 588 971 408 803 337 c 0
 744 312 672 303 586 303 c 0
 510 303 446 319 446 337 c 0
 446 340 446 341 452 341 c 0
 462 341 489 338 564 338 c 0
 698 338 902 476 902 732 c 0
 902 879 816 939 756 977 c 0
 694 1016 622 1026 567 1026 c 0
 459 1026 461 1019 448 912 c 2
 426 736 l 1
 386 433 354 259 354 203 c 0
 354 43 418 60 470 46 c 0
 502 38 532 42 532 19 c 0
 532 -11 516 -11 489 -11 c 0
 460 -11 368 2 282 2 c 0
 224 2 165 -11 123 -11 c 0
 77 -11 51 -1 51 23 c 0
EndSplineSet
EndChar

StartChar: eth
Encoding: 240 240 330
Width: 981
VWidth: 0
Flags: HW
PickledData: "(dp1
S'spacing_anchors_slanted'
p2
I00
s."
HStem: -21 62<325.231 511.441> 829 61<430.968 615.296> 1250 111<908 987.727> 1490 20G<400.5 433.5>
VStem: 72 158<141.813 573.767> 704 166<340.446 839.615>
LayerCount: 3
Fore
SplineSet
72 347 m 0
 72 600 244 890 555 890 c 0
 632 890 694 866 741 826 c 1
 730 907 699 1005 660 1094 c 0
 642 1134 640 1148 629 1148 c 0
 622 1148 611 1141 588 1133 c 2
 466 1088 l 2
 386 1058 340 1042 335 1042 c 0
 314 1042 298 1094 298 1112 c 0
 298 1127 590 1216 590 1229 c 0
 590 1234 544 1301 506 1343 c 0
 410 1448 336 1449 336 1485 c 0
 336 1505 393 1510 408 1510 c 0
 459 1510 571 1437 664 1302 c 0
 683 1275 685 1264 693 1264 c 0
 699 1264 709 1271 734 1280 c 2
 856 1326 l 2
 944 1359 948 1361 950 1361 c 0
 967 1361 993 1322 993 1290 c 0
 993 1281 990 1279 908 1250 c 2
 786 1206 l 2
 748 1192 734 1191 734 1181 c 0
 734 1172 870 931 870 609 c 0
 870 309 709 -21 387 -21 c 0
 220 -21 72 97 72 347 c 0
230 344 m 0
 230 138 313 41 409 41 c 0
 628 41 704 383 704 553 c 0
 704 746 622 829 528 829 c 0
 430 829 318 740 271 574 c 0
 251 503 230 427 230 344 c 0
EndSplineSet
EndChar

StartChar: thorn
Encoding: 254 254 331
Width: 1114
VWidth: 0
Flags: HW
PickledData: "(dp1
S'spacing_anchors_slanted'
p2
I00
s."
HStem: -402 21G<70.5 109.5 377.5 420> 0 55<339.111 545.23> 735 93<140.314 267.897> 825 45<426.454 617.802> 1439 21G<236 268> 1524.48 20G<465.394 496.623>
VStem: 134 138<-324.73 -2.819> 822 150<363.547 691.785>
LayerCount: 3
Fore
SplineSet
44 -374 m 0
 44 -321 119 -333 134 -291 c 0
 134 -290 276 762 276 762 c 1
 276 772 274 772 269 772 c 0
 246 772 189 735 165 735 c 0
 144 735 138 746 138 759 c 2
 138 767 l 2
 138 791 138 793 242 828 c 0xef
 293 846 288 860 293 906 c 0
 319 1107 367 1369 367 1403 c 0
 367 1427 348 1443 317 1443 c 0
 286 1443 280 1439 256 1439 c 0
 216 1439 197 1443 197 1465 c 0
 197 1476 201 1492 228 1494 c 0
 397.303710938 1506.49902344 447.014648438 1544.47851562 483.7734375 1544.47851562 c 0
 509.47265625 1544.47851562 518 1527.18261719 518 1508 c 0
 518 1484 513 1499 461 1167 c 0
 444 1053 426 912 426 884 c 0
 426 870 428 870 436 870 c 0
 454 870 498 876 609 876 c 0
 797 876 972 820 972 602 c 0
 972 475 954 402 893 297 c 0
 848 219 824 166 713 87 c 0
 626 25 545 0 444 0 c 0
 414 0 361 8 332 8 c 0
 301 8 308 7 292 -114 c 0
 284 -175 272 -244 272 -265 c 0
 272 -368 442 -327 442 -374 c 0
 442 -393 428 -402 412 -402 c 0
 343 -402 266 -399 209 -399 c 0
 164 -399 122 -402 97 -402 c 2
 78 -402 l 2
 63 -402 44 -393 44 -374 c 0
326 104 m 0xdf
 326 91 348 55 443 55 c 0
 648 55 822 342 822 526 c 0
 822 806 553 825 479 825 c 0
 447 825 442 820 429 820 c 0
 415 820 408 767 395 661 c 2
 367 434 l 2
 355 341 326 164 326 104 c 0xdf
EndSplineSet
EndChar

StartChar: dcroat
Encoding: 273 273 333
Width: 1055
VWidth: 0
Flags: HMW
PickledData: "(dp1
S'spacing_anchors_slanted'
p2
I00
s."
HStem: -17 141<711.5 893.116> -17 120<285.57 479.136> 835 44<501.966 678.232> 1116 89<462.536 784.63 938.005 1092.21> 1456 94<698.791 822.233>
VStem: 87 143<160.605 480.112> 823 115<1205.1 1451.95>
LayerCount: 3
Fore
SplineSet
87 256 m 0
 87 574 353 879 596 879 c 0
 649 879 692 851 749 851 c 0
 754 851 785 1082 785 1097 c 0
 785 1114 779 1116 767 1116 c 2
 489 1116 l 2
 469 1116 462 1132 462 1150 c 0
 462 1175 470 1205 485 1205 c 0
 527 1205 573 1202 727 1202 c 2
 766 1202 l 2
 802 1202 800 1205 804 1240 c 2
 811 1302 l 2
 818 1359 823 1400 823 1404 c 0
 823 1434 793 1456 762 1456 c 0
 740 1456 694 1454 692 1454 c 0
 672 1454 658 1462 658 1477 c 0
 658 1512 730 1504 787 1518 c 0
 902 1547 889 1550 945 1550 c 0
 963 1550 978 1535 978 1516 c 0
 978 1488 973 1456 951 1313 c 2
 942 1252 l 2
 940 1237 938 1227 938 1220 c 0
 938 1205 945 1205 966 1205 c 0
 996 1205 1045 1206 1065 1206 c 0
 1092 1206 1093 1195 1093 1179 c 0
 1093 1153 1090 1117 1062 1117 c 0
 1020 1117 965 1116 937 1116 c 0
 918 1116 920 1114 916 1082 c 2
 842 560 l 2
 820 405 800 274 800 212 c 0
 800 167 804 124 852 124 c 0
 942 124 989 251 1022 251 c 0
 1038 251 1045 242 1045 233 c 0
 1045 191 916 -17 783 -17 c 0
 640 -17 686 214 658 214 c 0
 639 214 535 -17 332 -17 c 0
 158 -17 87 102 87 256 c 0
230 314 m 0
 230 195 281 103 405 103 c 0
 478 103 559 141 612 208 c 0
 694 310 724 673 724 754 c 0
 724 809 642 835 586 835 c 0
 397 835 230 530 230 314 c 0
EndSplineSet
EndChar

StartChar: hbar
Encoding: 295 295 334
Width: 1052
VWidth: 0
Flags: HMW
PickledData: "(dp1
S'spacing_anchors_slanted'
p2
I00
s."
HStem: -7 139<691 845.801> -2 21G<139.5 172.5 691 778> 762 109<484.181 642.664> 1068 86<92.2591 238.862 385.13 734.384> 1444 85<144.559 288.868>
VStem: 239 83<780.625 1051.94> 289 155<1252.07 1508.34> 633 128<133.237 565.405> 670 140<287.215 738.217>
LayerCount: 3
Fore
SplineSet
85 47 m 0
 85 103 128 309 144 422 c 1
 237 1039 239 1051 239 1054 c 0
 239 1068 228 1068 208 1068 c 2
 119 1068 l 2
 99 1068 92 1084 92 1102 c 0
 92 1127 96 1157 118 1157 c 0
 144 1157 169 1156 224 1155 c 0
 256 1155 256 1169 260 1194 c 0
 277 1310 289 1392 289 1397 c 0
 289 1432 269 1444 232 1444 c 0
 190 1444 164 1442 148 1442 c 0
 135 1442 122 1446 122 1466 c 0
 122 1477 130 1490 200 1496 c 0
 368 1510 375 1529 420 1529 c 0
 434 1529 444 1518 444 1504 c 0
 444 1472 385 1184 385 1170 c 0
 385 1160 390 1154 414 1154 c 0
 588 1155 639 1158 719 1159 c 0
 731 1159 735 1141 735 1123 c 0
 735 1082 717 1070 706 1070 c 0
 665 1070 621 1068 520 1068 c 2
 393 1068 l 2
 377 1068 365 1066 362 1046 c 0
 340 915 322 790 322 718 c 0
 322 705 324 697 330 697 c 0
 351 697 463 871 628 871 c 0
 770 871 810 764 810 638 c 0
 810 521 761 319 761 225 c 0
 761 169 779 132 810 132 c 0
 843 132 869 151 896 168 c 0
 939 195 964 252 980 252 c 0
 992 252 999 246 999 235 c 0
 999 140 823 -7 733 -7 c 0
 649 -7 633 96 633 185 c 0
 633 312 670 479 670 602 c 0
 670 731 615 762 554 762 c 0
 481 762 364 726 309 584 c 0
 269 481 256 267 228 59 c 0
 220 5 194 -2 151 -2 c 0
 128 -2 85 6 85 47 c 0
EndSplineSet
EndChar

StartChar: Hbar
Encoding: 294 294 335
Width: 1619
VWidth: 0
Flags: HW
PickledData: "(dp1
S'spacing_anchors_slanted'
p2
I00
s."
HStem: 0 51<398.375 530.96 1012.93 1111.01 1350.17 1503.75> 703 83<430.017 1215.93> 1029 86<135.259 298.843 476.859 1253.24 1431.01 1575.54> 1358 83<509.772 631.961> 1387 54<143.212 272.104 1086.23 1218.99>
VStem: 300 130<791.983 1027.59> 334 140<1119.67 1337.3> 1216 97<331.433 558.775> 1279 152<1120.26 1340.98>
LayerCount: 3
Fore
SplineSet
51 23 m 0
 51 69 107 36 164 93 c 0
 207 136 210 248 260 667 c 1
 297 966 l 2
 299 982 300 993 300 1002 c 0
 300 1027 289 1029 259 1029 c 2
 162 1029 l 2
 142 1029 135 1045 135 1063 c 0
 135 1106 148 1118 158 1118 c 0xf5
 245 1118 266 1119 277 1119 c 0
 322 1119 318 1132 323 1176 c 0
 330 1231 334 1266 334 1267 c 0
 334 1387 188 1373 158 1387 c 0
 146 1392 143 1401 143 1411 c 0
 143 1427 154 1441 198 1441 c 0xea
 256 1441 293 1428 408 1428 c 0
 497 1428 560 1441 601 1441 c 0
 615 1441 637 1439 637 1411 c 0
 637 1379 562 1394 531 1358 c 0
 488 1308 474 1128 474 1128 c 1
 474 1116 483 1115 517 1115 c 0
 716 1115 1000 1117 1208 1118 c 0
 1269 1118 1269 1118 1275 1192 c 0
 1277 1217 1279 1234 1279 1239 c 0
 1279 1308 1241 1354 1197 1373 c 0
 1166 1386 1086 1379 1086 1411 c 0
 1086 1427 1097 1438 1141 1438 c 0
 1199 1438 1245 1431 1360 1431 c 0
 1449 1431 1496 1439 1537 1439 c 0
 1551 1439 1581 1436 1581 1408 c 0
 1581 1376 1516 1391 1485 1355 c 0
 1448 1312 1431 1191 1431 1156 c 0xf280
 1431 1134 1431 1120 1457 1120 c 2
 1551 1120 l 2
 1576 1120 1577 1105 1577 1088 c 0
 1577 1063 1567 1031 1545 1031 c 2
 1447 1031 l 2
 1412 1031 1415 1024 1409 971 c 2
 1404 928 l 2
 1355 507 1313 271 1313 204 c 0
 1313 44 1388 55 1441 50 c 0
 1472 47 1509 35 1509 12 c 0
 1509 -8 1491 -12 1471 -12 c 0
 1392 -12 1348 7 1262 7 c 0
 1158 7 1119 -11 1077 -11 c 0
 1031 -11 1012 0 1012 17 c 0
 1012 40 1028 45 1052 48 c 0
 1150 59 1148 167 1157 229 c 0
 1177 374 1216 661 1216 672 c 0
 1216 700 1209 705 1146 705 c 0
 1105 705 1041 703 940 703 c 2
 459 703 l 2
 411 703 418 700 411 651 c 2
 396 545 l 2
 370 361 354 245 354 203 c 0
 354 61 418 65 470 51 c 0
 502 43 532 42 532 19 c 0
 532 1 514 0 499 0 c 0
 412 0 390 5 282 5 c 0
 235 5 171 -7 122 -7 c 0
 81 -7 51 -1 51 23 c 0
430 818 m 0xe4
 430 794 438 792 455 792 c 0
 600 792 1034 786 1179 786 c 0
 1220 786 1231 793 1239 856 c 0
 1243 887 1254 1007 1254 1008 c 0
 1254 1028 1253 1030 1200 1030 c 0
 975 1029 699 1029 643 1029 c 2
 505 1029 l 2
 451 1029 459 1026 450 966 c 0
 438 892 430 848 430 818 c 0xe4
EndSplineSet
EndChar

StartChar: Tbar
Encoding: 358 358 336
Width: 1439
VWidth: 5
Flags: W
PickledData: "(dp1
S'spacing_anchors_slanted'
p2
I00
s."
HStem: -3 19G<394 429.5 786.5 823> 705 87<178.086 577.958 757.075 1166.35> 1339 107<184.811 655.976 813.531 1260.08>
VStem: 579 103<177 687> 656 101<821 1306> 1275 94<1133.04 1314.53>
LayerCount: 3
Fore
SplineSet
41 1174 m 0xec
 41 1237 65 1233 106 1392 c 0
 118 1438 139 1446 200 1446 c 0
 343 1446 276 1439 729 1439 c 0
 1077 1439 1233 1447 1303 1447 c 0
 1361 1447 1362 1425 1362 1406 c 0
 1362 1287 1369 1219 1369 1180 c 0
 1369 1138 1348 1132 1330 1132 c 0
 1297 1132 1316 1151 1275 1264 c 0
 1252 1328 1224 1331 970 1331 c 2
 878 1331 l 2
 792 1331 814 1318 767 912 c 0
 758 839 757 830 757 821 c 0xec
 757 805 762 792 780 792 c 2
 1140 792 l 2
 1160 792 1167 776 1167 758 c 0
 1167 733 1154 703 1144 703 c 0
 1114 703 936 704 780 705 c 0
 743 705 740 692 737 663 c 0
 707 423 682 244 682 177 c 0
 682 12 857 92 857 26 c 0
 857 2 839 -5 807 -5 c 0
 766 -5 678 9 588 9 c 0
 523 9 448 -3 411 -3 c 0
 377 -3 345 4 345 26 c 0
 345 86 444 31 493 107 c 0
 508 130 512 159 516 190 c 0
 578 676 579 683 579 687 c 0xf4
 579 703 572 706 546 706 c 0
 367 705 268 702 189 701 c 0
 184 701 177 713 177 728 c 0
 177 776 190 790 203 790 c 0
 244 790 268 792 369 792 c 2
 557 792 l 2
 597 792 597 824 600 849 c 0
 630 1087 656 1296 656 1306 c 0
 656 1338 624 1339 511 1339 c 0
 226 1339 201 1317 159 1269 c 0
 95 1196 119 1128 68 1128 c 0
 48 1128 41 1151 41 1174 c 0xec
EndSplineSet
AlternateSubs2: "'aalt' Access All Alternates lookup 0 subtable" Tbar.001
AlternateSubs2: "'aalt' Access All Alternates in Latin lookup 0 subtable" Tbar.001
Substitution2: "'salt' Stylistic Alternatives in Latin lookup 11 subtable" Tbar.001
EndChar

StartChar: tbar
Encoding: 359 359 337
Width: 603
VWidth: 0
Flags: HW
PickledData: "(dp1
S'spacing_anchors_slanted'
p2
I00
s."
HStem: -37 135<220 392.332> 436 89<53.7267 146.997 300.005 553.595> 765 86<353.389 595.856>
VStem: 83 269<770 881.5> 117 133<111.421 430.597> 204 96<526.45 755.086>
LayerCount: 3
Fore
SplineSet
53 470 m 0
 53 495 66 525 76 525 c 0
 140 525 140 524 148 524 c 0
 168 524 168 539 173 564 c 0
 190 651 204 721 204 743 c 0xe4
 204 785 83 741 83 799 c 0xf0
 83 839 159 836 250 931 c 0xe8
 331 1016 338 1045 370 1045 c 0
 381 1045 389 1038 389 1019 c 0
 389 992 352 897 352 866 c 0xf0
 352 854 358 851 425 851 c 0
 505 851 522 855 544 855 c 0
 588 855 596 840 596 815 c 0
 596 768 584 756 548 756 c 0
 515 756 427 765 382 765 c 0
 323 765 329 730 316 646 c 0
 310 611 300 546 300 542 c 0
 300 528 307 522 327 522 c 0
 543 522 447 525 534 526 c 0
 546 526 555 514 555 500 c 0
 555 443 530 437 508 437 c 0
 338 437 442 436 311 436 c 2xe4
 298 436 l 2
 290 436 282 434 280 422 c 0
 264 321 250 229 250 211 c 0
 250 102 327 98 335 98 c 0
 448 98 495 189 527 189 c 0
 534 189 550 187 550 159 c 0
 550 105 374 -37 248 -37 c 0
 192 -37 117 0 117 160 c 0xe8
 117 280 147 413 147 426 c 0
 147 433 143 436 128 436 c 2
 80 436 l 2
 63 436 53 452 53 470 c 0
EndSplineSet
EndChar

StartChar: lslash
Encoding: 322 322 338
Width: 707
VWidth: 0
Flags: HW
PickledData: "(dp1
S'spacing_anchors_slanted'
p2
I00
s."
HStem: -17 138<205.5 333.885> 1443 87<131.594 296.986>
VStem: 126 137<59.5953 527.108> 297 151<1260.68 1510.19>
LayerCount: 3
Fore
SplineSet
43 678 m 0
 43 720 56 728 63 731 c 2
 190 789 l 2
 209 798 211 810 214 832 c 0
 238 1049 297 1364 297 1403 c 0
 297 1427 278 1443 247 1443 c 0
 216 1443 210 1441 186 1441 c 0
 146 1441 127 1448 127 1470 c 0
 127 1481 131 1497 158 1499 c 0
 307 1510 353 1530 406 1530 c 0
 438 1530 448 1519 448 1498 c 0
 448 1474 392 1262 358 925 c 0
 356 905 354 891 354 883 c 0
 354 875 356 873 360 873 c 0
 365 873 373 877 387 884 c 2
 422 901 l 2
 458 919 498 939 507 939 c 0
 519 939 529 938 529 902 c 0
 529 847 501 840 474 827 c 2
 369 778 l 2
 330 760 339 768 314 596 c 0
 283 384 263 266 263 200 c 0
 263 130 270 121 296 121 c 0
 409 121 428 266 482 266 c 0
 496 266 506 253 506 233 c 0
 506 213 453 145 403 87 c 0
 349 25 265 -17 226 -17 c 0
 185 -17 126 -15 126 177 c 0
 126 322 197 661 197 684 c 0
 197 691 195 694 192 694 c 0
 185 694 68 636 61 636 c 0
 47 636 43 659 43 678 c 0
EndSplineSet
EndChar

StartChar: Lslash
Encoding: 321 321 339
Width: 1235
Flags: HMW
PickledData: "(dp1
S'spacing_anchors_slanted'
p2
I00
s."
HStem: -17 21G<789 998> 6 72<78.5781 202.493 396.253 784.541> 852 105<828.562 966.781> 1406 67<177.492 331.181>
VStem: 276 102<190 597> 360 96<880.652 1118.16>
LayerCount: 3
Fore
SplineSet
69 20 m 0
 69 65 125 38 178 86 c 0
 226 130 216 130 274 580 c 0
 275 583 276 594 276 597 c 0x78
 276 605 270 608 265 608 c 0
 262 608 257 607 252 605 c 2
 149 568 l 2
 142 566 136 564 130 564 c 0
 115 564 105 573 105 603 c 0
 105 627 112 647 121 651 c 2
 268 703 l 2
 293 711 295 727 298 751 c 0
 326 955 360 1219 360 1294 c 0
 360 1372 316 1403 236 1406 c 0
 202 1407 176 1427 176 1447 c 0
 176 1457 182 1473 209 1473 c 0
 229 1473 283 1457 442 1457 c 0
 553 1457 593 1464 629 1464 c 0
 655 1464 672 1455 672 1438 c 0
 672 1386 546 1436 523 1285 c 0
 523 1282 456 798 456 787 c 0x74
 456 779 458 776 463 776 c 0
 467 776 472 778 480 781 c 2
 909 944 l 2
 918 948 937 957 949 957 c 0
 961 957 970 951 970 930 c 0
 970 870 950 864 916 852 c 0
 848 828 866 827 470 684 c 0
 447 676 439 669 435 640 c 0
 404 403 378 206 378 190 c 0
 378 100 396 78 600 78 c 0
 1180 78 1130 280 1190 280 c 0
 1200 280 1215 276 1215 249 c 0
 1215 183 1121 50 1100 32 c 0
 1048 -13 1021 -17 975 -17 c 2
 878 -17 l 2
 700 -17 497 6 375 6 c 0x78
 263 6 217 -7 117 -7 c 0
 80 -7 69 7 69 20 c 0
EndSplineSet
EndChar

StartChar: aogonek
Encoding: 261 261 342
Width: 1062
VWidth: 0
Flags: HW
PickledData: "(dp1
S'spacing_anchors_slanted'
p2
I00
s."
HStem: -400 79<674.27 791.761> -30 112<284.717 460.303> 820 50<530.707 730.478>
VStem: 92 144<129.431 427.044> 526 119<-297.494 -144.409> 762 134<541 800.697>
LayerCount: 3
Fore
SplineSet
92 234 m 0
 92 475 354 870 634 870 c 0
 697 870 741 848 808 848 c 0
 848 848 873 948 914 948 c 0
 927 948 936 941 936 918 c 0
 936 886 911 836 896 776 c 0
 896 775 811 351 811 252 c 0
 811 199 842 132 880 132 c 0
 948 132 992 265 1031 265 c 0
 1047 265 1048 250 1048 242 c 0
 1048 163 927 53 901 31 c 0
 828 -30 645 -84 645 -190 c 0
 645 -267 694 -321 747 -321 c 0
 800 -321 830 -268 852 -268 c 0
 858 -268 859 -273 859 -284 c 0
 859 -312 773 -400 679 -400 c 0
 575 -400 526 -346 526 -264 c 0
 526 -102 729 -47 729 19 c 0
 729 57 715 48 702 120 c 0
 693 170 693 215 687 215 c 0
 677 215 506 -30 312 -30 c 0
 117 -30 92 100 92 234 c 0
236 246 m 0
 236 144 310 82 396 82 c 0
 544 82 640 230 658 266 c 0
 707 365 762 740 762 747 c 0
 762 804 672 820 628 820 c 0
 544 820 435 758 373 654 c 0
 297 527 236 409 236 246 c 0
EndSplineSet
EndChar

StartChar: eogonek
Encoding: 281 281 343
Width: 820
VWidth: 0
Flags: HW
PickledData: "(dp1
S'spacing_anchors_slanted'
p2
I00
s."
HStem: -400 79<414.27 531.761> 438 36<237.348 375.649> 831 62<420.612 590.937>
VStem: 65 140<202.962 475.895> 266 119<-297.494 -143.404> 618 141<616.728 813.249>
LayerCount: 3
Fore
SplineSet
65 302 m 0
 65 479 156 653 297 785 c 0
 373 857 468 893 582 893 c 0
 678 893 759 832 759 741 c 0
 759 593 600 511 562 494 c 0
 543 486 432 441 240 438 c 0
 211 438 205 408 205 354 c 0
 205 200 298 99 500 99 c 0
 617 99 698 187 720 187 c 0
 736 187 746 179 746 166 c 0
 746 127 694 84 518 -12 c 0
 445 -52 385 -106 385 -190 c 0
 385 -267 434 -321 487 -321 c 0
 540 -321 570 -268 592 -268 c 0
 598 -268 599 -273 599 -284 c 0
 599 -312 513 -400 419 -400 c 0
 315 -400 266 -346 266 -264 c 0
 266 -149 392 -63 392 -38 c 0
 392 -3 65 -84 65 302 c 0
234 515 m 0
 234 501 238 474 252 474 c 0
 451 474 618 605 618 735 c 0
 618 812 544 831 510 831 c 0
 458 831 394 791 341 735 c 0
 280 671 234 542 234 515 c 0
EndSplineSet
EndChar

StartChar: Aogonek
Encoding: 260 260 344
Width: 1663
VWidth: 0
Flags: HW
PickledData: "(dp1
S'spacing_anchors_slanted'
p2
I00
s."
HStem: -400 79<1124.27 1241.76> -5 66<63.5721 171.507 1455.49 1560.89> 527 95<578.02 1101.19> 1220 250<898 996.5>
VStem: 62 266<12 146> 976 119<-297.494 -145.233> 1254 308<15.467 176.551>
LayerCount: 3
Fore
SplineSet
62 19 m 0
 62 44 90 52 114 61 c 0
 237 107 189 135 934 1430 c 0
 957 1470 960 1470 980 1470 c 0
 1013 1470 998 1470 1096 1147 c 0
 1168 909 1386 240 1399 208 c 0
 1447 86 1454 81 1529 57 c 0
 1550 50 1562 42 1562 17 c 0
 1562 2 1554 -5 1498 -5 c 0
 1489 -5 1456 0 1411 -0 c 0
 1231.825 0 1095 -93.7375 1095 -190 c 0
 1095 -267 1144 -321 1197 -321 c 0
 1250 -321 1280 -268 1302 -268 c 0
 1308 -268 1309 -273 1309 -284 c 0
 1309 -312 1223 -400 1129 -400 c 0
 1025 -400 976 -346 976 -264 c 0
 976 -190 1037 -112 1097 -67 c 0
 1160 -20 1254 11 1254 132 c 0
 1254 221.101595681 1189.47135975 382.769692544 1170 469 c 0
 1166 487 1163 529 1095 529 c 0
 1051 529 981 527 847 527 c 0
 580 527 652 532 572 532 c 0
 538 532 514 525 501 502 c 0
 374 279 328 151 328 141 c 0
 328 25 466 79 466 25 c 0
 466 -5 455 -5 436 -5 c 0
 331 -2 292 -1 257 -1 c 0
 222 -1 192 -2 103 -5 c 0
 74 -5 62 5 62 19 c 0
578 640 m 0
 578 625 606 622 644 622 c 0
 684 622 674 624 1070 624 c 0
 1104 624 1104 642 1104 656 c 0
 1104 678 934 1220 906 1220 c 0
 890 1220 578 648 578 640 c 0
EndSplineSet
EndChar

StartChar: Eogonek
Encoding: 280 280 345
Width: 1165
VWidth: 0
Flags: HMW
PickledData: "(dp1
S'spacing_anchors_slanted'
p2
I00
s."
HStem: -400 79<864.27 981.761> -11 93<338.328 828.003> 701 81<414.192 870.115> 1365 80<486.646 1093.8>
VStem: 320 94<811 1269> 716 119<-297.494 -141.752> 914 99<533 915> 914 59<501.325 649.544>
LayerCount: 3
Fore
SplineSet
15 29 m 0
 15 40 29 56 61 58 c 0
 163 65 170 141 202 334 c 0
 213 404 230 496 244 607 c 2
 317 1227 l 2
 319 1246 320 1259 320 1269 c 0
 320 1434 163 1359 163 1420 c 0
 163 1441 173 1449 210 1449 c 0
 270 1449 420 1445 729 1445 c 0
 811 1445 1141 1454 1202 1454 c 0
 1216 1454 1238 1449 1238 1415 c 0
 1238 1388 1231 1355 1231 1307 c 0
 1231 1274 1237 1240 1237 1196 c 0
 1237 1171 1226 1138 1210 1138 c 0
 1155 1138 1206 1219 1141 1295 c 0
 1130 1308 1065 1357 925 1359 c 0
 762 1361 726 1365 609 1365 c 0
 483 1365 484 1350 464 1227 c 0
 455 1169 414 837 414 811 c 0
 414 784 420 782 502 782 c 0
 872 782 886 791 919 832 c 0
 969 894 962 938 988 938 c 0
 1006 938 1013 932 1013 915 c 0
 1013 879 984 783 973 702 c 0
 963 631 978 499 935 499 c 0
 916 499 914 515 914 533 c 0
 914 572 913 631 878 656 c 0
 839 684 766 699 660 699 c 0
 481 699 507 701 484 701 c 0
 441 701 409 697 406 665 c 0
 390 519 332 191 332 157 c 0
 332 89 386 82 590 82 c 0
 1100 82 1113 284 1167 284 c 0
 1178 284 1188 277 1188 257 c 0
 1188 214 1126 109 1056 43 c 0
 986 -24 835 -81 835 -190 c 0
 835 -267 884 -321 937 -321 c 0
 990 -321 1020 -268 1042 -268 c 0
 1048 -268 1049 -273 1049 -284 c 0
 1049 -312 963 -400 869 -400 c 0
 765 -400 716 -346 716 -264 c 0
 716 -147 837 -68 837 -39 c 0
 837 -22 824 -15 711 -11 c 0
 545 -5 402 6 317 6 c 0
 205 6 187 0 87 0 c 0
 16 0 15 18 15 29 c 0
EndSplineSet
EndChar

StartChar: iogonek
Encoding: 303 303 346
Width: 651
VWidth: 0
Flags: HW
PickledData: "(dp1
S'spacing_anchors_slanted'
p2
I00
s."
HStem: -400 79<169.27 293.042> 786 54<104.183 272.258> 839 20G<346.5 412> 1106 216<361.482 469.517>
VStem: 21 119<-297.539 -145.346> 182 136<137.109 446.137> 274 160<653.245 845.406> 322 182<1139.18 1282.4>
LayerCount: 3
Fore
SplineSet
21 -264 m 0
 21 -113 206 -53 206 0 c 0
 206 34 182 30 182 149 c 0xbc
 182 304 274 625 274 741 c 0
 274 776 262 784 225 784 c 0
 183 784 149 786 133 786 c 0xda
 120 786 104 790 104 810 c 0
 104 837 130 840 152 840 c 2
 172 840 l 2xda
 254 840 288 859 405 859 c 0
 419 859 434 850 434 836 c 0xba
 434 783 396 703 379 598 c 0
 318 210 318 216 318 191 c 0
 318 162 338 136 358 136 c 0
 427 136 457 242 486 242 c 0
 499 242 506 234 506 220 c 0
 506 196 469 126 447 101 c 1
 327 -19 323 15 216 -68 c 0
 173 -101 140 -140 140 -190 c 0
 140 -267 189 -321 242 -321 c 0
 288 -321 325 -278 347 -278 c 0
 353 -278 354 -283 354 -294 c 0
 354 -322 268 -400 174 -400 c 0
 70 -400 21 -336 21 -264 c 0
322 1215 m 0x99
 322 1234 388 1322 424 1322 c 0
 465 1322 504 1251 504 1214 c 0
 504 1174 432 1106 414 1106 c 0
 377 1106 322 1194 322 1215 c 0x99
EndSplineSet
EndChar

StartChar: Iogonek
Encoding: 302 302 347
Width: 672
VWidth: 0
Flags: HW
PickledData: "(dp1
S'spacing_anchors_slanted'
p2
I00
s."
HStem: -400 79<249.272 381.786> -11 57<388.36 531.953> 1355 83<508.006 631.961> 1387 54<143.212 272.104>
VStem: 106 114<-298.026 -110.703>
LayerCount: 3
Fore
SplineSet
51 23 m 0
 51 74 146 11 192 147 c 0
 193 150 334 1259 334 1267 c 0
 334 1387 188 1373 158 1387 c 0
 146 1392 143 1401 143 1411 c 0
 143 1427 154 1441 198 1441 c 0xd8
 256 1441 293 1425 408 1425 c 0
 497 1425 560 1438 601 1438 c 0
 615 1438 637 1436 637 1408 c 0
 637 1376 562 1391 531 1355 c 0
 490 1307 478 1183 471 1117 c 0
 414 576 354 279 354 203 c 0
 354 43 418 60 470 46 c 0
 502 38 532 42 532 19 c 0
 532 -11 516 -11 489 -11 c 0
 460 -11 362 -1 333 -1 c 0
 291 -1 286 -18 281 -24 c 0
 242 -69 220 -112 220 -190 c 0
 220 -267 269 -321 322 -321 c 0
 371 -321 403 -290 423 -290 c 0
 431 -290 435 -294 435 -301 c 0
 435 -334 345 -400 254 -400 c 0
 150 -400 106 -336 106 -254 c 0
 106 -120 220 -35 220 -13 c 0
 220 -6 209 -2 199 -2 c 0xe8
 185 -2 157 -11 123 -11 c 0
 77 -11 51 -1 51 23 c 0
EndSplineSet
EndChar

StartChar: Uogonek
Encoding: 370 370 348
Width: 1669
VWidth: 0
Flags: HW
PickledData: "(dp1
S'spacing_anchors_slanted'
p2
I00
s."
HStem: -400 79<699.27 831.786> 1431 20G<87 115.5 475 526.5 1248 1278.5 1571 1600.5>
VStem: 167 160<214.82 896.299> 244 314<1255 1436> 551 119<-297.494 -146.978> 1394 234<1207.5 1426.94>
LayerCount: 3
Fore
SplineSet
65 1421 m 0
 65 1434 74 1451 100 1451 c 0
 131 1451 184 1438 334 1438 c 0
 379 1438 432 1450 518 1450 c 0
 535 1450 558 1444 558 1421 c 0xd4
 558 1362 427 1422 412 1268 c 0
 381 953 327 604 327 393 c 0
 327 279 378 51 714 51 c 0
 1022 51 1174 199 1245 376 c 0
 1313 546 1394 1151 1394 1264 c 0
 1394 1410 1216 1354 1216 1418 c 0
 1216 1431 1230 1444 1266 1444 c 0
 1291 1444 1338 1435 1377 1435 c 0
 1463 1435 1552 1444 1590 1444 c 0
 1611 1444 1628 1431 1628 1418 c 0
 1628 1378 1532 1410 1497 1293 c 0
 1481 1239 1412 557 1320 336 c 0
 1255 179 1166 114 1029 30 c 0
 998 11 940 -8 848 -25 c 0
 800 -33 774 -23 713 -89 c 0
 686 -118 670 -151 670 -190 c 0
 670 -267 719 -321 772 -321 c 0
 821 -321 853 -290 873 -290 c 0
 881 -290 885 -294 885 -301 c 0xec
 885 -334 795 -400 704 -400 c 0
 600 -400 551 -346 551 -264 c 0
 551 -146 676 -82 676 -42 c 0
 676 -22 428 -66 264 102 c 0
 176 191 167 283 167 440 c 0xec
 167 498 244 1227 244 1283 c 0
 244 1428 65 1356 65 1421 c 0
EndSplineSet
EndChar

StartChar: uogonek
Encoding: 371 371 349
Width: 1117
VWidth: 0
Flags: HW
PickledData: "(dp1
S'spacing_anchors_slanted'
p2
I00
s."
HStem: -400 79<669.27 786.761> -23 130<188 348.115> 722 155<175.058 322.5>
VStem: 146 142<78.0073 423.602> 238 126<437.572 740> 521 119<-297.494 -144.607> 667 131<51.5 423.872> 796 126<702.039 878.389>
LayerCount: 3
Fore
SplineSet
53 602 m 0
 53 688 149 877 286 877 c 0
 359 877 364 752 364 728 c 0xec
 364 547 288 317 288 161 c 0
 288 127 310 107 324 107 c 0
 389 107 462 202 558 317 c 0
 692 479 747 667 796 848 c 0
 803 874 834 881 855 881 c 0
 888 881 922 865 922 835 c 0xf5
 922 779 798 284 798 180 c 0
 798 134 824 131 842 131 c 0
 966 131 974 283 1018 283 c 0
 1044 283 1048 259 1048 240 c 0
 1048 204 993 113 896 31 c 0
 823 -30 640 -84 640 -190 c 0
 640 -267 689 -321 742 -321 c 0
 795 -321 825 -268 847 -268 c 0
 853 -268 854 -273 854 -284 c 0
 854 -312 768 -400 674 -400 c 0
 570 -400 521 -346 521 -264 c 0
 521 -113 689 -67 689 -14 c 0xe6
 689 10 667 11 667 92 c 0
 667 224 704 386 704 404 c 0
 704 418 699 427 693 427 c 0
 680 427 669 382 608 295 c 0
 515 164 365 -23 216 -23 c 0
 160 -23 146 49 146 109 c 0xf6
 146 331 238 555 238 679 c 0
 238 702 224 722 198 722 c 0
 179 722 134 670 105 605 c 0
 96 584 84 576 74 576 c 0
 62 576 53 587 53 602 c 0
EndSplineSet
EndChar

StartChar: ordfeminine
Encoding: 170 170 353
Width: 700
VWidth: 10
Flags: HW
PickledData: "(dp1
S'spacing_anchors_slanted'
p2
I00
s."
HStem: 795 77<166.815 317.669> 805 96<499.445 615.598> 1299 40<326.435 507.307>
VStem: 54 95<885.872 1114.13> 493.889 51.1113<1117.68 1141.21>
LayerCount: 3
Fore
SplineSet
54 957 m 0xb8
 54 1088 191 1339 408 1339 c 0
 454 1339 485 1326 532 1326 c 0
 552.326171875 1326 579.826171875 1385.53613281 602.956054688 1385.53613281 c 0
 609.374023438 1385.53613281 619 1381.96386719 619 1362 c 0
 619 1341 606 1316 596 1277 c 0
 594.873046875 1271.36523438 545 1023.85253906 545 967 c 0
 545 935 564 901 581 901 c 0
 618 901 644 980 671 980 c 0
 677 980 686 977 686 962 c 0
 686 908 585 805 542 805 c 0x78
 456.889648438 805 457.887695312 912.48828125 452 938 c 1
 428 916 318 795 190 795 c 0
 71 795 54 875 54 957 c 0xb8
149 964 m 0
 149 908 189 872 248 872 c 0xb8
 350 872 416 957 428 978 c 0
 457.124023438 1028.96777344 493.888671875 1236.68261719 493.888671875 1258.22851562 c 0
 493.888671875 1290.84570312 446.293945312 1299 404 1299 c 0
 346 1299 271 1263 230 1203 c 1
 185 1129 149 1060 149 964 c 0
EndSplineSet
Validated: 1
EndChar

StartChar: ordmasculine
Encoding: 186 186 354
Width: 819
VWidth: 0
Flags: HW
PickledData: "(dp1
S'spacing_anchors_slanted'
p2
I00
s."
HStem: 788 47<302.854 448.489> 1301 46<367.797 508.418>
VStem: 143 105<866.266 1187.02> 558 101<949.318 1273.43>
LayerCount: 3
Fore
SplineSet
143 1015 m 0
 143 1170 248 1347 461 1347 c 0
 599 1347 659 1244 659 1125 c 0
 659 970 556 788 351 788 c 0
 235 788 143 861 143 1015 c 0
248 1013 m 0
 248 891 300 835 366 835 c 0
 459 835 496 894 521 954 c 0
 545 1011 558 1079 558 1139 c 0
 558 1253 508 1301 442 1301 c 0
 287 1301 248 1090 248 1013 c 0
EndSplineSet
Validated: 1
EndChar

StartChar: fraction
Encoding: 8260 8260 355
Width: 490
VWidth: 0
Flags: W
PickledData: "(dp1
S'spacing_anchors_slanted'
p2
I00
s."
LayerCount: 3
Fore
SplineSet
-288 -147 m 0
 -288 -115 511 1071 647 1273 c 0
 648 1275 683 1331 701 1331 c 0
 715 1331 738 1315 738 1305 c 0
 738 1291 728 1271 721 1261 c 0
 -244 -180 -209 -175 -233 -183 c 0
 -240 -185 -247 -187 -254 -187 c 0
 -287 -187 -288 -168 -288 -147 c 0
EndSplineSet
Validated: 1
EndChar

StartChar: registered
Encoding: 174 174 356
Width: 979
VWidth: 1000
Flags: HW
PickledData: "(dp1
S'spacing_anchors_slanted'
p2
I00
s."
HStem: 690 65<342.759 632.339> 888 41<695.566 745.99> 1121 29<417.086 500.043> 1336 34<252.791 321.601 413.858 520.802> 1487 63<347.685 627.331>
VStem: 60 61<980.314 1259.2> 334 78<930.744 1121 1149.89 1332.07> 577 80<1160.96 1307.44> 856 63<980.314 1259.2>
LayerCount: 3
Fore
SplineSet
60 1118 m 0
 60 1358 250 1550 486 1550 c 0
 726 1550 919 1358 919 1118 c 0
 919 885 726 690 486 690 c 0
 250 690 60 885 60 1118 c 0
121 1118 m 0
 121 922 290 755 486 755 c 0
 689 755 856 922 856 1118 c 0
 856 1321 689 1487 486 1487 c 0
 290 1487 121 1321 121 1118 c 0
252 1348 m 0
 252 1357 258 1366 277 1366 c 0
 307 1366 304 1365 324 1365 c 0
 425 1365 452 1370 480 1370 c 0
 570 1370 657 1337 657 1240 c 0
 657 1150 566 1144 566 1134 c 0
 566 1129 595 1105 611 1076 c 0
 634 1035 668 986 686 961 c 0
 706 934 717 929 729 929 c 0
 732 929 737 932 742 932 c 0
 751 932 751 926 751 923 c 0
 751 914 742 888 701 888 c 0
 685 888 672 889 646 903 c 0
 586 936 519 1111 484 1120 c 0
 482 1121 434 1121 433 1121 c 0
 416 1121 412 1121 412 1075 c 0
 412 1003 415 985 418 973 c 0
 437 904 501 937 501 909 c 0
 501 902 497 896 487 896 c 0
 483 896 390 901 382 901 c 0
 346 901 298 896 290 896 c 0
 282 896 277 902 277 911 c 0
 277 936 323 905 331 967 c 0
 334 988 334 1010 334 1034 c 2
 334 1083 l 2
 334 1208 335 1238 335 1281 c 0
 335 1328 300 1334 274 1334 c 0
 257 1334 252 1343 252 1348 c 0
411 1221 m 2
 411 1170 415 1150 441 1150 c 0
 461 1150 457 1149 469 1149 c 0
 550 1149 577 1169 577 1236 c 0
 577 1262 552 1336 447 1336 c 0
 417 1336 411 1328 411 1289 c 2
 411 1221 l 2
EndSplineSet
Validated: 1
EndChar

StartChar: uni00B5
Encoding: 181 181 357
Width: 1097
VWidth: 1000
Flags: W
PickledData: "(dp1
S'spacing_anchors_slanted'
p2
I00
s."
HStem: -407 21G<60 111.5> -37 128<222.767 357.737 755.947 901.886> 843 20G<273 293.5 846 879.5>
VStem: 20 82<-354.792 -25.6811> 673 150<64.1812 409.557> 792 159<635.716 844.375>
LayerCount: 3
Fore
SplineSet
20 -300 m 0xf8
 20 -96 100 90 158 341 c 0
 264 800 255 863 291 863 c 0
 296 863 386 852 386 810 c 0
 386 761 283 239 283 164 c 0
 283 133 291 91 323 91 c 0
 474 91 694 492 792 724 c 0
 850 861 829 862 863 862 c 0
 896 862 951 843 951 820 c 0xf4
 951 792 823 252 823 154 c 0
 823 122 848 102 874 102 c 0
 954 102 972 250 1013 250 c 0
 1035 250 1037 231 1037 215 c 0
 1037 132 913 -44 756 -44 c 0
 686 -44 673 26 673 104 c 0
 673 195 713 383 713 406 c 0
 713 414 711 417 709 417 c 0
 690 417 651 293 493 121 c 0
 417 38 314 -37 230 -37 c 0
 160 -37 152 52 144 52 c 0
 136 52 102 -102 102 -175 c 0
 102 -242 156 -322 156 -344 c 0
 156 -354 141 -407 82 -407 c 0
 38 -407 20 -374 20 -300 c 0xf8
EndSplineSet
Validated: 1
EndChar

StartChar: currency
Encoding: 164 164 358
Width: 1080
VWidth: 1000
Flags: HW
PickledData: "(dp1
S'spacing_anchors_slanted'
p2
I00
s."
HStem: 134 111<386.645 686.645> 828 107<390.837 686.438>
VStem: 137 117<380.558 690.559> 825 119<383.587 687.127>
LayerCount: 3
Fore
SplineSet
40 90 m 0
 40 115 59 134 77 152 c 2
 218 293 l 1
 167 360 137 444 137 536 c 0
 137 625 166 710 216 776 c 1
 77 917 l 2
 72 922 41 948 41 979 c 0
 41 1011 68 1034 95 1034 c 0
 120 1034 139 1015 157 997 c 2
 299 856 l 1
 365 906 449 935 538 935 c 0
 634 935 716 904 780 856 c 1
 922 997 l 2
 927 1002 953 1033 984 1033 c 0
 1016 1033 1039 1006 1039 979 c 0
 1039 954 1020 935 1002 917 c 2
 861 775 l 1
 911 708 944 623 944 533 c 0
 944 444 911 360 861 294 c 1
 1002 152 l 2
 1007 147 1038 121 1038 90 c 0
 1038 58 1011 35 984 35 c 0
 959 35 940 54 922 72 c 2
 780 213 l 1
 714 163 629 134 538 134 c 0
 449 134 364 161 298 211 c 1
 157 72 l 2
 152 67 126 36 95 36 c 0
 63 36 40 63 40 90 c 0
254 533 m 0
 254 371 384 245 539 245 c 0
 694 245 825 375 825 535 c 0
 825 693 696 828 539 828 c 0
 380 828 254 692 254 533 c 0
EndSplineSet
Validated: 1
EndChar

StartChar: yen
Encoding: 165 165 359
Width: 1354
VWidth: 5
Flags: W
PickledData: "(dp1
S'spacing_anchors_slanted'
p2
I00
s."
HStem: -14 70<505.013 620.868> 404 90<349.412 668.742 837.054 1161.03> 739 91<390.967 606.995 885.144 935.452 990.001 1203.65> 1392 70<156.826 309.357>
VStem: 156 400<1307.5 1441> 669 137<97.5995 403.676> 697 140<494.053 687.656>
LayerCount: 3
Fore
SplineSet
156 1434 m 0xfa
 156 1448 168 1462 224 1462 c 0
 251 1462 381 1454 416 1454 c 0
 463 1454 564 1462 598 1462 c 0
 652 1462 659 1446 659 1432 c 0
 659 1390 556 1400 556 1346 c 0
 556 1269 605 1198 754 882 c 0
 777 833 773 830 795 830 c 2
 883 830 l 2
 911 830 904 831 932 870 c 0
 934 872 1210 1246 1210 1340 c 0
 1210 1426 1065 1362 1065 1430 c 0
 1065 1453 1080 1459 1118 1459 c 0
 1141 1459 1194 1454 1226 1454 c 0
 1318 1454 1359 1460 1436 1460 c 0
 1488 1460 1490 1443 1490 1429 c 0
 1490 1399 1405 1396 1360 1349 c 0
 1298 1283 1137 1040 1031 890 c 0
 1008 857 990 842 990 835 c 0
 990 829 990 829 1181 829 c 0
 1192 829 1204 819 1204 794 c 0
 1204 745 1184 741 1173 741 c 0
 1092 741 1036 742 997 742 c 0
 895 742 909 736 884 693 c 0
 852 638 837 517 837 505 c 0xfa
 837 495 842 494 858 494 c 0
 964 494 1096 495 1122 495 c 0
 1156 495 1162 487 1162 468 c 0
 1162 408 1141 404 1107 404 c 0
 1021 404 935 404 849 404 c 0
 824 404 828 402 825 372 c 0
 821 330 806 182 806 161 c 0
 806 126 823 105 852 81 c 0
 918 28 1001 61 1001 16 c 0
 1001 0 998 -12 961 -12 c 0
 932 -12 794 2 731 2 c 0
 637 2 608 -14 559 -14 c 0
 517 -14 504 -1 504 12 c 0
 504 48 543 45 580 56 c 0
 621 68 632 102 642 182 c 1
 669 378 669 374 669 379 c 0xfc
 669 399 657 404 606 404 c 0
 394 404 418 405 371 405 c 0
 361 405 349 414 349 439 c 0
 349 463 354 493 379 493 c 0
 485 493 537 494 643 494 c 0
 694 494 686 496 690 534 c 0
 693 559 697 601 697 618 c 0
 697 640 691 663 672 705 c 0
 657 737 659 740 623 740 c 2
 430 739 l 2
 396 739 390 747 390 766 c 0
 390 827 411 830 444 830 c 2
 582 830 l 2
 600 830 607 831 607 835 c 0
 607 839 600 847 591 864 c 2
 433 1167 l 2
 344 1339 299 1378 254 1392 c 0
 229 1400 156 1386 156 1434 c 0xfa
EndSplineSet
Validated: 1
EndChar

StartChar: brokenbar
Encoding: 166 166 360
Width: 427
VWidth: 1000
Flags: HW
PickledData: "(dp1
S'spacing_anchors_slanted'
p2
I00
s."
VStem: 160 102<-427.004 410.287 723.852 1559.57>
LayerCount: 3
Fore
SplineSet
160 -303 m 0
 160 -207 164 -253 164 361 c 0
 164 396 179 411 217 411 c 0
 255 411 261 395 261 360 c 0
 261 -310 262 -243 262 -350 c 0
 262 -389 261 -428 228 -428 c 0
 166 -428 160 -416 160 -303 c 0
169 1511 m 0
 169 1546 184 1561 222 1561 c 0
 260 1561 266 1545 266 1510 c 0
 266 850 267 866 267 800 c 0
 267 761 266 722 233 722 c 0
 171 722 170 734 170 847 c 0
 170 943 169 897 169 1511 c 0
EndSplineSet
Validated: 1
EndChar

StartChar: afii00208
Encoding: 8213 8213 386
Width: 2048
VWidth: 0
Flags: W
PickledData: "(dp1
S'spacing_anchors_slanted'
p2
I00
s."
HStem: 379 108<0.06427 2047.38>
LayerCount: 3
Fore
SplineSet
0 438 m 0
 0 484 20 487 70 487 c 2
 2004 487 l 2
 2035 487 2048 482 2048 425 c 0
 2048 398 2031 379 2004 379 c 2
 78 379 l 2
 0 379 0 381 0 438 c 0
EndSplineSet
Validated: 1
AlternateSubs2: "'aalt' Access All Alternates lookup 0 subtable" afii00208.uppercase
AlternateSubs2: "'aalt' Access All Alternates in Latin lookup 0 subtable" afii00208.uppercase
Substitution2: "'case' Case-Sensitive Forms in Latin lookup 10 subtable" afii00208.uppercase
EndChar

StartChar: figuredash
Encoding: 8210 8210 387
Width: 1080
VWidth: 0
Flags: W
PickledData: "(dp1
S'spacing_anchors_slanted'
p2
I00
s."
HStem: 379 108<0.06427 1079.38>
LayerCount: 3
Fore
SplineSet
0 438 m 0
 0 484 20 487 70 487 c 2
 1036 487 l 2
 1067 487 1080 482 1080 425 c 0
 1080 398 1063 379 1036 379 c 2
 78 379 l 2
 0 379 0 381 0 438 c 0
EndSplineSet
Validated: 1
AlternateSubs2: "'aalt' Access All Alternates lookup 0 subtable" figuredash.uppercase
AlternateSubs2: "'aalt' Access All Alternates in Latin lookup 0 subtable" figuredash.uppercase
Substitution2: "lining_figures subtable" figuredash.uppercase
EndChar

StartChar: f_f
Encoding: 65536 -1 388
Width: 1073
VWidth: 0
Flags: HW
PickledData: "(dp1
S'spacing_anchors_slanted'
p2
I00
s."
HStem: -377 78<-6.5 117.019 462.5 600.474> 763 77<67.1494 262.995 404.322 737.996 872.01 1099.98> 1364 84<641.154 831.991> 1426 97<1043.7 1225.5>
VStem: 67 337<779.514 932.5>
LayerCount: 3
Fore
SplineSet
-52 -336 m 0xd8
 -52 -319 -36 -194 5 -194 c 0
 39 -194 12 -248 69 -290 c 0
 75 -294 81 -299 89 -299 c 0
 164 -299 162 -33 248 614 c 0
 263 728 263 728 263 730 c 0
 263 754 256 763 242 763 c 0
 115 763 140 762 115 762 c 0
 90 762 67 768 67 796 c 0
 67 831 78 842 120 842 c 0
 121 842 222 840 267 840 c 0
 274 840 280 842 282 856 c 0
 335 1259 613 1448 805 1448 c 0xe8
 903 1448 940 1398 950 1398 c 0
 970 1398 1029 1523 1190 1523 c 0
 1261 1523 1270 1501 1270 1469 c 0
 1270 1445 1264 1418 1264 1414 c 0
 1261 1384 1258 1348 1240 1348 c 0
 1196 1348 1177 1426 1090 1426 c 0
 980 1426 937 1222 906 1061 c 0
 889 969 872 926 872 875 c 0
 872 859 886 841 903 841 c 0
 947 841 1015 845 1069 845 c 0
 1099 845 1100 821 1100 800 c 0
 1100 780 1078 767 1043 767 c 0
 964 767 919 771 864 771 c 0
 838 771 823 41 730 -186 c 1
 680 -304 627 -339 534 -365 c 0
 511 -371 491 -374 480 -374 c 0
 445 -374 419 -356 419 -323 c 0
 419 -306 435 -200 476 -200 c 0
 487 -200 487 -209 496 -227 c 0
 522 -280 554 -299 565 -299 c 0
 638 -299 656 95 672 228 c 0
 722 656 738 726 738 730 c 0
 738 759 732 767 718 767 c 0
 638 767 649 773 503 773 c 2
 420 773 l 2
 383 773 387 733 386 727 c 0
 354 504 314 -51 269 -162 c 0
 207 -313 63 -377 11 -377 c 0
 -24 -377 -52 -369 -52 -336 c 0xd8
404 861 m 0
 404 845 411 841 428 841 c 0
 491 841 459 840 742 840 c 0
 749 840 755 842 757 856 c 0
 804 1171 868 1221 868 1268 c 0
 868 1287 828 1364 708 1364 c 0
 526 1364 404 1004 404 861 c 0
EndSplineSet
Ligature2: "'liga' Standard Ligatures in Latin lookup 12 subtable" f f
LCarets2: 1 0 
EndChar

StartChar: f_i
Encoding: 65537 -1 389
Width: 1046
VWidth: 0
Flags: W
PickledData: "(dp1
S'spacing_anchors_slanted'
p2
I00
s."
HStem: -377 85<18.5 147.097> -14 136<719.5 856.512> 766 78<96.1855 287.99 429.359 753.732> 836 20G<847.5 885> 1428 94<669.685 845.019>
VStem: 288 118<400.24 773.994> 680 130<122.577 517.917> 759 148<578.69 831.182>
LayerCount: 3
Fore
SplineSet
-26 -322 m 2xdd
 -26 -218 5 -195 26 -195 c 0
 36 -195 47 -204 49 -218 c 0
 57 -267 98 -292 109 -292 c 0
 175 -292 189 -49 212 140 c 0
 284 731 288 726 288 730 c 0
 288 768 274 774 260 774 c 2
 246 774 l 2
 205 774 164 766 136 766 c 0
 112 766 96 772 96 793 c 0
 96 831 98 844 145 844 c 0xed
 155 844 208 839 250 839 c 0
 266 839 281 840 292 840 c 0
 299 840 305 842 307 856 c 0
 328 997 396 1226 512 1354 c 0
 595 1445 717 1522 826 1522 c 0
 893 1522 960 1505 960 1444 c 0
 960 1428 929 1338 901 1338 c 0
 867 1338 838 1428 746 1428 c 0
 494 1428 429 890 429 861 c 0
 429 845 437 835 454 835 c 0
 850 835 821 856 874 856 c 0
 896 856 907 830 907 816 c 0xdd
 907 785 810 356 810 185 c 0
 810 137 835 122 850 122 c 0
 906 122 940 222 969 222 c 0
 980 222 989 216 989 201 c 0
 989 161 929 104 918 92 c 1
 918 92 839 -14 750 -14 c 0
 689 -14 680 67 680 156 c 0xde
 680 339 759 670 759 730 c 0
 759 765 742 768 705 770 c 0
 633 773 609 780 465 780 c 0
 429 780 406 778 406 716 c 1
 406 716 344 -35 294 -158 c 0
 226 -324 80 -377 36 -377 c 0
 1 -377 -26 -366 -26 -333 c 2
 -26 -322 l 2xdd
EndSplineSet
Ligature2: "'liga' Standard Ligatures in Latin lookup 12 subtable" f i
LCarets2: 1 0 
EndChar

StartChar: f_l
Encoding: 65538 -1 390
Width: 1028
VWidth: 0
Flags: W
PickledData: "(dp1
S'spacing_anchors_slanted'
p2
I00
s."
HStem: -371 84<18.5 149.782> -10 129<811.013 877.543> 769 78<92.0784 288.998 425.149 652.751> 1430 94<657.463 836.078>
VStem: 684 126<121.384 544.452> 842 144<1186.38 1498>
LayerCount: 3
Fore
SplineSet
-32 -327 m 0
 -32 -310 -21 -184 20 -184 c 0
 54 -184 66 -287 108 -287 c 0
 186 -287 189 9 207 140 c 0
 289 736 289 723 289 757 c 0
 289 767 286 774 272 774 c 0
 206 774 167 769 143 769 c 0
 98 769 92 785 92 804 c 0
 92 834 99 847 146 847 c 0
 147 847 246 844 292 844 c 2
 296 844 l 2
 326 844 297 1025 437 1260 c 0
 490 1349 626 1524 814 1524 c 0
 831 1524 867 1518 880 1518 c 0
 907 1518 908 1524 930 1524 c 0
 982 1524 986 1508 986 1488 c 0
 986 1382 976 1426 949 1238 c 0
 913 985 810 257 810 174 c 0
 810 165 811 172 811 165 c 0
 811 120 829 119 850 119 c 0
 851 119 852 119 853 119 c 0
 949 119 990 256 1021 256 c 0
 1034 256 1045 253 1045 231 c 0
 1045 211 1037 194 950 94 c 0
 896 32 804 -10 756 -10 c 0
 689 -10 684 56 684 132 c 2
 684 170 l 2
 684 457 842 1218 842 1356 c 0
 842 1398 812 1430 733 1430 c 0
 516 1430 425 949 425 871 c 0
 425 844 434 841 453 841 c 0
 497 841 559 845 613 845 c 0
 644 845 655 843 655 830 c 0
 655 785 635 782 622 782 c 0
 620 782 618 782 616 782 c 0
 537 782 500 778 445 778 c 0
 408 778 412 733 411 727 c 0
 362 397 338 -54 284 -166 c 0
 193 -356 78 -371 36 -371 c 0
 1 -371 -32 -360 -32 -327 c 0
EndSplineSet
Ligature2: "'liga' Standard Ligatures in Latin lookup 12 subtable" f l
LCarets2: 1 0 
EndChar

